<?xml version="1.0" standalone="no"?>
<!DOCTYPE svg PUBLIC "-//W3C//DTD SVG 1.1//EN" "http://www.w3.org/Graphics/SVG/1.1/DTD/svg11.dtd" >
<svg>
<metadata>
Created by FontForge 20090622 at Tue Jul 28 07:13:59 2020
 By deploy user
Mark Bloom and Joe Leadbeater (c) 2018
</metadata>
<defs>
<font id="Aeonik-Light" horiz-adv-x="529" >
  <font-face 
    font-family="Aeonik Light"
    font-weight="250"
    font-stretch="normal"
    units-per-em="1000"
    panose-1="2 1 5 3 3 3 0 0 0 0"
    ascent="800"
    descent="-200"
    x-height="507"
    cap-height="700"
    bbox="-352 -206 2173 897"
    underline-thickness="38"
    underline-position="-200"
    unicode-range="U+0020-U+1F10C"
  />
<missing-glyph horiz-adv-x="620" 
d="M80 700h460v-768h-460v768z" />
    <glyph glyph-name="fi" unicode="fi" horiz-adv-x="485" 
d="M424 0h-51v460h-228v-460h-51v460h-96v47h96v75q0 61 28 89.5t91 28.5h75v-47h-73q-38 0 -54 -16t-16 -54v-76h279v-507zM425 684q10 -10 10 -27q0 -16 -10.5 -26.5t-26.5 -10.5t-26.5 10.5t-10.5 26.5t10.5 26.5t26.5 10.5q17 0 27 -10z" />
    <glyph glyph-name="f_f.liga" unicode="ff" horiz-adv-x="573" 
d="M440 637q-16 -16 -16 -54v-76h152v-47h-152v-460h-51v460h-228v-460h-51v460h-96v47h96v75q0 61 28 89.5t91 28.5h75v-47h-73q-38 0 -54 -16t-16 -54v-76h228v75q0 61 28 89.5t90 28.5h86v-47h-83q-38 0 -54 -16z" />
    <glyph glyph-name="f_f_i.liga" unicode="ffi" horiz-adv-x="764" 
d="M703 0h-52v460h-227v-460h-51v460h-228v-460h-51v460h-96v47h96v75q0 61 28 89.5t91 28.5h75v-47h-73q-38 0 -54 -16t-16 -54v-76h228v75q0 61 28 89.5t90 28.5h76v-47h-73q-38 0 -54 -16t-16 -54v-76h279v-507zM703.5 683.5q10.5 -10.5 10.5 -26.5t-10.5 -26.5
t-26.5 -10.5t-26.5 10.5t-10.5 26.5t10.5 26.5t26.5 10.5t26.5 -10.5z" />
    <glyph glyph-name="f_f_t.liga" unicode="fft" horiz-adv-x="857" 
d="M847 47v-47h-77q-64 0 -91.5 28t-27.5 90v342h-227v-460h-51v460h-228v-460h-51v460h-96v47h96v75q0 61 28 89.5t91 28.5h75v-47h-73q-38 0 -54 -16t-16 -54v-76h228v75q0 61 28 89.5t90 28.5h76v-47h-73q-38 0 -54 -16t-16 -54v-76h227v142h52v-142h134v-47h-134v-341
q0 -39 16 -55.5t54 -16.5h74z" />
    <glyph glyph-name="f_t.liga" unicode="ft" horiz-adv-x="578" 
d="M568 47v-47h-77q-64 0 -91 28t-27 90v342h-228v-460h-51v460h-96v47h96v75q0 61 28 89.5t91 28.5h75v-47h-73q-38 0 -54 -16t-16 -54v-76h228v142h51v-142h135v-47h-135v-341q0 -39 16 -55.5t54 -16.5h74z" />
    <glyph glyph-name="t_t.liga" unicode="tt" horiz-adv-x="578" 
d="M568 47v-47h-77q-64 0 -91 28t-27 90v342h-228v-341q0 -39 16 -55.5t54 -16.5h61v-47h-63q-64 0 -91.5 28t-27.5 90v342h-96v47h96v142h51v-142h228v142h51v-142h135v-47h-135v-341q0 -39 16 -55.5t54 -16.5h74z" />
    <glyph glyph-name=".notdef" horiz-adv-x="620" 
d="M80 700h460v-768h-460v768z" />
    <glyph glyph-name=".null" horiz-adv-x="0" 
 />
    <glyph glyph-name="nonmarkingreturn" horiz-adv-x="333" 
 />
    <glyph glyph-name="space" unicode=" " horiz-adv-x="270" 
 />
    <glyph glyph-name="exclam" unicode="!" horiz-adv-x="221" 
d="M91 204l-8 496h55l-7 -496h-40zM82.5 60q10.5 10 27.5 10t28 -10t11 -27t-11 -27.5t-28 -10.5t-27.5 10.5t-10.5 27.5t10.5 27z" />
    <glyph glyph-name="quotedbl" unicode="&#x22;" horiz-adv-x="344" 
d="M66.5 693.5q7.5 9.5 21.5 9.5q16 0 23 -9t6 -24l-10 -192h-37l-10 192q-1 14 6.5 23.5zM234.5 693.5q7.5 9.5 21.5 9.5q16 0 23 -9t6 -24l-10 -192h-37l-10 192q-1 14 6.5 23.5z" />
    <glyph glyph-name="numbersign" unicode="#" horiz-adv-x="587" 
d="M221 606h42l-28 -184h151l29 184h43l-29 -184h111v-43h-117l-22 -152h116v-43h-123l-28 -184h-43l28 184h-151l-28 -184h-43l28 184h-110v43h116l23 152h-117v43h123zM229 379l-23 -152h152l22 152h-151z" />
    <glyph glyph-name="dollar" unicode="$" horiz-adv-x="597" 
d="M490 55q-60 -54 -160 -60v-102h-48v102q-104 7 -167 66.5t-68 154.5h54q5 -79 61 -125.5t145 -46.5q86 0 137.5 38.5t51.5 105.5q0 48 -27.5 76t-70.5 41.5t-110 24.5q-70 12 -117 29.5t-78 54t-31 99.5q0 85 59.5 137.5t160.5 56.5v101h48v-103q90 -8 146.5 -61.5
t63.5 -135.5l-53 -1q-9 69 -60 110t-130 41q-83 0 -132 -37.5t-49 -104.5q0 -47 26 -74t65.5 -39t108.5 -24q70 -11 119.5 -29.5t82 -56.5t32.5 -101q0 -83 -60 -137z" />
    <glyph glyph-name="percent" unicode="%" horiz-adv-x="880" 
d="M84 623.5q22 38.5 60.5 60.5t85.5 22q48 0 86.5 -22t60.5 -60.5t22 -85.5t-22 -85.5t-60.5 -60t-86.5 -21.5q-47 0 -85.5 21.5t-60.5 60t-22 85.5t22 85.5zM180 0l471 700h51l-472 -700h-50zM318 628q-35 36 -88 36q-52 0 -87 -36t-35 -90t34.5 -89.5t87.5 -35.5t88 35.5
t35 89.5t-35 90zM503 246.5q22 38.5 60.5 60.5t86.5 22q47 0 85.5 -22t60.5 -60.5t22 -85.5t-22 -85.5t-60.5 -60t-85.5 -21.5q-48 0 -86.5 21.5t-60.5 60t-22 85.5t22 85.5zM737 251q-35 36 -87 36q-53 0 -88 -36t-35 -90t35 -89.5t88 -35.5t87.5 35.5t34.5 89.5t-35 90z
" />
    <glyph glyph-name="ampersand" unicode="&#x26;" horiz-adv-x="713" 
d="M670 46v-46h-70q-64 0 -95 38l-49 58q-87 -102 -203 -102q-89 0 -147 47.5t-58 130.5q0 130 171 203q-42 52 -59 88t-17 82q0 45 23.5 82t65 58t92.5 21q43 0 78 -19t55 -52t20 -74q0 -61 -42.5 -109t-139.5 -89l6 -7l156 -183l136 205h54l-159 -242l50 -58
q15 -19 31 -25.5t38 -6.5h63zM230.5 629q-34.5 -33 -34.5 -83q0 -39 16 -71t56 -80q83 36 120 75t37 90q0 44 -29.5 73t-75.5 29q-55 0 -89.5 -33zM347 63q44 23 79 68l-166 196l-15 17q-79 -38 -112 -76t-33 -92q0 -63 43 -99.5t111 -36.5q49 0 93 23z" />
    <glyph glyph-name="quotesingle" unicode="'" horiz-adv-x="177" 
d="M66.5 693.5q7.5 9.5 21.5 9.5q16 0 23 -9t6 -24l-10 -192h-37l-10 192q-1 14 6.5 23.5z" />
    <glyph glyph-name="parenleft" unicode="(" horiz-adv-x="281" 
d="M271 700q-90 -124 -127 -224t-37 -226t37 -225.5t127 -224.5h-54q-85 116 -122.5 220t-37.5 230t37.5 229.5t122.5 220.5h54z" />
    <glyph glyph-name="parenright" unicode=")" horiz-adv-x="281" 
d="M189.5 479.5q37.5 -103.5 37.5 -229.5t-37.5 -230t-122.5 -220h-54q90 125 127 224.5t37 225.5t-37 226t-127 224h54q85 -117 122.5 -220.5z" />
    <glyph glyph-name="asterisk" unicode="*" horiz-adv-x="420" 
d="M366 582l-128 -49l88 -104l-28 -25l-89 109l-87 -109l-28 25l88 105l-127 49l14 35l124 -54l-1 137h36l-1 -137l124 54z" />
    <glyph glyph-name="plus" unicode="+" 
d="M240 492h47v-183h175v-43h-175v-183h-47v183h-174v43h174v183z" />
    <glyph glyph-name="comma" unicode="," horiz-adv-x="184" 
d="M125.5 45.5q17.5 -24.5 17.5 -58.5q0 -50 -30.5 -81.5t-81.5 -33.5v30q36 1 55.5 24.5t19.5 54.5q0 17 -9 26q-7 -12 -25 -12q-15 0 -25 9.5t-10 26.5t12 28t32 11q27 0 44.5 -24.5z" />
    <glyph glyph-name="hyphen" unicode="-" horiz-adv-x="441" 
d="M59 263v42h323v-42h-323z" />
    <glyph glyph-name="period" unicode="." horiz-adv-x="184" 
d="M64.5 60q10.5 10 27.5 10t27.5 -10t10.5 -27t-10.5 -27.5t-27.5 -10.5t-27.5 10.5t-10.5 27.5t10.5 27z" />
    <glyph glyph-name="slash" unicode="/" horiz-adv-x="314" 
d="M-14 -200l293 900h49l-293 -900h-49z" />
    <glyph glyph-name="zero" unicode="0" horiz-adv-x="614" 
d="M55 366q0 99 31.5 176t89 120.5t131.5 43.5t131.5 -43.5t89 -120.5t31.5 -176v-32q0 -101 -31.5 -178.5t-88.5 -119.5t-132 -42t-132 42t-88.5 119.5t-31.5 178.5v32zM481.5 518.5q-24.5 66.5 -70 103t-104.5 36.5q-60 0 -105.5 -36.5t-70 -103t-24.5 -154.5v-28
q0 -88 24.5 -154.5t70 -103t105.5 -36.5q59 0 104.5 36.5t70 103t24.5 154.5v28q0 88 -24.5 154.5z" />
    <glyph glyph-name="one" unicode="1" horiz-adv-x="301" 
d="M220 700v-700h-52v522q-13 -16 -46 -16h-119v47h120q23 0 34.5 14t11.5 39v94h51z" />
    <glyph glyph-name="two" unicode="2" horiz-adv-x="559" 
d="M315 292q43 39 70 67.5t45 64.5t18 77q0 74 -47 116.5t-127 42.5q-78 0 -125 -47.5t-47 -128.5v-14h-52v17q0 65 27.5 115t78.5 77.5t118 27.5q106 0 167 -55t61 -148q0 -50 -20 -91.5t-50.5 -74t-82.5 -80.5l-233 -210h394v-48h-466v45z" />
    <glyph glyph-name="three" unicode="3" horiz-adv-x="595" 
d="M493.5 307q47.5 -44 47.5 -117q0 -57 -31 -101.5t-87 -69.5t-128 -25q-111 0 -177.5 56.5t-66.5 154.5h53q1 -76 54 -120t140 -44q54 0 97 19.5t67.5 54t24.5 78.5q0 67 -52 104.5t-144 37.5h-54v45h51q84 0 132.5 40.5t48.5 103.5q0 60 -48 97.5t-124 37.5
q-78 0 -126 -39.5t-49 -107.5h-52q1 91 62.5 142.5t162.5 51.5q69 0 120 -22.5t79 -63.5t28 -94q0 -66 -40 -110t-109 -56q73 -9 120.5 -53z" />
    <glyph glyph-name="four" unicode="4" horiz-adv-x="596" 
d="M27 231l364 469h62v-468h119v-48h-119v-184h-53v184h-373v47zM83 232h317v408z" />
    <glyph glyph-name="five" unicode="5" horiz-adv-x="583" 
d="M427 434q51 -30 79.5 -83t28.5 -120q0 -74 -32.5 -127.5t-87 -81t-118.5 -27.5q-71 0 -124 28.5t-82.5 77.5t-33.5 108h52q7 -71 57 -119t131 -48q49 0 91.5 21.5t68 64.5t25.5 102q0 54 -22 96.5t-63.5 66.5t-95.5 24q-56 0 -106.5 -26.5t-71.5 -83.5l-51 2l25 391h393
v-48h-345l-20 -280q30 46 80.5 69t104.5 23q66 0 117 -30z" />
    <glyph glyph-name="six" unicode="6" horiz-adv-x="601" 
d="M68 220.5q-13 61.5 -13 129.5q0 106 29.5 186.5t86.5 125t139 44.5q91 0 149 -51t72 -135h-53q-13 64 -56 102t-114 38q-101 0 -154.5 -83t-53.5 -218q0 -46 10 -90q0 17 2 27q14 74 70 118.5t138 44.5q67 0 118.5 -29t80 -81.5t28.5 -121.5q0 -67 -29.5 -120t-82.5 -83
t-122 -30q-71 0 -123.5 31t-83.5 88q-25 46 -38 107.5zM446.5 361.5q-48.5 51.5 -130.5 51.5q-54 0 -96.5 -24t-66 -66.5t-23.5 -96.5q0 -83 50.5 -134.5t132.5 -51.5t132 52t50 135t-48.5 134.5z" />
    <glyph glyph-name="seven" unicode="7" horiz-adv-x="526" 
d="M14 700h484v-38l-363 -662h-57l363 652h-427v48z" />
    <glyph glyph-name="eight" unicode="8" horiz-adv-x="598" 
d="M496.5 301.5q47.5 -47.5 47.5 -118.5q0 -55 -30 -98t-85.5 -67t-129.5 -24q-73 0 -128.5 24t-85.5 67t-30 98q0 71 46.5 118.5t122.5 60.5q-66 11 -107.5 55t-41.5 108q0 53 27.5 94.5t78.5 64.5t118 23t118 -23t78.5 -64.5t27.5 -94.5q0 -63 -42 -108t-107 -55
q75 -13 122.5 -60.5zM175 425.5q48 -38.5 124 -38.5t124.5 38.5t48.5 99.5t-48.5 99t-124.5 38t-124 -38t-48 -99t48 -99.5zM398 56.5q44 18.5 69 52t25 76.5t-25 77.5t-69 54t-99 19.5q-56 0 -99.5 -19.5t-68 -54t-24.5 -77.5t24.5 -76.5t68.5 -52t99 -18.5t99 18.5z" />
    <glyph glyph-name="nine" unicode="9" horiz-adv-x="601" 
d="M532.5 480.5q13.5 -60.5 13.5 -124.5q0 -171 -67 -266.5t-189 -95.5q-91 0 -151.5 50t-73.5 138h52q14 -67 59 -104.5t116 -37.5q99 0 153 79.5t55 220.5q1 43 -9 91q0 -17 -2 -28q-14 -73 -70 -117.5t-137 -44.5q-67 0 -118.5 29t-80 81.5t-28.5 121.5q0 68 29.5 120.5
t83 82.5t122.5 30q70 0 123 -32t83 -88q23 -45 36.5 -105.5zM155 339q48 -51 130 -51q55 0 97 23.5t65.5 66t23.5 97.5q0 82 -49.5 133t-130.5 52q-84 0 -134 -51.5t-50 -135.5q0 -83 48 -134z" />
    <glyph glyph-name="colon" unicode=":" horiz-adv-x="184" 
d="M64.5 453q10.5 10 27.5 10t27.5 -10t10.5 -27t-10.5 -27.5t-27.5 -10.5t-27.5 10.5t-10.5 27.5t10.5 27zM64.5 60q10.5 10 27.5 10t27.5 -10t10.5 -27t-10.5 -27.5t-27.5 -10.5t-27.5 10.5t-10.5 27.5t10.5 27z" />
    <glyph glyph-name="semicolon" unicode=";" horiz-adv-x="184" 
d="M125.5 45.5q17.5 -24.5 17.5 -58.5q0 -50 -30.5 -81.5t-81.5 -33.5v30q36 1 55.5 24.5t19.5 54.5q0 17 -9 26q-7 -12 -25 -12q-15 0 -25 9.5t-10 26.5t12 28t32 11q27 0 44.5 -24.5zM62.5 453q10.5 10 27.5 10t27.5 -10t10.5 -27t-10.5 -27.5t-27.5 -10.5t-27.5 10.5
t-10.5 27.5t10.5 27z" />
    <glyph glyph-name="less" unicode="&#x3c;" 
d="M79 259v50l371 173v-50l-314 -148l314 -147v-51z" />
    <glyph glyph-name="equal" unicode="=" 
d="M76 355v44h376v-44h-376zM76 150v43h376v-43h-376z" />
    <glyph glyph-name="greater" unicode="&#x3e;" 
d="M450 309v-50l-371 -173v51l314 147l-314 148v50z" />
    <glyph glyph-name="question" unicode="?" horiz-adv-x="502" 
d="M67.5 599q26.5 50 75 78.5t113.5 28.5q60 0 105.5 -22t70.5 -61t25 -87q0 -58 -24.5 -96t-67.5 -71q-6 -5 -37 -27.5t-46 -47.5t-15 -54v-35h-48v40q0 36 14.5 62t32 41t60.5 48q38 29 58 60t20 75q0 55 -41 91t-106 36q-74 0 -119 -47.5t-45 -124.5h-52q0 63 26.5 113z
M216.5 60q10.5 10 27.5 10t27.5 -10t10.5 -27t-10.5 -27.5t-27.5 -10.5t-27.5 10.5t-10.5 27.5t10.5 27z" />
    <glyph glyph-name="at" unicode="@" horiz-adv-x="983" 
d="M116.5 467q61.5 99 166.5 156t230 57q120 0 214.5 -46.5t147.5 -129t53 -186.5q0 -76 -27 -137.5t-74 -96t-104 -34.5q-44 0 -69.5 25t-25.5 67v25q-18 -53 -66 -84.5t-107 -31.5q-50 0 -90 24.5t-62.5 67.5t-22.5 97q0 62 29 115t78 84.5t105 31.5q60 0 99.5 -28
t49.5 -73l14 92h40l-29 -289q-1 -5 -1 -16q0 -34 17.5 -52t49.5 -18q40 0 73.5 30.5t53.5 84t20 117.5q0 93 -46 165.5t-129.5 112.5t-190.5 40q-111 0 -205 -51.5t-149 -140.5t-55 -196q0 -109 48.5 -191.5t137 -127t205.5 -44.5q67 0 128 17t107 48l-1 -46
q-40 -28 -104 -45t-134 -17q-128 0 -227 50.5t-154 142.5t-55 212t61.5 219zM596 395.5q-36 37.5 -95 37.5q-47 0 -86.5 -26t-63 -70t-23.5 -95q0 -67 37.5 -110t99.5 -43q48 0 86 26t59.5 73t21.5 107q0 63 -36 100.5z" />
    <glyph glyph-name="A" unicode="A" horiz-adv-x="638" 
d="M17 0l270 700h64l270 -700h-58l-84 214h-322l-84 -214h-56zM173 264h290l-145 377z" />
    <glyph glyph-name="B" unicode="B" horiz-adv-x="615" 
d="M311 700q105 0 162 -47t57 -131q0 -64 -34.5 -106t-98.5 -56q78 -13 121.5 -54.5t43.5 -115.5q0 -89 -63.5 -139.5t-183.5 -50.5h-243v700h239zM126 382h187q78 0 120.5 36t42.5 99t-42.5 98.5t-120.5 35.5h-187v-269zM126 49h189q93 0 142 38t49 105q0 69 -50 105
t-141 36h-189v-284z" />
    <glyph glyph-name="C" unicode="C" horiz-adv-x="702" 
d="M87 535q40 81 114 126t171 45q111 0 186 -58t97 -163h-54q-22 82 -83 126.5t-149 44.5q-80 0 -140 -39t-93 -108.5t-33 -158.5t33 -158.5t93 -108.5t140 -39q90 0 149.5 44t81.5 128h54q-23 -106 -96.5 -164t-185.5 -58q-97 0 -171 44.5t-114 125.5t-40 186q0 104 40 185
z" />
    <glyph glyph-name="D" unicode="D" horiz-adv-x="659" 
d="M72 700h188q110 0 189 -43t121 -122t42 -185t-42 -185t-121 -122t-189 -43h-188v700zM260 50q141 0 219 80.5t78 219.5q0 140 -77.5 220t-219.5 80h-134v-600h134z" />
    <glyph glyph-name="E" unicode="E" horiz-adv-x="546" 
d="M72 700h431v-50h-377v-268h316v-50h-316v-282h390v-50h-444v700z" />
    <glyph glyph-name="F" unicode="F" horiz-adv-x="511" 
d="M72 700h416v-50h-362v-277h302v-50h-302v-323h-54v700z" />
    <glyph glyph-name="G" unicode="G" horiz-adv-x="739" 
d="M87 535q40 81 113 126t171 45q110 0 185 -58t98 -163h-53q-24 82 -84 126.5t-148 44.5q-80 0 -140 -39t-93 -108.5t-33 -158.5t32.5 -158.5t92 -108.5t136.5 -39q76 0 132.5 31.5t87 86t30.5 123.5v30h-230v50h282v-365h-45l-5 160q-25 -70 -90 -118t-163 -48
q-92 0 -164 45t-112 126t-40 185t40 185z" />
    <glyph glyph-name="H" unicode="H" horiz-adv-x="657" 
d="M72 701h54v-319h405v319h54v-701h-54v332h-405v-332h-54v701z" />
    <glyph glyph-name="I" unicode="I" horiz-adv-x="198" 
d="M72 700h54v-700h-54v700z" />
    <glyph glyph-name="J" unicode="J" horiz-adv-x="339" 
d="M267 700v-554q0 -146 -146 -146h-93v51h86q52 0 75.5 23.5t23.5 75.5v550h54z" />
    <glyph glyph-name="K" unicode="K" horiz-adv-x="610" 
d="M72 700h54v-441l387 441h66l-254 -293l277 -407h-65l-251 366l-160 -183v-183h-54v700z" />
    <glyph glyph-name="L" unicode="L" horiz-adv-x="484" 
d="M72 0v700h54v-650h335v-50h-389z" />
    <glyph glyph-name="M" unicode="M" horiz-adv-x="823" 
d="M72 700h69l272 -627l270 627h68v-700h-53v609l-262 -609h-49l-262 609v-609h-53v700z" />
    <glyph glyph-name="N" unicode="N" horiz-adv-x="662" 
d="M72 0v700h51l414 -601v601h53v-700h-51l-414 602v-602h-53z" />
    <glyph glyph-name="O" unicode="O" horiz-adv-x="749" 
d="M659.5 166.5q-41.5 -81.5 -116 -127t-169.5 -45.5t-169.5 45.5t-116 127t-41.5 183.5t41.5 183.5t116 127t169.5 45.5t169.5 -45.5t116 -127t41.5 -183.5t-41.5 -183.5zM137.5 191.5q34.5 -69.5 96 -108.5t140.5 -39t141 39t96.5 108.5t34.5 158.5t-34.5 158.5
t-96.5 108.5t-141 39t-140.5 -39t-96 -108.5t-34.5 -158.5t34.5 -158.5z" />
    <glyph glyph-name="P" unicode="P" horiz-adv-x="576" 
d="M332 700q66 0 115.5 -25.5t76.5 -71.5t27 -107q0 -60 -27 -106.5t-77 -72t-115 -25.5h-206v-292h-54v700h260zM126 342h201q77 0 123 42.5t46 111.5t-45.5 111.5t-122.5 42.5h-202v-308z" />
    <glyph glyph-name="Q" unicode="Q" horiz-adv-x="751" 
d="M731 50v-50h-56q-37 0 -58 10t-40 37l-7 10q-83 -63 -196 -63q-95 0 -169.5 45.5t-116 127t-41.5 183.5t41.5 183.5t116 127t169.5 45.5t169.5 -45.5t116 -127t41.5 -183.5q0 -78 -24.5 -144.5t-69.5 -114.5l2 -3q16 -23 31 -30.5t41 -7.5h50zM540 100l-36 51
q-16 21 -30 29.5t-35 8.5h-60v50h68q31 0 50 -10t39 -38l39 -55q34 40 52.5 95t18.5 119q0 89 -34.5 158.5t-96.5 108.5t-141 39t-140.5 -39t-96 -108.5t-34.5 -158.5t34.5 -158.5t96 -108.5t140.5 -39q96 0 166 56z" />
    <glyph glyph-name="R" unicode="R" horiz-adv-x="595" 
d="M331 700q100 0 160 -55.5t60 -148.5q0 -77 -44.5 -129t-119.5 -65l166 -302h-61l-159 292h-207v-292h-54v700h259zM126 342h201q77 0 123 42t46 112t-45.5 112t-122.5 42h-202v-308z" />
    <glyph glyph-name="S" unicode="S" horiz-adv-x="597" 
d="M101 216q5 -79 61 -125.5t145 -46.5q86 0 137.5 38.5t51.5 105.5q0 48 -27.5 76t-70.5 41.5t-110 24.5q-70 12 -117 29.5t-78 54t-31 99.5q0 58 29 102t82.5 68t123.5 24q104 0 169.5 -54.5t73.5 -144.5l-53 -1q-9 69 -60 110t-130 41q-83 0 -132 -37.5t-49 -104.5
q0 -47 26 -74t65.5 -39t108.5 -24q70 -11 119.5 -29.5t82 -56.5t32.5 -101q0 -58 -30.5 -103t-85.5 -70t-128 -25q-76 0 -133.5 27.5t-90 78t-35.5 116.5h54z" />
    <glyph glyph-name="T" unicode="T" horiz-adv-x="580" 
d="M23 700h534v-50h-240v-650h-54v650h-240v50z" />
    <glyph glyph-name="U" unicode="U" horiz-adv-x="650" 
d="M123 700v-414q0 -122 49 -182t152 -60q104 0 153.5 60t49.5 182v414h54v-411q0 -295 -257 -295q-255 0 -255 295v411h54z" />
    <glyph glyph-name="V" unicode="V" horiz-adv-x="615" 
d="M14 700h57l237 -636l237 636h56l-261 -700h-65z" />
    <glyph glyph-name="W" unicode="W" horiz-adv-x="975" 
d="M29 700h57l187 -629l189 629h55l184 -629l189 629h56l-213 -700h-65l-181 610l-181 -610h-65z" />
    <glyph glyph-name="X" unicode="X" horiz-adv-x="620" 
d="M277 358l-230 342h63l202 -299l203 299h58l-230 -342l245 -358h-64l-216 314l-217 -314h-59z" />
    <glyph glyph-name="Y" unicode="Y" horiz-adv-x="618" 
d="M14 701h63l232 -384l234 384h61l-268 -443v-258h-54v258z" />
    <glyph glyph-name="Z" unicode="Z" horiz-adv-x="606" 
d="M54 700h512v-40l-462 -610h470v-50h-542v40l462 610h-440v50z" />
    <glyph glyph-name="bracketleft" unicode="[" horiz-adv-x="285" 
d="M69 701h195v-46h-147v-810h147v-45h-195v901z" />
    <glyph glyph-name="backslash" unicode="\" horiz-adv-x="314" 
d="M328 -200h-49l-293 900h49z" />
    <glyph glyph-name="bracketright" unicode="]" horiz-adv-x="285" 
d="M216 -201h-195v46h147v810h-147v45h195v-901z" />
    <glyph glyph-name="asciicircum" unicode="^" horiz-adv-x="508" 
d="M48 388l184 312h43l185 -312h-48l-160 267l-158 -267h-46z" />
    <glyph glyph-name="underscore" unicode="_" horiz-adv-x="503" 
d="M64 -57v51h375v-51h-375z" />
    <glyph glyph-name="grave" unicode="`" horiz-adv-x="400" 
d="M70 700h60l90 -132h-42z" />
    <glyph glyph-name="a" unicode="a" horiz-adv-x="535" 
d="M527 47v-47h-30q-44 0 -64.5 22t-18.5 62v21q-23 -51 -72 -81t-122 -30q-82 0 -131 39t-49 106q0 72 51.5 111.5t148.5 39.5h172v44q0 63 -39.5 98.5t-110.5 35.5q-63 0 -102.5 -28t-49.5 -75h-51q10 69 64 108.5t141 39.5q95 0 147 -47t52 -134v-236q0 -23 12 -36
t33 -13h19zM412 246h-176q-70 0 -107 -27t-37 -77q0 -47 35.5 -75.5t95.5 -28.5q88 0 138.5 46.5t50.5 120.5v41z" />
    <glyph glyph-name="b" unicode="b" horiz-adv-x="587" 
d="M428.5 481.5q54.5 -31.5 85 -90.5t30.5 -137q0 -76 -30.5 -135t-85 -92t-123.5 -33q-70 0 -120 32.5t-73 88.5l-8 -115h-44v700h51v-311q25 56 75 90t119 34t123.5 -31.5zM400.5 67q43.5 27 67.5 76t24 111t-24 110.5t-67.5 76t-99.5 27.5t-99.5 -27.5t-67.5 -76
t-24 -109.5q0 -63 24 -112t67.5 -76t99.5 -27t99.5 27z" />
    <glyph glyph-name="c" unicode="c" horiz-adv-x="541" 
d="M425.5 39.5q-57.5 -45.5 -142.5 -45.5q-71 0 -125.5 33t-84.5 92t-30 136q0 76 30.5 134.5t85.5 91t126 32.5q85 0 142 -45.5t71 -123.5h-51q-13 57 -57 90.5t-107 33.5q-55 0 -97.5 -27t-66.5 -75.5t-24 -110.5t24 -111t66.5 -76.5t97.5 -27.5q63 0 107 33.5t57 90.5h51
q-15 -79 -72.5 -124.5z" />
    <glyph glyph-name="d" unicode="d" horiz-adv-x="587" 
d="M527 700v-700h-44l-8 115q-25 -55 -75 -88t-118 -33q-69 0 -123.5 32t-85 90.5t-30.5 137.5q0 75 30.5 134t85 92t123.5 33q70 0 120 -32t74 -88v307h51zM385.5 67q43.5 27 67.5 75.5t24 110.5t-24 111t-67.5 76.5t-99.5 27.5t-99.5 -27.5t-67.5 -76t-24 -110.5t24 -111
t67.5 -76t99.5 -27t99.5 27z" />
    <glyph glyph-name="e" unicode="e" horiz-adv-x="554" 
d="M72.5 389q29.5 59 83 91.5t121.5 32.5q67 0 119 -28.5t82.5 -82.5t32.5 -128q0 -14 -1 -21h-413q-1 -4 -1 -12q1 -59 25 -104.5t66 -71t95 -25.5q62 0 108 34.5t61 93.5h52q-18 -78 -76.5 -126t-140.5 -48q-71 0 -126.5 33t-86 92t-30.5 135t29.5 135zM458 296
q-7 82 -55.5 127t-124.5 45q-46 0 -85 -21.5t-64 -60.5t-29 -90h358z" />
    <glyph glyph-name="f" unicode="f" horiz-adv-x="294" 
d="M94 507v75q0 61 28 89.5t91 28.5h85v-47h-83q-38 0 -54 -16t-16 -54v-76h152v-47h-152v-460h-51v460h-96v47h96z" />
    <glyph glyph-name="g" unicode="g" horiz-adv-x="587" 
d="M527 507v-476q0 -120 -59 -178.5t-182 -58.5q-94 0 -154 43t-72 123h53q12 -57 58.5 -88.5t118.5 -31.5q94 0 140 46.5t46 146.5v89q-25 -60 -74.5 -94t-119.5 -34q-69 0 -123.5 32t-85 90.5t-30.5 137.5q0 76 30.5 135t85 91.5t123.5 32.5t119 -33t74 -91l8 118h44z
M385.5 67q43.5 27 67.5 75.5t24 110.5q0 63 -24 112t-67.5 76t-99.5 27t-99.5 -27t-67.5 -76t-24 -111t24 -111t67.5 -76t99.5 -27t99.5 27z" />
    <glyph glyph-name="h" unicode="h" horiz-adv-x="548" 
d="M439.5 456q54.5 -57 54.5 -172v-284h-51v282q0 89 -41.5 136.5t-115.5 47.5q-81 0 -128 -58.5t-47 -157.5v-250h-51v700h51v-313q23 58 69 92t114 34q91 0 145.5 -57z" />
    <glyph glyph-name="i" unicode="i" horiz-adv-x="171" 
d="M111 683q10 -10 10 -26t-10 -26t-26 -10q-15 0 -25.5 10t-10.5 26t10.5 26t25.5 10q16 0 26 -10zM60 507h51v-507h-51v507z" />
    <glyph glyph-name="j" unicode="j" horiz-adv-x="177" 
d="M117 683q10 -10 10 -26t-10 -26t-26 -10q-15 0 -25.5 10t-10.5 26t10.5 26t25.5 10q16 0 26 -10zM-4 -153q38 0 54 16t16 54v590h51v-589q0 -61 -28 -89.5t-91 -28.5h-62v47h60z" />
    <glyph glyph-name="k" unicode="k" horiz-adv-x="497" 
d="M60 700h51v-499l296 306h62l-203 -210l220 -297h-62l-194 260l-119 -122v-138h-51v700z" />
    <glyph glyph-name="l" unicode="l" horiz-adv-x="171" 
d="M60 700h51v-700h-51v700z" />
    <glyph glyph-name="m" unicode="m" horiz-adv-x="866" 
d="M761.5 457q51.5 -56 51.5 -167v-290h-52v287q0 87 -37 133t-104 46q-71 0 -113.5 -51.5t-44.5 -138.5v-276h-51v287q0 87 -37.5 133t-105.5 46q-72 0 -115 -57t-43 -151v-258h-50v507h44l8 -109q20 52 62 83.5t103 31.5t105 -32.5t62 -94.5q23 59 69 93t113 34
q84 0 135.5 -56z" />
    <glyph glyph-name="n" unicode="n" horiz-adv-x="547" 
d="M439.5 456q54.5 -57 54.5 -172v-284h-51v282q0 89 -41.5 136.5t-115.5 47.5q-81 0 -128 -58.5t-47 -157.5v-250h-51v507h44l8 -108q23 52 69 83t113 31q91 0 145.5 -57z" />
    <glyph glyph-name="o" unicode="o" horiz-adv-x="573" 
d="M160 27q-55 33 -86 92t-31 135t31 134.5t86 91.5t126 33t126.5 -33t86.5 -91.5t31 -134.5t-31 -135t-86.5 -92t-126.5 -33t-126 33zM386 67q44 27 68 76t24 111t-24 110.5t-68 76t-100 27.5t-99.5 -27.5t-67.5 -76t-24 -110.5t24 -111t67.5 -76t99.5 -27t100 27z" />
    <glyph glyph-name="p" unicode="p" horiz-adv-x="587" 
d="M428.5 481.5q54.5 -31.5 85 -90.5t30.5 -137q0 -76 -30.5 -135t-85 -92t-123.5 -33q-71 0 -121.5 33t-72.5 90v-317h-51v707h44l8 -116q25 56 74.5 89t118.5 33t123.5 -31.5zM400.5 67q43.5 27 67.5 76t24 111t-24 110.5t-67.5 76t-99.5 27.5t-99.5 -27.5t-67.5 -76
t-24 -109.5q0 -63 24 -112t67.5 -76t99.5 -27t99.5 27z" />
    <glyph glyph-name="q" unicode="q" horiz-adv-x="587" 
d="M527 507v-707h-51v317q-25 -56 -75 -89.5t-119 -33.5t-123.5 32t-85 90.5t-30.5 137.5q0 75 30.5 134t85 92t123.5 33t119 -32t74 -86l8 112h44zM385.5 67q43.5 27 67.5 75.5t24 110.5t-24 111t-67.5 76.5t-99.5 27.5t-99.5 -27.5t-67.5 -76t-24 -110.5t24 -111t67.5 -76
t99.5 -27t99.5 27z" />
    <glyph glyph-name="r" unicode="r" horiz-adv-x="312" 
d="M290 507v-49h-33q-82 0 -114 -55.5t-32 -145.5v-257h-51v507h44l8 -101q18 47 54 74t101 27h23z" />
    <glyph glyph-name="s" unicode="s" horiz-adv-x="493" 
d="M93 156q3 -55 47 -86.5t116 -31.5q63 0 104 27t41 71q0 35 -19.5 54.5t-50.5 28t-83 16.5q-64 9 -104 20.5t-66 38.5t-26 75q0 42 24.5 75t67 51.5t96.5 18.5q87 0 141.5 -38.5t61.5 -111.5h-51q-7 49 -47.5 77.5t-101.5 28.5q-63 0 -102 -27t-39 -70q0 -33 19.5 -51
t47.5 -25t81 -14q65 -9 107 -22.5t68.5 -42.5t26.5 -79q0 -66 -56.5 -105.5t-139.5 -39.5q-96 0 -154 42.5t-60 119.5h51z" />
    <glyph glyph-name="t" unicode="t" horiz-adv-x="299" 
d="M94 460h-96v47h96v142h51v-142h135v-47h-135v-341q0 -39 16 -55.5t54 -16.5h74v-47h-76q-64 0 -91.5 28t-27.5 90v342z" />
    <glyph glyph-name="u" unicode="u" horiz-adv-x="539" 
d="M479 507v-507h-45l-7 107q-23 -52 -68 -82.5t-110 -30.5q-88 0 -141.5 57.5t-53.5 171.5v284h51v-281q0 -90 40 -137.5t112 -47.5q79 0 125 58.5t46 158.5v249h51z" />
    <glyph glyph-name="v" unicode="v" horiz-adv-x="476" 
d="M9 507h55l175 -448l174 448h53l-198 -507h-61z" />
    <glyph glyph-name="w" unicode="w" horiz-adv-x="777" 
d="M11 507h54l148 -446l153 446h48l144 -446l156 446h52l-180 -507h-55l-143 426l-149 -426l-56 -1z" />
    <glyph glyph-name="x" unicode="x" horiz-adv-x="479" 
d="M208 259l-187 248h61l159 -210l160 210h57l-188 -248l198 -259h-62l-169 223l-169 -223h-57z" />
    <glyph glyph-name="y" unicode="y" horiz-adv-x="477" 
d="M64 507l176 -447l173 447h55l-243 -601q-18 -45 -31 -66t-32 -30.5t-53 -9.5h-78v47h64q26 0 39.5 6t22 20t22.5 46l33 79l-203 509h55z" />
    <glyph glyph-name="z" unicode="z" horiz-adv-x="466" 
d="M36 507h394v-40l-341 -420h355v-47h-422v40l340 420h-326v47z" />
    <glyph glyph-name="braceleft" unicode="{" horiz-adv-x="321" 
d="M187 627q-30 -28 -30 -80q0 -12 4 -40l20 -100q6 -25 6 -45q0 -44 -25 -73t-71 -39q46 -8 71 -36.5t25 -72.5q0 -22 -6 -48l-20 -100q-4 -28 -4 -41q0 -52 30 -79.5t86 -27.5h28v-45h-27q-78 0 -122 37.5t-44 105.5q0 20 5 45l19 103q5 20 5 45q0 43 -27.5 66t-78.5 25
v46q52 1 79.5 25t27.5 66q0 21 -6 45l-19 103q-5 25 -5 45q0 68 44 105.5t122 37.5h27v-45h-28q-56 0 -86 -28z" />
    <glyph glyph-name="bar" unicode="|" horiz-adv-x="195" 
d="M72 700h51v-900h-51v900z" />
    <glyph glyph-name="braceright" unicode="}" horiz-adv-x="321" 
d="M211.5 202q-27.5 -23 -27.5 -66q0 -25 5 -45l19 -103q5 -25 5 -45q0 -68 -44 -105.5t-122 -37.5h-27v45h28q56 0 86 27.5t30 79.5q0 13 -4 41l-20 100q-6 26 -6 48q0 44 25 72.5t71 36.5q-46 10 -71 39t-25 73q0 20 6 45l20 100q4 28 4 40q0 52 -30 80t-86 28h-28v45h27
q78 0 122 -37.5t44 -105.5q0 -20 -5 -45l-19 -103q-6 -24 -6 -45q0 -42 27.5 -66t79.5 -25v-46q-51 -2 -78.5 -25z" />
    <glyph glyph-name="asciitilde" unicode="~" 
d="M72 217q0 57 29.5 90.5t77.5 33.5q31 0 52.5 -11t46.5 -32q21 -17 35 -25t33 -8q34 0 51 21.5t17 56.5h43q0 -57 -29 -90.5t-78 -33.5q-31 0 -52.5 11t-46.5 32q-21 17 -35 25t-33 8q-33 1 -50 -20.5t-17 -57.5h-44z" />
    <glyph glyph-name="exclamdown" unicode="&#xa1;" horiz-adv-x="221" 
d="M153 694.5q11 -10.5 11 -27.5t-11 -27t-28 -10t-27.5 10t-10.5 27t10.5 27.5t27.5 10.5t28 -10.5zM106 496h40l7 -496h-55z" />
    <glyph glyph-name="cent" unicode="&#xa2;" horiz-adv-x="541" 
d="M390 165.5q44 33.5 57 90.5h51q-14 -71 -62.5 -116t-121.5 -52v-88h-48v87q-66 4 -116.5 37.5t-78.5 91t-28 131.5q0 73 28 129.5t78.5 90t116.5 37.5v96h48v-96q74 -8 122.5 -52.5t61.5 -115.5h-51q-13 57 -57 90.5t-107 33.5q-55 0 -97.5 -27t-66.5 -75.5t-24 -110.5
t24 -111t66.5 -76.5t97.5 -27.5q63 0 107 33.5z" />
    <glyph glyph-name="sterling" unicode="&#xa3;" horiz-adv-x="609" 
d="M138 354l-9 38q-8 36 -12 59t-4 49q0 58 29 105t79 74t109 27q100 0 158.5 -52.5t71.5 -151.5h-52q-27 155 -176 155q-47 0 -85 -21t-60 -57.5t-22 -82.5q0 -35 15 -95l10 -47h225v-44h-219q4 -23 4 -51q0 -114 -83 -208l441 -1v-50h-499v47q88 99 88 215q0 16 -4 48h-93
v44h88z" />
    <glyph glyph-name="currency" unicode="&#xa4;" horiz-adv-x="610" 
d="M168 523q61 48 137 48t137 -48l77 78l37 -36l-77 -77q26 -29 40 -66t14 -80q0 -39 -12 -74.5t-34 -63.5l69 -69l-36 -35l-69 68q-29 -26 -67 -40.5t-79 -14.5t-79 14.5t-67 40.5l-69 -68l-36 36l69 69q-46 59 -46 137q0 42 14 79.5t40 66.5l-77 77l36 35zM146.5 248.5
q23.5 -41.5 65 -65.5t93.5 -24t93.5 24t65 65.5t23.5 93.5t-23.5 93.5t-65 65.5t-93.5 24t-93.5 -24t-65 -65.5t-23.5 -93.5t23.5 -93.5z" />
    <glyph glyph-name="yen" unicode="&#xa5;" horiz-adv-x="631" 
d="M606 701l-249 -411h180v-40h-199v-107h199v-40h-199v-103h-54v103h-199v40h199v107h-199v40h180l-250 411h64l232 -384l234 384h61z" />
    <glyph glyph-name="brokenbar" unicode="&#xa6;" horiz-adv-x="195" 
d="M72 700h51v-391h-51v391zM72 190h51v-390h-51v390z" />
    <glyph glyph-name="section" unicode="&#xa7;" horiz-adv-x="569" 
d="M470.5 208.5q-31.5 -34.5 -87.5 -52.5q38 -18 59 -46t21 -73q0 -64 -49.5 -103.5t-128.5 -39.5q-77 0 -127.5 38t-54.5 104h51q3 -48 39 -74t92 -26q57 0 92.5 26.5t35.5 70.5q0 36 -18.5 57t-44.5 31.5t-75 24.5q-69 19 -110.5 36.5t-69.5 47.5t-28 77q0 51 31 86t86 52
q-38 18 -58.5 46.5t-20.5 72.5q0 63 51 102.5t133 39.5q75 0 124 -38t52 -104h-51q-2 48 -37 74t-88 26q-59 0 -96 -26.5t-37 -69.5q0 -36 18 -57t45 -32.5t75 -24.5q69 -19 110.5 -36t69.5 -47t28 -77q0 -51 -31.5 -85.5zM418 215q32 29 32 77q0 35 -20.5 56.5t-51.5 33
t-91 28.5l-50 14q-54 -10 -86 -38.5t-32 -76.5q0 -35 20.5 -56.5t51.5 -33.5t90 -29l51 -14q54 10 86 39z" />
    <glyph glyph-name="dieresis" unicode="&#xa8;" horiz-adv-x="400" 
d="M91 669q10 10 25 10q16 0 26 -10t10 -25t-10 -25t-26 -10q-15 0 -25 10t-10 25t10 25zM258.5 669q10.5 10 25.5 10t25 -10t10 -25t-10 -25t-25 -10t-25.5 10t-10.5 25t10.5 25z" />
    <glyph glyph-name="copyright" unicode="&#xa9;" horiz-adv-x="823" 
d="M98.5 530.5q47.5 81.5 130 128.5t182.5 47t182.5 -47t130.5 -129t48 -180t-48 -180t-130.5 -129t-182.5 -47t-182.5 47t-130 128.5t-47.5 180.5t47.5 180.5zM690.5 512.5q-42.5 73.5 -116.5 116t-163 42.5t-162.5 -42.5t-116 -116t-42.5 -162.5t42.5 -162.5t116 -116
t162.5 -42.5t163 42.5t116.5 116t42.5 162.5t-42.5 162.5zM527.5 184q-46.5 -39 -116.5 -39q-59 0 -103 28t-67 75.5t-23 103.5t23 103t66.5 75t103.5 28q69 0 116.5 -39.5t60.5 -106.5h-43q-12 49 -47 78.5t-86 29.5q-71 0 -111 -48t-40 -120q0 -71 40 -120t111 -49
q51 0 86 29t48 78h42q-14 -67 -60.5 -106z" />
    <glyph glyph-name="ordfeminine" unicode="&#xaa;" horiz-adv-x="429" 
d="M97 540q33 25 95 25h103v27q0 39 -23.5 60t-67.5 21q-38 0 -61.5 -19t-28.5 -51h-40q5 47 40.5 75t90.5 28q61 0 95 -30t34 -85v-142q0 -31 30 -31h15v-33h-26q-26 0 -39 13.5t-13 38.5v25q-13 -35 -44.5 -58.5t-78.5 -23.5q-52 0 -83 24t-31 66q0 45 33 70zM295 536
h-104q-40 0 -62.5 -17.5t-22.5 -46.5t20 -45t56 -16q51 0 82 33.5t31 79.5v12zM59 291h320v-37h-320v37z" />
    <glyph glyph-name="guillemotleft" unicode="&#xab;" horiz-adv-x="554" 
d="M273 507l-161 -253l161 -254h-52l-163 254l163 253h52zM494 506l-161 -253l161 -254h-52l-163 254l163 253h52z" />
    <glyph glyph-name="logicalnot" unicode="&#xac;" 
d="M66 336h353v-212h-46v168h-307v44z" />
    <glyph glyph-name="registered" unicode="&#xae;" horiz-adv-x="510" 
d="M80.5 608.5q26.5 45.5 72 72t101.5 26.5q57 0 103 -26t72.5 -71.5t26.5 -101.5t-26.5 -101.5t-72.5 -71.5t-103 -26q-56 0 -101.5 26t-72 71.5t-26.5 100.5q0 56 26.5 101.5zM403.5 595.5q-22.5 39.5 -61.5 62t-88 22.5q-48 0 -87 -22.5t-61.5 -62t-22.5 -88.5
q0 -48 22.5 -87t61.5 -61.5t87 -22.5q49 0 88 22.5t61.5 62t22.5 87.5t-22.5 87.5zM264 622q36 0 57.5 -19t21.5 -49q0 -25 -15 -42t-41 -22l57 -96h-33l-53 91h-49v-91h-29v228h84zM209 510h54q22 0 36 11.5t14 32.5q0 20 -14 31.5t-36 11.5h-54v-87z" />
    <glyph glyph-name="macron" unicode="&#xaf;" horiz-adv-x="400" 
d="M72 626v39h256v-39h-256z" />
    <glyph glyph-name="degree" unicode="&#xb0;" horiz-adv-x="428" 
d="M78.5 626.5q20.5 35.5 56.5 55.5t79 20t79 -20t57 -55.5t21 -78.5q0 -42 -21 -77t-57 -55t-79 -20t-79 20t-56.5 55t-20.5 77q0 43 20.5 78.5zM299.5 634q-34.5 35 -85.5 35q-50 0 -85 -35t-35 -86q0 -49 35 -83.5t85 -34.5q51 0 85.5 34t34.5 84q0 51 -34.5 86z" />
    <glyph glyph-name="plusminus" unicode="&#xb1;" 
d="M66 0v43h396v-43h-396zM240 502h47v-183h175v-43h-175v-183h-47v183h-174v43h174v183z" />
    <glyph glyph-name="uni00B2" unicode="&#xb2;" horiz-adv-x="310" 
d="M31 688q0 54 35 86t88 32q56 0 90 -30t34 -78q0 -37 -19 -64t-55 -58l-123 -105h201v-35h-255v34l150 125q32 27 47.5 50t15.5 52q0 33 -23.5 53.5t-61.5 20.5q-40 0 -64 -22.5t-24 -62.5v-6h-36v8z" />
    <glyph glyph-name="uni00B3" unicode="&#xb3;" horiz-adv-x="319" 
d="M70 779q34 29 89 29t89 -27.5t34 -71.5q0 -32 -20 -53t-52 -27q37 -7 59 -29.5t22 -58.5q0 -49 -36.5 -79t-96.5 -30q-63 0 -98 30t-35 85h36q1 -39 27.5 -60t70.5 -21q41 0 67.5 20.5t26.5 53.5t-27 52.5t-72 19.5h-23v27h23q40 0 65 18.5t25 48.5t-23.5 49t-60.5 19
q-40 0 -64 -20t-24 -54h-37q1 50 35 79z" />
    <glyph glyph-name="acute" unicode="&#xb4;" horiz-adv-x="400" 
d="M181 568l91 132h60l-110 -132h-41z" />
    <glyph glyph-name="uni00B5" unicode="&#xb5;" horiz-adv-x="549" 
d="M111 -200h-51v707h51v-276q0 -91 41 -140.5t114 -49.5q78 0 125 60.5t47 161.5v244h51v-507h-47l-4 123q-22 -61 -66.5 -95t-110.5 -34q-53 0 -95 26t-55 68v-288z" />
    <glyph glyph-name="paragraph" unicode="&#xb6;" horiz-adv-x="631" 
d="M386 236h-115q-72 0 -127.5 29.5t-85.5 82t-30 120.5t30 120.5t85 82t127 29.5h165v-700h-49v236zM511 700h49v-700h-49v700z" />
    <glyph glyph-name="periodcentered" unicode="&#xb7;" horiz-adv-x="184" 
d="M64.5 318q10.5 10 27.5 10t27.5 -10t10.5 -27t-10.5 -27.5t-27.5 -10.5t-27.5 10.5t-10.5 27.5t10.5 27z" />
    <glyph glyph-name="cedilla" unicode="&#xb8;" horiz-adv-x="400" 
d="M218 10l-14 -59h16q37 0 60 -20t23 -52q0 -36 -23.5 -57.5t-61.5 -21.5h-82v32h74q24 0 38.5 12t14.5 34q0 19 -14.5 31t-36.5 12h-44l22 89h28z" />
    <glyph glyph-name="uni00B9" unicode="&#xb9;" horiz-adv-x="168" 
d="M87 437v257q-4 -9 -18 -9h-69v35h69q8 0 13.5 7t5.5 16v58h35v-364h-36z" />
    <glyph glyph-name="ordmasculine" unicode="&#xba;" horiz-adv-x="416" 
d="M316 425q-42 -45 -109 -45t-109 45t-42 118t42 118.5t109 45.5t109 -45.5t42 -118.5t-42 -118zM128.5 451q30.5 -35 78.5 -35q49 0 79.5 35t30.5 92t-30.5 92.5t-79.5 35.5q-48 0 -78.5 -35.5t-30.5 -92.5t30.5 -92zM55 291h306v-37h-306v37z" />
    <glyph glyph-name="guillemotright" unicode="&#xbb;" horiz-adv-x="554" 
d="M281 507h52l163 -253l-163 -254h-52l161 254zM60 506h52l163 -253l-163 -254h-52l161 254z" />
    <glyph glyph-name="onequarter" unicode="&#xbc;" horiz-adv-x="583" 
d="M87 337v257q-4 -9 -18 -9h-69v35h69q8 0 13.5 7t5.5 16v58h35v-364h-36zM15 0l444 700h43l-444 -700h-43zM475 364h44v-234h62v-34h-62v-96h-36v96h-192v34zM483 324l-152 -194h152v194z" />
    <glyph glyph-name="onehalf" unicode="&#xbd;" horiz-adv-x="633" 
d="M87 337v257q-4 -9 -18 -9h-69v35h69q8 0 13.5 7t5.5 16v58h35v-364h-36zM15 0l444 700h43l-444 -700h-43zM360 252q0 54 35 86t88 32q56 0 90 -30t34 -78q0 -37 -19 -64t-55 -58l-123 -105h201v-35h-255v34l150 125q32 27 47.5 50t15.5 52q0 33 -23.5 53.5t-61.5 20.5
q-40 0 -64 -22.5t-24 -62.5v-6h-36v8z" />
    <glyph glyph-name="threequarters" unicode="&#xbe;" horiz-adv-x="734" 
d="M70 679q34 29 89 29t89 -27.5t34 -71.5q0 -32 -20 -53t-52 -27q37 -7 59 -29.5t22 -58.5q0 -49 -36.5 -79t-96.5 -30q-63 0 -98 30t-35 85h36q1 -39 27.5 -60t70.5 -21q41 0 67.5 20.5t26.5 53.5t-27 52.5t-72 19.5h-23v27h23q40 0 65 18.5t25 48.5t-23.5 49t-60.5 19
q-40 0 -64 -20t-24 -54h-37q1 50 35 79zM166 0l444 700h43l-444 -700h-43zM626 364h44v-234h62v-34h-62v-96h-36v96h-192v34zM634 324l-152 -194h152v194z" />
    <glyph glyph-name="questiondown" unicode="&#xbf;" horiz-adv-x="500" 
d="M283.5 640q-10.5 -10 -27.5 -10t-27.5 10t-10.5 27t10.5 27.5t27.5 10.5t27.5 -10.5t10.5 -27.5t-10.5 -27zM432.5 101q-26.5 -50 -75 -78.5t-113.5 -28.5q-60 0 -105.5 22t-70.5 61t-25 87q0 58 24.5 96t67.5 71q6 5 37 27.5t46 47.5t15 54v35h48v-40q0 -36 -14.5 -62
t-32 -41t-60.5 -48q-38 -29 -58 -60t-20 -75q0 -55 41 -91t106 -36q74 0 119 47.5t45 124.5h52q0 -63 -26.5 -113z" />
    <glyph glyph-name="Agrave" unicode="&#xc0;" horiz-adv-x="638" 
d="M17 0l270 700h64l270 -700h-58l-84 214h-322l-84 -214h-56zM173 264h290l-145 377zM189 896h60l90 -132h-42z" />
    <glyph glyph-name="Aacute" unicode="&#xc1;" horiz-adv-x="638" 
d="M17 0l270 700h64l270 -700h-58l-84 214h-322l-84 -214h-56zM173 264h290l-145 377zM300 764l91 132h60l-110 -132h-41z" />
    <glyph glyph-name="Acircumflex" unicode="&#xc2;" horiz-adv-x="638" 
d="M17 0l270 700h64l270 -700h-58l-84 214h-322l-84 -214h-56zM173 264h290l-145 377zM319 862l-102 -99h-50l127 133h50l127 -133h-51z" />
    <glyph glyph-name="Atilde" unicode="&#xc3;" horiz-adv-x="638" 
d="M17 0l270 700h64l270 -700h-58l-84 214h-322l-84 -214h-56zM173 264h290l-145 377zM233.5 836.5q-10.5 -15.5 -10.5 -37.5h-33v8q0 35 19.5 57.5t53.5 22.5q23 0 37 -8.5t29 -23.5q13 -13 22 -19t23 -6q20 0 30 15.5t10 36.5h34v-7q0 -35 -19.5 -57.5t-53.5 -22.5
q-23 0 -36.5 8t-29.5 24q-13 13 -22 19t-23 6q-20 0 -30.5 -15.5z" />
    <glyph glyph-name="Adieresis" unicode="&#xc4;" horiz-adv-x="638" 
d="M17 0l270 700h64l270 -700h-58l-84 214h-322l-84 -214h-56zM173 264h290l-145 377zM210 865q10 10 25 10q16 0 26 -10t10 -25t-10 -25t-26 -10q-15 0 -25 10t-10 25t10 25zM377.5 865q10.5 10 25.5 10t25 -10t10 -25t-10 -25t-25 -10t-25.5 10t-10.5 25t10.5 25z" />
    <glyph glyph-name="Aring" unicode="&#xc5;" horiz-adv-x="638" 
d="M621 0h-58l-84 214h-322l-84 -214h-56l264 685q-32 11 -52.5 39.5t-20.5 63.5q0 45 32.5 77t78.5 32t78.5 -32t32.5 -77q0 -35 -20.5 -63.5t-52.5 -39.5zM264.5 732.5q22.5 -22.5 54.5 -22.5t54.5 22.5t22.5 55.5t-22.5 55.5t-54.5 22.5t-54.5 -22.5t-22.5 -55.5
t22.5 -55.5zM173 264h290l-145 377z" />
    <glyph glyph-name="AE" unicode="&#xc6;" horiz-adv-x="937" 
d="M517 50h390v-50h-444v195h-277l-122 -195h-57l430 700h457v-50h-377v-268h316v-50h-316v-282zM212 243h251v410z" />
    <glyph glyph-name="Ccedilla" unicode="&#xc7;" horiz-adv-x="702" 
d="M518.5 88q59.5 44 81.5 128h54q-23 -101 -91 -159t-172 -63l-10 -43h16q37 0 60 -20t23 -52q0 -36 -23.5 -57.5t-61.5 -21.5h-82v32h74q24 0 38.5 12t14.5 34q0 19 -14.5 31t-36.5 12h-44l18 73q-95 2 -166.5 47t-110.5 125t-39 184t40 185t114 126t171 45q111 0 186 -58
t97 -163h-54q-22 82 -83 126.5t-149 44.5q-80 0 -140 -39t-93 -108.5t-33 -158.5t33 -158.5t93 -108.5t140 -39q90 0 149.5 44z" />
    <glyph glyph-name="Egrave" unicode="&#xc8;" horiz-adv-x="546" 
d="M72 700h431v-50h-377v-268h316v-50h-316v-282h390v-50h-444v700zM146 896h60l90 -132h-42z" />
    <glyph glyph-name="Eacute" unicode="&#xc9;" horiz-adv-x="546" 
d="M72 700h431v-50h-377v-268h316v-50h-316v-282h390v-50h-444v700zM257 764l91 132h60l-110 -132h-41z" />
    <glyph glyph-name="Ecircumflex" unicode="&#xca;" horiz-adv-x="546" 
d="M72 700h431v-50h-377v-268h316v-50h-316v-282h390v-50h-444v700zM276 862l-102 -99h-50l127 133h50l127 -133h-51z" />
    <glyph glyph-name="Edieresis" unicode="&#xcb;" horiz-adv-x="546" 
d="M72 700h431v-50h-377v-268h316v-50h-316v-282h390v-50h-444v700zM167 865q10 10 25 10q16 0 26 -10t10 -25t-10 -25t-26 -10q-15 0 -25 10t-10 25t10 25zM334.5 865q10.5 10 25.5 10t25 -10t10 -25t-10 -25t-25 -10t-25.5 10t-10.5 25t10.5 25z" />
    <glyph glyph-name="Igrave" unicode="&#xcc;" horiz-adv-x="198" 
d="M72 700h54v-700h-54v700zM-31 896h60l90 -132h-42z" />
    <glyph glyph-name="Iacute" unicode="&#xcd;" horiz-adv-x="198" 
d="M72 700h54v-700h-54v700zM80 764l91 132h60l-110 -132h-41z" />
    <glyph glyph-name="Icircumflex" unicode="&#xce;" horiz-adv-x="198" 
d="M72 700h54v-700h-54v700zM99 862l-102 -99h-50l127 133h50l127 -133h-51z" />
    <glyph glyph-name="Idieresis" unicode="&#xcf;" horiz-adv-x="198" 
d="M72 700h54v-700h-54v700zM-10 865q10 10 25 10q16 0 26 -10t10 -25t-10 -25t-26 -10q-15 0 -25 10t-10 25t10 25zM157.5 865q10.5 10 25.5 10t25 -10t10 -25t-10 -25t-25 -10t-25.5 10t-10.5 25t10.5 25z" />
    <glyph glyph-name="Eth" unicode="&#xd0;" horiz-adv-x="674" 
d="M465 657q79 -43 121 -122t42 -185t-42 -185t-121 -122t-189 -43h-188v334h-90v46h90v320h188q110 0 189 -43zM495 130.5q78 80.5 78 219.5q0 140 -77.5 220t-219.5 80h-134v-270h157v-46h-157v-284h134q141 0 219 80.5z" />
    <glyph glyph-name="Ntilde" unicode="&#xd1;" horiz-adv-x="662" 
d="M72 0v700h51l414 -601v601h53v-700h-51l-414 602v-602h-53zM242.5 836.5q-10.5 -15.5 -10.5 -37.5h-33v8q0 35 19.5 57.5t53.5 22.5q23 0 37 -8.5t29 -23.5q13 -13 22 -19t23 -6q20 0 30 15.5t10 36.5h34v-7q0 -35 -19.5 -57.5t-53.5 -22.5q-23 0 -36.5 8t-29.5 24
q-13 13 -22 19t-23 6q-20 0 -30.5 -15.5z" />
    <glyph glyph-name="Ograve" unicode="&#xd2;" horiz-adv-x="749" 
d="M659.5 166.5q-41.5 -81.5 -116 -127t-169.5 -45.5t-169.5 45.5t-116 127t-41.5 183.5t41.5 183.5t116 127t169.5 45.5t169.5 -45.5t116 -127t41.5 -183.5t-41.5 -183.5zM137.5 191.5q34.5 -69.5 96 -108.5t140.5 -39t141 39t96.5 108.5t34.5 158.5t-34.5 158.5
t-96.5 108.5t-141 39t-140.5 -39t-96 -108.5t-34.5 -158.5t34.5 -158.5zM245 896h60l90 -132h-42z" />
    <glyph glyph-name="Oacute" unicode="&#xd3;" horiz-adv-x="749" 
d="M659.5 166.5q-41.5 -81.5 -116 -127t-169.5 -45.5t-169.5 45.5t-116 127t-41.5 183.5t41.5 183.5t116 127t169.5 45.5t169.5 -45.5t116 -127t41.5 -183.5t-41.5 -183.5zM137.5 191.5q34.5 -69.5 96 -108.5t140.5 -39t141 39t96.5 108.5t34.5 158.5t-34.5 158.5
t-96.5 108.5t-141 39t-140.5 -39t-96 -108.5t-34.5 -158.5t34.5 -158.5zM356 764l91 132h60l-110 -132h-41z" />
    <glyph glyph-name="Ocircumflex" unicode="&#xd4;" horiz-adv-x="749" 
d="M659.5 166.5q-41.5 -81.5 -116 -127t-169.5 -45.5t-169.5 45.5t-116 127t-41.5 183.5t41.5 183.5t116 127t169.5 45.5t169.5 -45.5t116 -127t41.5 -183.5t-41.5 -183.5zM137.5 191.5q34.5 -69.5 96 -108.5t140.5 -39t141 39t96.5 108.5t34.5 158.5t-34.5 158.5
t-96.5 108.5t-141 39t-140.5 -39t-96 -108.5t-34.5 -158.5t34.5 -158.5zM375 862l-102 -99h-50l127 133h50l127 -133h-51z" />
    <glyph glyph-name="Otilde" unicode="&#xd5;" horiz-adv-x="749" 
d="M659.5 166.5q-41.5 -81.5 -116 -127t-169.5 -45.5t-169.5 45.5t-116 127t-41.5 183.5t41.5 183.5t116 127t169.5 45.5t169.5 -45.5t116 -127t41.5 -183.5t-41.5 -183.5zM137.5 191.5q34.5 -69.5 96 -108.5t140.5 -39t141 39t96.5 108.5t34.5 158.5t-34.5 158.5
t-96.5 108.5t-141 39t-140.5 -39t-96 -108.5t-34.5 -158.5t34.5 -158.5zM289.5 836.5q-10.5 -15.5 -10.5 -37.5h-33v8q0 35 19.5 57.5t53.5 22.5q23 0 37 -8.5t29 -23.5q13 -13 22 -19t23 -6q20 0 30 15.5t10 36.5h34v-7q0 -35 -19.5 -57.5t-53.5 -22.5q-23 0 -36.5 8
t-29.5 24q-13 13 -22 19t-23 6q-20 0 -30.5 -15.5z" />
    <glyph glyph-name="Odieresis" unicode="&#xd6;" horiz-adv-x="749" 
d="M659.5 166.5q-41.5 -81.5 -116 -127t-169.5 -45.5t-169.5 45.5t-116 127t-41.5 183.5t41.5 183.5t116 127t169.5 45.5t169.5 -45.5t116 -127t41.5 -183.5t-41.5 -183.5zM137.5 191.5q34.5 -69.5 96 -108.5t140.5 -39t141 39t96.5 108.5t34.5 158.5t-34.5 158.5
t-96.5 108.5t-141 39t-140.5 -39t-96 -108.5t-34.5 -158.5t34.5 -158.5zM266 865q10 10 25 10q16 0 26 -10t10 -25t-10 -25t-26 -10q-15 0 -25 10t-10 25t10 25zM433.5 865q10.5 10 25.5 10t25 -10t10 -25t-10 -25t-25 -10t-25.5 10t-10.5 25t10.5 25z" />
    <glyph glyph-name="multiply" unicode="&#xd7;" 
d="M113 469l153 -153l151 153l31 -31l-152 -152l153 -152l-33 -33l-153 152l-151 -151l-31 30l152 152l-153 153z" />
    <glyph glyph-name="Oslash" unicode="&#xd8;" horiz-adv-x="749" 
d="M622 589q38 -46 58.5 -107.5t20.5 -131.5q0 -102 -41.5 -183.5t-116 -127t-169.5 -45.5q-64 0 -120 22t-99 63l-77 -85l-31 30l79 86q-38 47 -58.5 108.5t-20.5 131.5q0 102 41.5 183.5t116 127t169.5 45.5q64 0 120 -22t99 -63l78 85l30 -30zM162 149l397 435
q-74 72 -185 72q-79 0 -140.5 -39.5t-96 -108.5t-34.5 -158q0 -120 59 -201zM587 551l-397 -435q35 -35 82 -53.5t102 -18.5q79 0 141 39t96.5 108.5t34.5 158.5q0 120 -59 201z" />
    <glyph glyph-name="Ugrave" unicode="&#xd9;" horiz-adv-x="650" 
d="M123 700v-414q0 -122 49 -182t152 -60q104 0 153.5 60t49.5 182v414h54v-411q0 -295 -257 -295q-255 0 -255 295v411h54zM195 896h60l90 -132h-42z" />
    <glyph glyph-name="Uacute" unicode="&#xda;" horiz-adv-x="650" 
d="M123 700v-414q0 -122 49 -182t152 -60q104 0 153.5 60t49.5 182v414h54v-411q0 -295 -257 -295q-255 0 -255 295v411h54zM306 764l91 132h60l-110 -132h-41z" />
    <glyph glyph-name="Ucircumflex" unicode="&#xdb;" horiz-adv-x="650" 
d="M123 700v-414q0 -122 49 -182t152 -60q104 0 153.5 60t49.5 182v414h54v-411q0 -295 -257 -295q-255 0 -255 295v411h54zM325 862l-102 -99h-50l127 133h50l127 -133h-51z" />
    <glyph glyph-name="Udieresis" unicode="&#xdc;" horiz-adv-x="650" 
d="M123 700v-414q0 -122 49 -182t152 -60q104 0 153.5 60t49.5 182v414h54v-411q0 -295 -257 -295q-255 0 -255 295v411h54zM216 865q10 10 25 10q16 0 26 -10t10 -25t-10 -25t-26 -10q-15 0 -25 10t-10 25t10 25zM383.5 865q10.5 10 25.5 10t25 -10t10 -25t-10 -25t-25 -10
t-25.5 10t-10.5 25t10.5 25z" />
    <glyph glyph-name="Yacute" unicode="&#xdd;" horiz-adv-x="618" 
d="M14 701h63l232 -384l234 384h61l-268 -443v-258h-54v258zM288 764l91 132h60l-110 -132h-41z" />
    <glyph glyph-name="Thorn" unicode="&#xde;" horiz-adv-x="568" 
d="M126 700v-130h181q114 0 175 -53t61 -154q0 -102 -63 -154t-174 -52h-180v-157h-54v700h54zM126 207h179q88 0 135.5 39t47.5 117q0 79 -46.5 118t-135.5 39h-180v-313z" />
    <glyph glyph-name="germandbls" unicode="&#xdf;" horiz-adv-x="574" 
d="M219 13v46q48 -19 104 -19q71 0 116.5 41.5t45.5 106.5q0 77 -58.5 117t-155.5 40q-6 0 -26 -2v45q89 1 136.5 41.5t47.5 102.5q0 58 -41 93t-108 35q-70 0 -113.5 -44t-43.5 -120v-496h-51v493q0 68 27 116t74.5 72.5t106.5 24.5t104.5 -21.5t71 -60t25.5 -88.5
q-1 -63 -38.5 -106t-98.5 -56q90 -9 141.5 -57t51.5 -130q0 -57 -27 -101t-75 -68t-109 -24q-54 0 -107 19z" />
    <glyph glyph-name="agrave" unicode="&#xe0;" horiz-adv-x="535" 
d="M527 47v-47h-30q-44 0 -64.5 22t-18.5 62v21q-23 -51 -72 -81t-122 -30q-82 0 -131 39t-49 106q0 72 51.5 111.5t148.5 39.5h172v44q0 63 -39.5 98.5t-110.5 35.5q-63 0 -102.5 -28t-49.5 -75h-51q10 69 64 108.5t141 39.5q95 0 147 -47t52 -134v-236q0 -23 12 -36
t33 -13h19zM412 246h-176q-70 0 -107 -27t-37 -77q0 -47 35.5 -75.5t95.5 -28.5q88 0 138.5 46.5t50.5 120.5v41zM132 703h60l90 -132h-42z" />
    <glyph glyph-name="aacute" unicode="&#xe1;" horiz-adv-x="535" 
d="M527 47v-47h-30q-44 0 -64.5 22t-18.5 62v21q-23 -51 -72 -81t-122 -30q-82 0 -131 39t-49 106q0 72 51.5 111.5t148.5 39.5h172v44q0 63 -39.5 98.5t-110.5 35.5q-63 0 -102.5 -28t-49.5 -75h-51q10 69 64 108.5t141 39.5q95 0 147 -47t52 -134v-236q0 -23 12 -36
t33 -13h19zM412 246h-176q-70 0 -107 -27t-37 -77q0 -47 35.5 -75.5t95.5 -28.5q88 0 138.5 46.5t50.5 120.5v41zM243 571l91 132h60l-110 -132h-41z" />
    <glyph glyph-name="acircumflex" unicode="&#xe2;" horiz-adv-x="535" 
d="M527 47v-47h-30q-44 0 -64.5 22t-18.5 62v21q-23 -51 -72 -81t-122 -30q-82 0 -131 39t-49 106q0 72 51.5 111.5t148.5 39.5h172v44q0 63 -39.5 98.5t-110.5 35.5q-63 0 -102.5 -28t-49.5 -75h-51q10 69 64 108.5t141 39.5q95 0 147 -47t52 -134v-236q0 -23 12 -36
t33 -13h19zM412 246h-176q-70 0 -107 -27t-37 -77q0 -47 35.5 -75.5t95.5 -28.5q88 0 138.5 46.5t50.5 120.5v41zM262 669l-102 -99h-50l127 133h50l127 -133h-51z" />
    <glyph glyph-name="atilde" unicode="&#xe3;" horiz-adv-x="535" 
d="M527 47v-47h-30q-44 0 -64.5 22t-18.5 62v21q-23 -51 -72 -81t-122 -30q-82 0 -131 39t-49 106q0 72 51.5 111.5t148.5 39.5h172v44q0 63 -39.5 98.5t-110.5 35.5q-63 0 -102.5 -28t-49.5 -75h-51q10 69 64 108.5t141 39.5q95 0 147 -47t52 -134v-236q0 -23 12 -36
t33 -13h19zM412 246h-176q-70 0 -107 -27t-37 -77q0 -47 35.5 -75.5t95.5 -28.5q88 0 138.5 46.5t50.5 120.5v41zM176.5 643.5q-10.5 -15.5 -10.5 -37.5h-33v8q0 35 19.5 57.5t53.5 22.5q23 0 37 -8.5t29 -23.5q13 -13 22 -19t23 -6q20 0 30 15.5t10 36.5h34v-7
q0 -35 -19.5 -57.5t-53.5 -22.5q-23 0 -36.5 8t-29.5 24q-13 13 -22 19t-23 6q-20 0 -30.5 -15.5z" />
    <glyph glyph-name="adieresis" unicode="&#xe4;" horiz-adv-x="535" 
d="M527 47v-47h-30q-44 0 -64.5 22t-18.5 62v21q-23 -51 -72 -81t-122 -30q-82 0 -131 39t-49 106q0 72 51.5 111.5t148.5 39.5h172v44q0 63 -39.5 98.5t-110.5 35.5q-63 0 -102.5 -28t-49.5 -75h-51q10 69 64 108.5t141 39.5q95 0 147 -47t52 -134v-236q0 -23 12 -36
t33 -13h19zM412 246h-176q-70 0 -107 -27t-37 -77q0 -47 35.5 -75.5t95.5 -28.5q88 0 138.5 46.5t50.5 120.5v41zM153 672q10 10 25 10q16 0 26 -10t10 -25t-10 -25t-26 -10q-15 0 -25 10t-10 25t10 25zM320.5 672q10.5 10 25.5 10t25 -10t10 -25t-10 -25t-25 -10t-25.5 10
t-10.5 25t10.5 25z" />
    <glyph glyph-name="aring" unicode="&#xe5;" horiz-adv-x="535" 
d="M527 47v-47h-30q-44 0 -64.5 22t-18.5 62v21q-23 -51 -72 -81t-122 -30q-82 0 -131 39t-49 106q0 72 51.5 111.5t148.5 39.5h172v44q0 63 -39.5 98.5t-110.5 35.5q-63 0 -102.5 -28t-49.5 -75h-51q10 69 64 108.5t141 39.5q95 0 147 -47t52 -134v-236q0 -23 12 -36
t33 -13h19zM412 246h-176q-70 0 -107 -27t-37 -77q0 -47 35.5 -75.5t95.5 -28.5q88 0 138.5 46.5t50.5 120.5v41zM183.5 744q32.5 32 78.5 32t78.5 -32t32.5 -77t-32.5 -77t-78.5 -32t-78.5 32t-32.5 77t32.5 77zM316.5 722.5q-22.5 22.5 -54.5 22.5t-54.5 -22.5
t-22.5 -55.5t22.5 -55.5t54.5 -22.5t54.5 22.5t22.5 55.5t-22.5 55.5z" />
    <glyph glyph-name="ae" unicode="&#xe6;" horiz-adv-x="916" 
d="M459 252v-11q0 -59 24 -104.5t66 -71t96 -25.5q62 0 107.5 34.5t60.5 93.5h52q-17 -78 -76 -126t-141 -48q-72 0 -127 36t-83 100q-23 -61 -80 -98.5t-133 -37.5q-85 0 -135 39t-50 108q0 71 51.5 111t148.5 40h172v42q0 63 -39.5 98.5t-110.5 35.5q-63 0 -102.5 -28
t-49.5 -75h-51q10 69 64 108.5t141 39.5q73 0 120 -29t64 -85q29 54 78.5 84t112.5 30q67 0 119 -28.5t82.5 -82.5t32.5 -129q0 -14 -1 -21h-413zM555 446.5q-39 -21.5 -64 -61.5t-29 -91h358q-6 82 -55 128t-125 46q-46 0 -85 -21.5zM412 248h-177q-69 0 -106 -27t-37 -77
q0 -49 35.5 -77.5t98.5 -28.5q54 0 96.5 21.5t66 59.5t23.5 86v43z" />
    <glyph glyph-name="ccedilla" unicode="&#xe7;" horiz-adv-x="541" 
d="M390 73.5q44 33.5 57 90.5h51q-14 -76 -67.5 -120.5t-133.5 -49.5l-10 -43h16q37 0 60 -20t23 -52q0 -36 -23.5 -57.5t-61.5 -21.5h-82v32h74q24 0 38.5 12t14.5 34q0 19 -14.5 31t-36.5 12h-44l18 73q-67 3 -118 37t-79.5 92t-28.5 132q0 76 30.5 134.5t85.5 91
t126 32.5q85 0 142 -45.5t71 -123.5h-51q-13 57 -57 90.5t-107 33.5q-55 0 -97.5 -27t-66.5 -75.5t-24 -110.5t24 -111t66.5 -76.5t97.5 -27.5q63 0 107 33.5z" />
    <glyph glyph-name="egrave" unicode="&#xe8;" horiz-adv-x="554" 
d="M72.5 389q29.5 59 83 91.5t121.5 32.5q67 0 119 -28.5t82.5 -82.5t32.5 -128q0 -14 -1 -21h-413q-1 -4 -1 -12q1 -59 25 -104.5t66 -71t95 -25.5q62 0 108 34.5t61 93.5h52q-18 -78 -76.5 -126t-140.5 -48q-71 0 -126.5 33t-86 92t-30.5 135t29.5 135zM458 296
q-7 82 -55.5 127t-124.5 45q-46 0 -85 -21.5t-64 -60.5t-29 -90h358zM145 703h60l90 -132h-42z" />
    <glyph glyph-name="eacute" unicode="&#xe9;" horiz-adv-x="554" 
d="M72.5 389q29.5 59 83 91.5t121.5 32.5q67 0 119 -28.5t82.5 -82.5t32.5 -128q0 -14 -1 -21h-413q-1 -4 -1 -12q1 -59 25 -104.5t66 -71t95 -25.5q62 0 108 34.5t61 93.5h52q-18 -78 -76.5 -126t-140.5 -48q-71 0 -126.5 33t-86 92t-30.5 135t29.5 135zM458 296
q-7 82 -55.5 127t-124.5 45q-46 0 -85 -21.5t-64 -60.5t-29 -90h358zM256 571l91 132h60l-110 -132h-41z" />
    <glyph glyph-name="ecircumflex" unicode="&#xea;" horiz-adv-x="554" 
d="M72.5 389q29.5 59 83 91.5t121.5 32.5q67 0 119 -28.5t82.5 -82.5t32.5 -128q0 -14 -1 -21h-413q-1 -4 -1 -12q1 -59 25 -104.5t66 -71t95 -25.5q62 0 108 34.5t61 93.5h52q-18 -78 -76.5 -126t-140.5 -48q-71 0 -126.5 33t-86 92t-30.5 135t29.5 135zM458 296
q-7 82 -55.5 127t-124.5 45q-46 0 -85 -21.5t-64 -60.5t-29 -90h358zM275 669l-102 -99h-50l127 133h50l127 -133h-51z" />
    <glyph glyph-name="edieresis" unicode="&#xeb;" horiz-adv-x="554" 
d="M72.5 389q29.5 59 83 91.5t121.5 32.5q67 0 119 -28.5t82.5 -82.5t32.5 -128q0 -14 -1 -21h-413q-1 -4 -1 -12q1 -59 25 -104.5t66 -71t95 -25.5q62 0 108 34.5t61 93.5h52q-18 -78 -76.5 -126t-140.5 -48q-71 0 -126.5 33t-86 92t-30.5 135t29.5 135zM458 296
q-7 82 -55.5 127t-124.5 45q-46 0 -85 -21.5t-64 -60.5t-29 -90h358zM166 672q10 10 25 10q16 0 26 -10t10 -25t-10 -25t-26 -10q-15 0 -25 10t-10 25t10 25zM333.5 672q10.5 10 25.5 10t25 -10t10 -25t-10 -25t-25 -10t-25.5 10t-10.5 25t10.5 25z" />
    <glyph glyph-name="igrave" unicode="&#xec;" horiz-adv-x="171" 
d="M60 507h51v-507h-51v507zM-44 703h60l90 -132h-42z" />
    <glyph glyph-name="iacute" unicode="&#xed;" horiz-adv-x="171" 
d="M60 507h51v-507h-51v507zM67 571l91 132h60l-110 -132h-41z" />
    <glyph glyph-name="icircumflex" unicode="&#xee;" horiz-adv-x="171" 
d="M60 507h51v-507h-51v507zM86 669l-102 -99h-50l127 133h50l127 -133h-51z" />
    <glyph glyph-name="idieresis" unicode="&#xef;" horiz-adv-x="171" 
d="M60 507h51v-507h-51v507zM-23 672q10 10 25 10q16 0 26 -10t10 -25t-10 -25t-26 -10q-15 0 -25 10t-10 25t10 25zM144.5 672q10.5 10 25.5 10t25 -10t10 -25t-10 -25t-25 -10t-25.5 10t-10.5 25t10.5 25z" />
    <glyph glyph-name="eth" unicode="&#xf0;" horiz-adv-x="582" 
d="M482 444.5q46 -89.5 47 -188.5q-1 -77 -30 -136t-84 -92.5t-130 -33.5q-71 0 -126 30t-85.5 84t-30.5 122q0 70 32 123.5t86 82.5t120 29q59 0 104.5 -24t75.5 -67q-38 113 -143 205l-122 -78l-20 35l109 70q-49 39 -106 69l30 31q62 -31 117 -74l119 77l20 -36l-107 -68
q78 -71 124 -160.5zM424.5 95.5q52.5 56.5 52.5 148.5q-1 56 -27.5 96.5t-70 61.5t-94.5 21q-55 0 -98.5 -25t-67.5 -69t-24 -99q0 -56 24 -99.5t67.5 -67.5t98.5 -24q87 0 139.5 56.5z" />
    <glyph glyph-name="ntilde" unicode="&#xf1;" horiz-adv-x="547" 
d="M439.5 456q54.5 -57 54.5 -172v-284h-51v282q0 89 -41.5 136.5t-115.5 47.5q-81 0 -128 -58.5t-47 -157.5v-250h-51v507h44l8 -108q23 52 69 83t113 31q91 0 145.5 -57zM204.5 643.5q-10.5 -15.5 -10.5 -37.5h-33v8q0 35 19.5 57.5t53.5 22.5q23 0 37 -8.5t29 -23.5
q13 -13 22 -19t23 -6q20 0 30 15.5t10 36.5h34v-7q0 -35 -19.5 -57.5t-53.5 -22.5q-23 0 -36.5 8t-29.5 24q-13 13 -22 19t-23 6q-20 0 -30.5 -15.5z" />
    <glyph glyph-name="ograve" unicode="&#xf2;" horiz-adv-x="573" 
d="M160 27q-55 33 -86 92t-31 135t31 134.5t86 91.5t126 33t126.5 -33t86.5 -91.5t31 -134.5t-31 -135t-86.5 -92t-126.5 -33t-126 33zM386 67q44 27 68 76t24 111t-24 110.5t-68 76t-100 27.5t-99.5 -27.5t-67.5 -76t-24 -110.5t24 -111t67.5 -76t99.5 -27t100 27zM156 703
h60l90 -132h-42z" />
    <glyph glyph-name="oacute" unicode="&#xf3;" horiz-adv-x="573" 
d="M160 27q-55 33 -86 92t-31 135t31 134.5t86 91.5t126 33t126.5 -33t86.5 -91.5t31 -134.5t-31 -135t-86.5 -92t-126.5 -33t-126 33zM386 67q44 27 68 76t24 111t-24 110.5t-68 76t-100 27.5t-99.5 -27.5t-67.5 -76t-24 -110.5t24 -111t67.5 -76t99.5 -27t100 27zM267 571
l91 132h60l-110 -132h-41z" />
    <glyph glyph-name="ocircumflex" unicode="&#xf4;" horiz-adv-x="573" 
d="M160 27q-55 33 -86 92t-31 135t31 134.5t86 91.5t126 33t126.5 -33t86.5 -91.5t31 -134.5t-31 -135t-86.5 -92t-126.5 -33t-126 33zM386 67q44 27 68 76t24 111t-24 110.5t-68 76t-100 27.5t-99.5 -27.5t-67.5 -76t-24 -110.5t24 -111t67.5 -76t99.5 -27t100 27zM286 669
l-102 -99h-50l127 133h50l127 -133h-51z" />
    <glyph glyph-name="otilde" unicode="&#xf5;" horiz-adv-x="573" 
d="M160 27q-55 33 -86 92t-31 135t31 134.5t86 91.5t126 33t126.5 -33t86.5 -91.5t31 -134.5t-31 -135t-86.5 -92t-126.5 -33t-126 33zM386 67q44 27 68 76t24 111t-24 110.5t-68 76t-100 27.5t-99.5 -27.5t-67.5 -76t-24 -110.5t24 -111t67.5 -76t99.5 -27t100 27z
M200.5 643.5q-10.5 -15.5 -10.5 -37.5h-33v8q0 35 19.5 57.5t53.5 22.5q23 0 37 -8.5t29 -23.5q13 -13 22 -19t23 -6q20 0 30 15.5t10 36.5h34v-7q0 -35 -19.5 -57.5t-53.5 -22.5q-23 0 -36.5 8t-29.5 24q-13 13 -22 19t-23 6q-20 0 -30.5 -15.5z" />
    <glyph glyph-name="odieresis" unicode="&#xf6;" horiz-adv-x="573" 
d="M160 27q-55 33 -86 92t-31 135t31 134.5t86 91.5t126 33t126.5 -33t86.5 -91.5t31 -134.5t-31 -135t-86.5 -92t-126.5 -33t-126 33zM386 67q44 27 68 76t24 111t-24 110.5t-68 76t-100 27.5t-99.5 -27.5t-67.5 -76t-24 -110.5t24 -111t67.5 -76t99.5 -27t100 27zM177 672
q10 10 25 10q16 0 26 -10t10 -25t-10 -25t-26 -10q-15 0 -25 10t-10 25t10 25zM344.5 672q10.5 10 25.5 10t25 -10t10 -25t-10 -25t-25 -10t-25.5 10t-10.5 25t10.5 25z" />
    <glyph glyph-name="divide" unicode="&#xf7;" 
d="M237.5 495q10.5 10 27.5 10t27 -10t10 -26q0 -17 -10 -27.5t-27 -10.5t-27.5 10.5t-10.5 27.5q0 16 10.5 26zM66 266v43h396v-43h-396zM237.5 141q10.5 10 27.5 10t27 -10t10 -26q0 -17 -10 -27.5t-27 -10.5t-27.5 10.5t-10.5 27.5q0 16 10.5 26z" />
    <glyph glyph-name="oslash" unicode="&#xf8;" horiz-adv-x="575" 
d="M475 426q27 -33 41 -77t14 -95q0 -76 -31 -135t-86.5 -92t-126.5 -33q-95 0 -161 58l-54 -58l-28 27l56 59q-56 70 -56 174q0 76 31 134.5t86 91.5t126 33q98 0 163 -59l55 59l28 -26zM133 118l282 300q-52 50 -129 50q-56 0 -99.5 -27.5t-67.5 -76t-24 -110.5
q0 -81 38 -136zM440 389l-281 -301q50 -48 127 -48q56 0 100 27t68 76t24 111q0 78 -38 135z" />
    <glyph glyph-name="ugrave" unicode="&#xf9;" horiz-adv-x="539" 
d="M479 507v-507h-45l-7 107q-23 -52 -68 -82.5t-110 -30.5q-88 0 -141.5 57.5t-53.5 171.5v284h51v-281q0 -90 40 -137.5t112 -47.5q79 0 125 58.5t46 158.5v249h51zM137 703h60l90 -132h-42z" />
    <glyph glyph-name="uacute" unicode="&#xfa;" horiz-adv-x="539" 
d="M479 507v-507h-45l-7 107q-23 -52 -68 -82.5t-110 -30.5q-88 0 -141.5 57.5t-53.5 171.5v284h51v-281q0 -90 40 -137.5t112 -47.5q79 0 125 58.5t46 158.5v249h51zM248 571l91 132h60l-110 -132h-41z" />
    <glyph glyph-name="ucircumflex" unicode="&#xfb;" horiz-adv-x="539" 
d="M479 507v-507h-45l-7 107q-23 -52 -68 -82.5t-110 -30.5q-88 0 -141.5 57.5t-53.5 171.5v284h51v-281q0 -90 40 -137.5t112 -47.5q79 0 125 58.5t46 158.5v249h51zM267 669l-102 -99h-50l127 133h50l127 -133h-51z" />
    <glyph glyph-name="udieresis" unicode="&#xfc;" horiz-adv-x="539" 
d="M479 507v-507h-45l-7 107q-23 -52 -68 -82.5t-110 -30.5q-88 0 -141.5 57.5t-53.5 171.5v284h51v-281q0 -90 40 -137.5t112 -47.5q79 0 125 58.5t46 158.5v249h51zM158 672q10 10 25 10q16 0 26 -10t10 -25t-10 -25t-26 -10q-15 0 -25 10t-10 25t10 25zM325.5 672
q10.5 10 25.5 10t25 -10t10 -25t-10 -25t-25 -10t-25.5 10t-10.5 25t10.5 25z" />
    <glyph glyph-name="yacute" unicode="&#xfd;" horiz-adv-x="477" 
d="M64 507l176 -447l173 447h55l-243 -601q-18 -45 -31 -66t-32 -30.5t-53 -9.5h-78v47h64q26 0 39.5 6t22 20t22.5 46l33 79l-203 509h55zM218 571l91 132h60l-110 -132h-41z" />
    <glyph glyph-name="thorn" unicode="&#xfe;" horiz-adv-x="587" 
d="M111 700v-317q24 59 74 94.5t120 35.5q69 0 123.5 -31.5t85 -90.5t30.5 -137q0 -76 -30.5 -135t-85 -92t-123.5 -33q-71 0 -121.5 34.5t-72.5 93.5v-322h-51v900h51zM468 364.5q-24 48.5 -67.5 76t-99.5 27.5t-99.5 -27.5t-67.5 -76t-24 -109.5q0 -63 24 -112t67.5 -76
t99.5 -27t99.5 27t67.5 76t24 111t-24 110.5z" />
    <glyph glyph-name="ydieresis" unicode="&#xff;" horiz-adv-x="477" 
d="M64 507l176 -447l173 447h55l-243 -601q-18 -45 -31 -66t-32 -30.5t-53 -9.5h-78v47h64q26 0 39.5 6t22 20t22.5 46l33 79l-203 509h55zM128 672q10 10 25 10q16 0 26 -10t10 -25t-10 -25t-26 -10q-15 0 -25 10t-10 25t10 25zM295.5 672q10.5 10 25.5 10t25 -10t10 -25
t-10 -25t-25 -10t-25.5 10t-10.5 25t10.5 25z" />
    <glyph glyph-name="Amacron" unicode="&#x100;" horiz-adv-x="638" 
d="M17 0l270 700h64l270 -700h-58l-84 214h-322l-84 -214h-56zM173 264h290l-145 377zM191 822v39h256v-39h-256z" />
    <glyph glyph-name="amacron" unicode="&#x101;" horiz-adv-x="535" 
d="M527 47v-47h-30q-44 0 -64.5 22t-18.5 62v21q-23 -51 -72 -81t-122 -30q-82 0 -131 39t-49 106q0 72 51.5 111.5t148.5 39.5h172v44q0 63 -39.5 98.5t-110.5 35.5q-63 0 -102.5 -28t-49.5 -75h-51q10 69 64 108.5t141 39.5q95 0 147 -47t52 -134v-236q0 -23 12 -36
t33 -13h19zM412 246h-176q-70 0 -107 -27t-37 -77q0 -47 35.5 -75.5t95.5 -28.5q88 0 138.5 46.5t50.5 120.5v41zM134 629v39h256v-39h-256z" />
    <glyph glyph-name="Abreve" unicode="&#x102;" horiz-adv-x="638" 
d="M17 0l270 700h64l270 -700h-58l-84 214h-322l-84 -214h-56zM173 264h290l-145 377zM234 896q0 -38 23.5 -62.5t60.5 -24.5q38 0 62 24.5t24 62.5h41q-1 -57 -36.5 -92t-91.5 -35q-55 0 -89 34.5t-35 92.5h41z" />
    <glyph glyph-name="abreve" unicode="&#x103;" horiz-adv-x="535" 
d="M527 47v-47h-30q-44 0 -64.5 22t-18.5 62v21q-23 -51 -72 -81t-122 -30q-82 0 -131 39t-49 106q0 72 51.5 111.5t148.5 39.5h172v44q0 63 -39.5 98.5t-110.5 35.5q-63 0 -102.5 -28t-49.5 -75h-51q10 69 64 108.5t141 39.5q95 0 147 -47t52 -134v-236q0 -23 12 -36
t33 -13h19zM412 246h-176q-70 0 -107 -27t-37 -77q0 -47 35.5 -75.5t95.5 -28.5q88 0 138.5 46.5t50.5 120.5v41zM177 703q0 -38 23.5 -62.5t60.5 -24.5q38 0 62 24.5t24 62.5h41q-1 -57 -36.5 -92t-91.5 -35q-55 0 -89 34.5t-35 92.5h41z" />
    <glyph glyph-name="Aogonek" unicode="&#x104;" horiz-adv-x="638" 
d="M629 -162v-38h-69q-42 0 -66.5 21t-24.5 57q0 34 24 63.5t69 60.5l-83 212h-322l-84 -214h-56l270 700h64l270 -700q-54 -34 -81.5 -59.5t-27.5 -55.5q0 -22 15 -34.5t41 -12.5h61zM173 264h290l-145 377z" />
    <glyph glyph-name="aogonek" unicode="&#x105;" horiz-adv-x="535" 
d="M535 -162v-38h-69q-42 0 -66.5 21t-24.5 57q0 34 24.5 63t69.5 62q-58 13 -55 81v21q-23 -51 -72 -81t-122 -30q-82 0 -131 39t-49 106q0 72 51.5 111.5t148.5 39.5h172v44q0 63 -39.5 98.5t-110.5 35.5q-63 0 -102.5 -28t-49.5 -75h-51q10 69 64 108.5t141 39.5
q95 0 147 -47t52 -134v-236q0 -23 12 -36t33 -13h19v-47q-54 -34 -81.5 -59.5t-27.5 -55.5q0 -22 15 -34.5t41 -12.5h61zM412 246h-176q-70 0 -107 -27t-37 -77q0 -47 35.5 -75.5t95.5 -28.5q88 0 138.5 46.5t50.5 120.5v41z" />
    <glyph glyph-name="Cacute" unicode="&#x106;" horiz-adv-x="702" 
d="M87 535q40 81 114 126t171 45q111 0 186 -58t97 -163h-54q-22 82 -83 126.5t-149 44.5q-80 0 -140 -39t-93 -108.5t-33 -158.5t33 -158.5t93 -108.5t140 -39q90 0 149.5 44t81.5 128h54q-23 -106 -96.5 -164t-185.5 -58q-97 0 -171 44.5t-114 125.5t-40 186q0 104 40 185
zM353 764l91 132h60l-110 -132h-41z" />
    <glyph glyph-name="cacute" unicode="&#x107;" horiz-adv-x="541" 
d="M425.5 39.5q-57.5 -45.5 -142.5 -45.5q-71 0 -125.5 33t-84.5 92t-30 136q0 76 30.5 134.5t85.5 91t126 32.5q85 0 142 -45.5t71 -123.5h-51q-13 57 -57 90.5t-107 33.5q-55 0 -97.5 -27t-66.5 -75.5t-24 -110.5t24 -111t66.5 -76.5t97.5 -27.5q63 0 107 33.5t57 90.5h51
q-15 -79 -72.5 -124.5zM266 571l91 132h60l-110 -132h-41z" />
    <glyph glyph-name="Ccircumflex" unicode="&#x108;" horiz-adv-x="702" 
d="M87 535q40 81 114 126t171 45q111 0 186 -58t97 -163h-54q-22 82 -83 126.5t-149 44.5q-80 0 -140 -39t-93 -108.5t-33 -158.5t33 -158.5t93 -108.5t140 -39q90 0 149.5 44t81.5 128h54q-23 -106 -96.5 -164t-185.5 -58q-97 0 -171 44.5t-114 125.5t-40 186q0 104 40 185
zM372 862l-102 -99h-50l127 133h50l127 -133h-51z" />
    <glyph glyph-name="ccircumflex" unicode="&#x109;" horiz-adv-x="541" 
d="M425.5 39.5q-57.5 -45.5 -142.5 -45.5q-71 0 -125.5 33t-84.5 92t-30 136q0 76 30.5 134.5t85.5 91t126 32.5q85 0 142 -45.5t71 -123.5h-51q-13 57 -57 90.5t-107 33.5q-55 0 -97.5 -27t-66.5 -75.5t-24 -110.5t24 -111t66.5 -76.5t97.5 -27.5q63 0 107 33.5t57 90.5h51
q-15 -79 -72.5 -124.5zM285 669l-102 -99h-50l127 133h50l127 -133h-51z" />
    <glyph glyph-name="Cdotaccent" unicode="&#x10a;" horiz-adv-x="702" 
d="M87 535q40 81 114 126t171 45q111 0 186 -58t97 -163h-54q-22 82 -83 126.5t-149 44.5q-80 0 -140 -39t-93 -108.5t-33 -158.5t33 -158.5t93 -108.5t140 -39q90 0 149.5 44t81.5 128h54q-23 -106 -96.5 -164t-185.5 -58q-97 0 -171 44.5t-114 125.5t-40 186q0 104 40 185
zM347 876.5q10 9.5 25 9.5t25 -9.5t10 -24.5t-10 -25t-25 -10t-25 10t-10 25t10 24.5z" />
    <glyph glyph-name="cdotaccent" unicode="&#x10b;" horiz-adv-x="541" 
d="M425.5 39.5q-57.5 -45.5 -142.5 -45.5q-71 0 -125.5 33t-84.5 92t-30 136q0 76 30.5 134.5t85.5 91t126 32.5q85 0 142 -45.5t71 -123.5h-51q-13 57 -57 90.5t-107 33.5q-55 0 -97.5 -27t-66.5 -75.5t-24 -110.5t24 -111t66.5 -76.5t97.5 -27.5q63 0 107 33.5t57 90.5h51
q-15 -79 -72.5 -124.5zM260 683.5q10 9.5 25 9.5t25 -9.5t10 -24.5t-10 -25t-25 -10t-25 10t-10 25t10 24.5z" />
    <glyph glyph-name="Ccaron" unicode="&#x10c;" horiz-adv-x="702" 
d="M87 535q40 81 114 126t171 45q111 0 186 -58t97 -163h-54q-22 82 -83 126.5t-149 44.5q-80 0 -140 -39t-93 -108.5t-33 -158.5t33 -158.5t93 -108.5t140 -39q90 0 149.5 44t81.5 128h54q-23 -106 -96.5 -164t-185.5 -58q-97 0 -171 44.5t-114 125.5t-40 186q0 104 40 185
zM372 798l102 98h50l-127 -133h-50l-127 133h51z" />
    <glyph glyph-name="ccaron" unicode="&#x10d;" horiz-adv-x="541" 
d="M425.5 39.5q-57.5 -45.5 -142.5 -45.5q-71 0 -125.5 33t-84.5 92t-30 136q0 76 30.5 134.5t85.5 91t126 32.5q85 0 142 -45.5t71 -123.5h-51q-13 57 -57 90.5t-107 33.5q-55 0 -97.5 -27t-66.5 -75.5t-24 -110.5t24 -111t66.5 -76.5t97.5 -27.5q63 0 107 33.5t57 90.5h51
q-15 -79 -72.5 -124.5zM285 605l102 98h50l-127 -133h-50l-127 133h51z" />
    <glyph glyph-name="Dcaron" unicode="&#x10e;" horiz-adv-x="659" 
d="M72 700h188q110 0 189 -43t121 -122t42 -185t-42 -185t-121 -122t-189 -43h-188v700zM260 50q141 0 219 80.5t78 219.5q0 140 -77.5 220t-219.5 80h-134v-600h134zM295 798l102 98h50l-127 -133h-50l-127 133h51z" />
    <glyph glyph-name="dcaron" unicode="&#x10f;" horiz-adv-x="636" 
d="M527 700v-700h-44l-8 115q-25 -55 -75 -88t-118 -33q-69 0 -123.5 32t-85 90.5t-30.5 137.5q0 75 30.5 134t85 92t123.5 33q70 0 120 -32t74 -88v307h51zM385.5 67q43.5 27 67.5 75.5t24 110.5t-24 111t-67.5 76.5t-99.5 27.5t-99.5 -27.5t-67.5 -76t-24 -110.5t24 -111
t67.5 -76t99.5 -27t99.5 27zM616 700h49l-53 -145h-38z" />
    <glyph glyph-name="Dcroat" unicode="&#x110;" horiz-adv-x="675" 
d="M465 657q79 -43 121 -122t42 -185t-42 -185t-121 -122t-189 -43h-188v334h-90v46h90v320h188q110 0 189 -43zM495 130.5q78 80.5 78 219.5q0 140 -77.5 220t-219.5 80h-134v-270h157v-46h-157v-284h134q141 0 219 80.5z" />
    <glyph glyph-name="dcroat" unicode="&#x111;" horiz-adv-x="597" 
d="M616 582h-89v-582h-44l-8 115q-25 -55 -75 -88t-118 -33q-69 0 -123.5 32t-85 90.5t-30.5 137.5q0 75 30.5 134t85 92t123.5 33q70 0 120 -32t74 -88v189h-147v44h147v74h51v-74h89v-44zM385.5 67q43.5 27 67.5 75.5t24 110.5t-24 111t-67.5 76.5t-99.5 27.5t-99.5 -27.5
t-67.5 -76t-24 -110.5t24 -111t67.5 -76t99.5 -27t99.5 27z" />
    <glyph glyph-name="Emacron" unicode="&#x112;" horiz-adv-x="546" 
d="M72 700h431v-50h-377v-268h316v-50h-316v-282h390v-50h-444v700zM148 822v39h256v-39h-256z" />
    <glyph glyph-name="emacron" unicode="&#x113;" horiz-adv-x="554" 
d="M72.5 389q29.5 59 83 91.5t121.5 32.5q67 0 119 -28.5t82.5 -82.5t32.5 -128q0 -14 -1 -21h-413q-1 -4 -1 -12q1 -59 25 -104.5t66 -71t95 -25.5q62 0 108 34.5t61 93.5h52q-18 -78 -76.5 -126t-140.5 -48q-71 0 -126.5 33t-86 92t-30.5 135t29.5 135zM458 296
q-7 82 -55.5 127t-124.5 45q-46 0 -85 -21.5t-64 -60.5t-29 -90h358zM147 629v39h256v-39h-256z" />
    <glyph glyph-name="Ebreve" unicode="&#x114;" horiz-adv-x="546" 
d="M72 700h431v-50h-377v-268h316v-50h-316v-282h390v-50h-444v700zM191 896q0 -38 23.5 -62.5t60.5 -24.5q38 0 62 24.5t24 62.5h41q-1 -57 -36.5 -92t-91.5 -35q-55 0 -89 34.5t-35 92.5h41z" />
    <glyph glyph-name="ebreve" unicode="&#x115;" horiz-adv-x="554" 
d="M72.5 389q29.5 59 83 91.5t121.5 32.5q67 0 119 -28.5t82.5 -82.5t32.5 -128q0 -14 -1 -21h-413q-1 -4 -1 -12q1 -59 25 -104.5t66 -71t95 -25.5q62 0 108 34.5t61 93.5h52q-18 -78 -76.5 -126t-140.5 -48q-71 0 -126.5 33t-86 92t-30.5 135t29.5 135zM458 296
q-7 82 -55.5 127t-124.5 45q-46 0 -85 -21.5t-64 -60.5t-29 -90h358zM190 703q0 -38 23.5 -62.5t60.5 -24.5q38 0 62 24.5t24 62.5h41q-1 -57 -36.5 -92t-91.5 -35q-55 0 -89 34.5t-35 92.5h41z" />
    <glyph glyph-name="Edotaccent" unicode="&#x116;" horiz-adv-x="546" 
d="M72 700h431v-50h-377v-268h316v-50h-316v-282h390v-50h-444v700zM251 876.5q10 9.5 25 9.5t25 -9.5t10 -24.5t-10 -25t-25 -10t-25 10t-10 25t10 24.5z" />
    <glyph glyph-name="edotaccent" unicode="&#x117;" horiz-adv-x="554" 
d="M72.5 389q29.5 59 83 91.5t121.5 32.5q67 0 119 -28.5t82.5 -82.5t32.5 -128q0 -14 -1 -21h-413q-1 -4 -1 -12q1 -59 25 -104.5t66 -71t95 -25.5q62 0 108 34.5t61 93.5h52q-18 -78 -76.5 -126t-140.5 -48q-71 0 -126.5 33t-86 92t-30.5 135t29.5 135zM458 296
q-7 82 -55.5 127t-124.5 45q-46 0 -85 -21.5t-64 -60.5t-29 -90h358zM250 683.5q10 9.5 25 9.5t25 -9.5t10 -24.5t-10 -25t-25 -10t-25 10t-10 25t10 24.5z" />
    <glyph glyph-name="Eogonek" unicode="&#x118;" horiz-adv-x="546" 
d="M524 -162v-38h-69q-42 0 -66.5 21t-24.5 57q0 34 23.5 62t66.5 60h-382v700h431v-50h-377v-268h316v-50h-316v-282h390v-50q-54 -34 -81.5 -59.5t-27.5 -55.5q0 -22 15 -34.5t41 -12.5h61z" />
    <glyph glyph-name="eogonek" unicode="&#x119;" horiz-adv-x="554" 
d="M97 253q-1 -4 -1 -12q1 -59 25 -104.5t66 -71t95 -25.5q62 0 108 34.5t61 93.5h52q-14 -64 -58 -109t-107 -59q-54 -34 -81 -59.5t-27 -55.5q0 -22 15 -34.5t41 -12.5h61v-38h-69q-42 0 -66.5 21t-24.5 57q0 33 21.5 60t61.5 56q-67 4 -118.5 38t-80 91.5t-28.5 130.5
q0 76 29.5 135t83 91.5t121.5 32.5q67 0 119 -28.5t82.5 -82.5t32.5 -128q0 -14 -1 -21h-413zM193 446.5q-39 -21.5 -64 -60.5t-29 -90h358q-7 82 -55.5 127t-124.5 45q-46 0 -85 -21.5z" />
    <glyph glyph-name="Ecaron" unicode="&#x11a;" horiz-adv-x="546" 
d="M72 700h431v-50h-377v-268h316v-50h-316v-282h390v-50h-444v700zM276 798l102 98h50l-127 -133h-50l-127 133h51z" />
    <glyph glyph-name="ecaron" unicode="&#x11b;" horiz-adv-x="554" 
d="M72.5 389q29.5 59 83 91.5t121.5 32.5q67 0 119 -28.5t82.5 -82.5t32.5 -128q0 -14 -1 -21h-413q-1 -4 -1 -12q1 -59 25 -104.5t66 -71t95 -25.5q62 0 108 34.5t61 93.5h52q-18 -78 -76.5 -126t-140.5 -48q-71 0 -126.5 33t-86 92t-30.5 135t29.5 135zM458 296
q-7 82 -55.5 127t-124.5 45q-46 0 -85 -21.5t-64 -60.5t-29 -90h358zM275 605l102 98h50l-127 -133h-50l-127 133h51z" />
    <glyph glyph-name="Gcircumflex" unicode="&#x11c;" horiz-adv-x="739" 
d="M87 535q40 81 113 126t171 45q110 0 185 -58t98 -163h-53q-24 82 -84 126.5t-148 44.5q-80 0 -140 -39t-93 -108.5t-33 -158.5t32.5 -158.5t92 -108.5t136.5 -39q76 0 132.5 31.5t87 86t30.5 123.5v30h-230v50h282v-365h-45l-5 160q-25 -70 -90 -118t-163 -48
q-92 0 -164 45t-112 126t-40 185t40 185zM370 862l-102 -99h-50l127 133h50l127 -133h-51z" />
    <glyph glyph-name="gcircumflex" unicode="&#x11d;" horiz-adv-x="587" 
d="M527 507v-476q0 -120 -59 -178.5t-182 -58.5q-94 0 -154 43t-72 123h53q12 -57 58.5 -88.5t118.5 -31.5q94 0 140 46.5t46 146.5v89q-25 -60 -74.5 -94t-119.5 -34q-69 0 -123.5 32t-85 90.5t-30.5 137.5q0 76 30.5 135t85 91.5t123.5 32.5t119 -33t74 -91l8 118h44z
M385.5 67q43.5 27 67.5 75.5t24 110.5q0 63 -24 112t-67.5 76t-99.5 27t-99.5 -27t-67.5 -76t-24 -111t24 -111t67.5 -76t99.5 -27t99.5 27zM285 669l-102 -99h-50l127 133h50l127 -133h-51z" />
    <glyph glyph-name="Gbreve" unicode="&#x11e;" horiz-adv-x="739" 
d="M87 535q40 81 113 126t171 45q110 0 185 -58t98 -163h-53q-24 82 -84 126.5t-148 44.5q-80 0 -140 -39t-93 -108.5t-33 -158.5t32.5 -158.5t92 -108.5t136.5 -39q76 0 132.5 31.5t87 86t30.5 123.5v30h-230v50h282v-365h-45l-5 160q-25 -70 -90 -118t-163 -48
q-92 0 -164 45t-112 126t-40 185t40 185zM285 896q0 -38 23.5 -62.5t60.5 -24.5q38 0 62 24.5t24 62.5h41q-1 -57 -36.5 -92t-91.5 -35q-55 0 -89 34.5t-35 92.5h41z" />
    <glyph glyph-name="gbreve" unicode="&#x11f;" horiz-adv-x="587" 
d="M527 507v-476q0 -120 -59 -178.5t-182 -58.5q-94 0 -154 43t-72 123h53q12 -57 58.5 -88.5t118.5 -31.5q94 0 140 46.5t46 146.5v89q-25 -60 -74.5 -94t-119.5 -34q-69 0 -123.5 32t-85 90.5t-30.5 137.5q0 76 30.5 135t85 91.5t123.5 32.5t119 -33t74 -91l8 118h44z
M385.5 67q43.5 27 67.5 75.5t24 110.5q0 63 -24 112t-67.5 76t-99.5 27t-99.5 -27t-67.5 -76t-24 -111t24 -111t67.5 -76t99.5 -27t99.5 27zM200 703q0 -38 23.5 -62.5t60.5 -24.5q38 0 62 24.5t24 62.5h41q-1 -57 -36.5 -92t-91.5 -35q-55 0 -89 34.5t-35 92.5h41z" />
    <glyph glyph-name="Gdotaccent" unicode="&#x120;" horiz-adv-x="739" 
d="M87 535q40 81 113 126t171 45q110 0 185 -58t98 -163h-53q-24 82 -84 126.5t-148 44.5q-80 0 -140 -39t-93 -108.5t-33 -158.5t32.5 -158.5t92 -108.5t136.5 -39q76 0 132.5 31.5t87 86t30.5 123.5v30h-230v50h282v-365h-45l-5 160q-25 -70 -90 -118t-163 -48
q-92 0 -164 45t-112 126t-40 185t40 185zM345 876.5q10 9.5 25 9.5t25 -9.5t10 -24.5t-10 -25t-25 -10t-25 10t-10 25t10 24.5z" />
    <glyph glyph-name="gdotaccent" unicode="&#x121;" horiz-adv-x="587" 
d="M527 507v-476q0 -120 -59 -178.5t-182 -58.5q-94 0 -154 43t-72 123h53q12 -57 58.5 -88.5t118.5 -31.5q94 0 140 46.5t46 146.5v89q-25 -60 -74.5 -94t-119.5 -34q-69 0 -123.5 32t-85 90.5t-30.5 137.5q0 76 30.5 135t85 91.5t123.5 32.5t119 -33t74 -91l8 118h44z
M385.5 67q43.5 27 67.5 75.5t24 110.5q0 63 -24 112t-67.5 76t-99.5 27t-99.5 -27t-67.5 -76t-24 -111t24 -111t67.5 -76t99.5 -27t99.5 27zM260 683.5q10 9.5 25 9.5t25 -9.5t10 -24.5t-10 -25t-25 -10t-25 10t-10 25t10 24.5z" />
    <glyph glyph-name="Gcommaaccent" unicode="&#x122;" horiz-adv-x="739" 
d="M87 535q40 81 113 126t171 45q110 0 185 -58t98 -163h-53q-24 82 -84 126.5t-148 44.5q-80 0 -140 -39t-93 -108.5t-33 -158.5t32.5 -158.5t92 -108.5t136.5 -39q76 0 132.5 31.5t87 86t30.5 123.5v30h-230v50h282v-365h-45l-5 160q-25 -70 -90 -118t-163 -48
q-92 0 -164 45t-112 126t-40 185t40 185zM337 -53h50l-59 -141h-38z" />
    <glyph glyph-name="gcommaaccent" unicode="&#x123;" horiz-adv-x="587" 
d="M527 507v-476q0 -120 -59 -178.5t-182 -58.5q-94 0 -154 43t-72 123h53q12 -57 58.5 -88.5t118.5 -31.5q94 0 140 46.5t46 146.5v89q-25 -60 -74.5 -94t-119.5 -34q-69 0 -123.5 32t-85 90.5t-30.5 137.5q0 76 30.5 135t85 91.5t123.5 32.5t119 -33t74 -91l8 118h44z
M385.5 67q43.5 27 67.5 75.5t24 110.5q0 63 -24 112t-67.5 76t-99.5 27t-99.5 -27t-67.5 -76t-24 -111t24 -111t67.5 -76t99.5 -27t99.5 27zM302 562h-50l56 141h40z" />
    <glyph glyph-name="Hcircumflex" unicode="&#x124;" horiz-adv-x="657" 
d="M72 701h54v-319h405v319h54v-701h-54v332h-405v-332h-54v701zM328 862l-102 -99h-50l127 133h50l127 -133h-51z" />
    <glyph glyph-name="hcircumflex" unicode="&#x125;" horiz-adv-x="548" 
d="M439.5 456q54.5 -57 54.5 -172v-284h-51v282q0 89 -41.5 136.5t-115.5 47.5q-81 0 -128 -58.5t-47 -157.5v-250h-51v700h51v-313q23 58 69 92t114 34q91 0 145.5 -57zM85 852l-102 -99h-50l127 133h50l127 -133h-51z" />
    <glyph glyph-name="Hbar" unicode="&#x126;" horiz-adv-x="666" 
d="M667 561v-46h-78v-515h-54v324h-404v-324h-54v515h-79v46h79v140h54v-140h404v140h54v-140h78zM535 374v141h-404v-141h404z" />
    <glyph glyph-name="hbar" unicode="&#x127;" horiz-adv-x="557" 
d="M448.5 456q54.5 -57 54.5 -172v-284h-51v282q0 89 -41.5 136.5t-115.5 47.5q-81 0 -128 -58.5t-47 -157.5v-250h-51v582h-88v44h88v74h51v-74h148v-44h-148v-195q23 58 69 92t114 34q91 0 145.5 -57z" />
    <glyph glyph-name="Itilde" unicode="&#x128;" horiz-adv-x="198" 
d="M72 700h54v-700h-54v700zM13.5 836.5q-10.5 -15.5 -10.5 -37.5h-33v8q0 35 19.5 57.5t53.5 22.5q23 0 37 -8.5t29 -23.5q13 -13 22 -19t23 -6q20 0 30 15.5t10 36.5h34v-7q0 -35 -19.5 -57.5t-53.5 -22.5q-23 0 -36.5 8t-29.5 24q-13 13 -22 19t-23 6q-20 0 -30.5 -15.5z
" />
    <glyph glyph-name="itilde" unicode="&#x129;" horiz-adv-x="171" 
d="M60 507h51v-507h-51v507zM0.5 643.5q-10.5 -15.5 -10.5 -37.5h-33v8q0 35 19.5 57.5t53.5 22.5q23 0 37 -8.5t29 -23.5q13 -13 22 -19t23 -6q20 0 30 15.5t10 36.5h34v-7q0 -35 -19.5 -57.5t-53.5 -22.5q-23 0 -36.5 8t-29.5 24q-13 13 -22 19t-23 6q-20 0 -30.5 -15.5z
" />
    <glyph glyph-name="Imacron" unicode="&#x12a;" horiz-adv-x="198" 
d="M72 700h54v-700h-54v700zM-29 822v39h256v-39h-256z" />
    <glyph glyph-name="imacron" unicode="&#x12b;" horiz-adv-x="171" 
d="M60 507h51v-507h-51v507zM-42 629v39h256v-39h-256z" />
    <glyph glyph-name="Ibreve" unicode="&#x12c;" horiz-adv-x="198" 
d="M72 700h54v-700h-54v700zM14 896q0 -38 23.5 -62.5t60.5 -24.5q38 0 62 24.5t24 62.5h41q-1 -57 -36.5 -92t-91.5 -35q-55 0 -89 34.5t-35 92.5h41z" />
    <glyph glyph-name="ibreve" unicode="&#x12d;" horiz-adv-x="171" 
d="M60 507h51v-507h-51v507zM1 703q0 -38 23.5 -62.5t60.5 -24.5q38 0 62 24.5t24 62.5h41q-1 -57 -36.5 -92t-91.5 -35q-55 0 -89 34.5t-35 92.5h41z" />
    <glyph glyph-name="Iogonek" unicode="&#x12e;" horiz-adv-x="198" 
d="M134 -162v-38h-69q-42 0 -66.5 21t-24.5 57q0 35 25.5 64.5t72.5 62.5v695h54v-700q-54 -34 -81.5 -59.5t-27.5 -55.5q0 -22 15 -34.5t41 -12.5h61z" />
    <glyph glyph-name="iogonek" unicode="&#x12f;" horiz-adv-x="171" 
d="M59.5 631q-10.5 10 -10.5 26t10.5 26t25.5 10q16 0 26 -10t10 -26t-10 -26t-26 -10q-15 0 -25.5 10zM17 -149.5q15 -12.5 41 -12.5h61v-38h-69q-42 0 -66.5 21t-24.5 57t26 65.5t75 63.5v500h51v-507q-54 -34 -81.5 -59.5t-27.5 -55.5q0 -22 15 -34.5z" />
    <glyph glyph-name="Idotaccent" unicode="&#x130;" horiz-adv-x="198" 
d="M72 700h54v-700h-54v700zM74 876.5q10 9.5 25 9.5t25 -9.5t10 -24.5t-10 -25t-25 -10t-25 10t-10 25t10 24.5z" />
    <glyph glyph-name="dotlessi" unicode="&#x131;" horiz-adv-x="171" 
d="M60 507h51v-507h-51v507z" />
    <glyph glyph-name="IJ" unicode="&#x132;" horiz-adv-x="596" 
d="M123 248q0 -96 45.5 -150t128.5 -54q88 0 132.5 49t44.5 161v446h54v-445q0 -137 -59 -199t-172 -62q-109 0 -169 66t-59 188h54zM69 700h54v-287h-54v287z" />
    <glyph glyph-name="ij" unicode="&#x133;" horiz-adv-x="348" 
d="M111 683q10 -10 10 -26t-10 -26t-26 -10q-15 0 -25.5 10t-10.5 26t10.5 26t25.5 10q16 0 26 -10zM60 507h51v-507h-51v507zM288 683q10 -10 10 -26t-10 -26t-26 -10q-15 0 -25.5 10t-10.5 26t10.5 26t25.5 10q16 0 26 -10zM167 -153q38 0 54 16t16 54v590h51v-589
q0 -61 -28 -89.5t-91 -28.5h-62v47h60z" />
    <glyph glyph-name="Jcircumflex" unicode="&#x134;" horiz-adv-x="339" 
d="M267 700v-554q0 -146 -146 -146h-93v51h86q52 0 75.5 23.5t23.5 75.5v550h54zM239 862l-102 -99h-50l127 133h50l127 -133h-51z" />
    <glyph glyph-name="jcircumflex" unicode="&#x135;" horiz-adv-x="177" 
d="M-4 -153q38 0 54 16t16 54v590h51v-589q0 -61 -28 -89.5t-91 -28.5h-62v47h60zM91 669l-102 -99h-50l127 133h50l127 -133h-51z" />
    <glyph glyph-name="Kcommaaccent" unicode="&#x136;" horiz-adv-x="610" 
d="M72 700h54v-441l387 441h66l-254 -293l277 -407h-65l-251 366l-160 -183v-183h-54v700zM290 -53h50l-59 -141h-38z" />
    <glyph glyph-name="kcommaaccent" unicode="&#x137;" horiz-adv-x="497" 
d="M60 700h51v-499l296 306h62l-203 -210l220 -297h-62l-194 260l-119 -122v-138h-51v700zM238 -53h50l-59 -141h-38z" />
    <glyph glyph-name="Lacute" unicode="&#x139;" horiz-adv-x="484" 
d="M72 0v700h54v-650h335v-50h-389zM80 764l91 132h60l-110 -132h-41z" />
    <glyph glyph-name="lacute" unicode="&#x13a;" horiz-adv-x="171" 
d="M60 700h51v-700h-51v700zM66 754l91 132h60l-110 -132h-41z" />
    <glyph glyph-name="Lcommaaccent" unicode="&#x13b;" horiz-adv-x="484" 
d="M72 0v700h54v-650h335v-50h-389zM238 -53h50l-59 -141h-38z" />
    <glyph glyph-name="lcommaaccent" unicode="&#x13c;" horiz-adv-x="171" 
d="M60 700h51v-700h-51v700zM59 -53h50l-59 -141h-38z" />
    <glyph glyph-name="Lcaron" unicode="&#x13d;" horiz-adv-x="484" 
d="M72 0v700h54v-650h335v-50h-389zM242 700h49l-53 -145h-38z" />
    <glyph glyph-name="lcaron" unicode="&#x13e;" horiz-adv-x="219" 
d="M60 700h51v-700h-51v700zM200 700h49l-53 -145h-38z" />
    <glyph glyph-name="Ldot" unicode="&#x13f;" horiz-adv-x="484" 
d="M72 0v700h54v-650h335v-50h-389zM314 391.5q10 9.5 25 9.5t25 -9.5t10 -24.5t-10 -25t-25 -10t-25 10t-10 25t10 24.5z" />
    <glyph glyph-name="ldot" unicode="&#x140;" horiz-adv-x="272" 
d="M60 700h51v-700h-51v700zM195 388.5q10 9.5 25 9.5t25 -9.5t10 -24.5t-10 -25t-25 -10t-25 10t-10 25t10 24.5z" />
    <glyph glyph-name="Lslash" unicode="&#x141;" horiz-adv-x="501" 
d="M143 50h335v-50h-389v311l-91 -48v49l91 48v340h54v-311l166 88v-49l-166 -88v-290z" />
    <glyph glyph-name="lslash" unicode="&#x142;" horiz-adv-x="264" 
d="M259 472v-49l-101 -52v-371h-51v345l-103 -53v49l103 53v306h51v-280z" />
    <glyph glyph-name="Nacute" unicode="&#x143;" horiz-adv-x="662" 
d="M72 0v700h51l414 -601v601h53v-700h-51l-414 602v-602h-53zM309 764l91 132h60l-110 -132h-41z" />
    <glyph glyph-name="nacute" unicode="&#x144;" horiz-adv-x="547" 
d="M439.5 456q54.5 -57 54.5 -172v-284h-51v282q0 89 -41.5 136.5t-115.5 47.5q-81 0 -128 -58.5t-47 -157.5v-250h-51v507h44l8 -108q23 52 69 83t113 31q91 0 145.5 -57zM271 571l91 132h60l-110 -132h-41z" />
    <glyph glyph-name="Ncommaaccent" unicode="&#x145;" horiz-adv-x="662" 
d="M72 0v700h51l414 -601v601h53v-700h-51l-414 602v-602h-53zM305 -53h50l-59 -141h-38z" />
    <glyph glyph-name="ncommaaccent" unicode="&#x146;" horiz-adv-x="547" 
d="M439.5 456q54.5 -57 54.5 -172v-284h-51v282q0 89 -41.5 136.5t-115.5 47.5q-81 0 -128 -58.5t-47 -157.5v-250h-51v507h44l8 -108q23 52 69 83t113 31q91 0 145.5 -57zM251 -53h50l-59 -141h-38z" />
    <glyph glyph-name="Ncaron" unicode="&#x147;" horiz-adv-x="662" 
d="M72 0v700h51l414 -601v601h53v-700h-51l-414 602v-602h-53zM328 798l102 98h50l-127 -133h-50l-127 133h51z" />
    <glyph glyph-name="ncaron" unicode="&#x148;" horiz-adv-x="547" 
d="M439.5 456q54.5 -57 54.5 -172v-284h-51v282q0 89 -41.5 136.5t-115.5 47.5q-81 0 -128 -58.5t-47 -157.5v-250h-51v507h44l8 -108q23 52 69 83t113 31q91 0 145.5 -57zM290 605l102 98h50l-127 -133h-50l-127 133h51z" />
    <glyph glyph-name="napostrophe" unicode="&#x149;" horiz-adv-x="704" 
d="M125.5 680.5q17.5 -24.5 17.5 -58.5q0 -50 -30.5 -81.5t-81.5 -33.5v30q36 1 55.5 24.5t19.5 54.5q0 17 -9 26q-7 -12 -25 -12q-15 0 -25 9.5t-10 26.5t12 28t32 11q27 0 44.5 -24.5zM595.5 456q54.5 -57 54.5 -172v-284h-51v282q0 89 -41.5 136.5t-115.5 47.5
q-81 0 -128 -58.5t-47 -157.5v-250h-51v507h44l8 -108q23 52 69 83t113 31q91 0 145.5 -57z" />
    <glyph glyph-name="Eng" unicode="&#x14a;" horiz-adv-x="662" 
d="M590 700v-780q0 -63 -28.5 -91.5t-91.5 -28.5h-63v49h60q38 0 54 16t16 54v85l-412 598v-602h-53v700h51l414 -601v601h53z" />
    <glyph glyph-name="eng" unicode="&#x14b;" horiz-adv-x="547" 
d="M439.5 456q54.5 -57 54.5 -172v-366q0 -61 -28 -89.5t-91 -28.5h-65v47h62q38 0 54.5 16t16.5 54v365q0 89 -41.5 136.5t-115.5 47.5q-81 0 -128 -58.5t-47 -157.5v-250h-51v507h44l7 -116q21 56 68 89t115 33q91 0 145.5 -57z" />
    <glyph glyph-name="Omacron" unicode="&#x14c;" horiz-adv-x="749" 
d="M659.5 166.5q-41.5 -81.5 -116 -127t-169.5 -45.5t-169.5 45.5t-116 127t-41.5 183.5t41.5 183.5t116 127t169.5 45.5t169.5 -45.5t116 -127t41.5 -183.5t-41.5 -183.5zM137.5 191.5q34.5 -69.5 96 -108.5t140.5 -39t141 39t96.5 108.5t34.5 158.5t-34.5 158.5
t-96.5 108.5t-141 39t-140.5 -39t-96 -108.5t-34.5 -158.5t34.5 -158.5zM247 822v39h256v-39h-256z" />
    <glyph glyph-name="omacron" unicode="&#x14d;" horiz-adv-x="573" 
d="M160 27q-55 33 -86 92t-31 135t31 134.5t86 91.5t126 33t126.5 -33t86.5 -91.5t31 -134.5t-31 -135t-86.5 -92t-126.5 -33t-126 33zM386 67q44 27 68 76t24 111t-24 110.5t-68 76t-100 27.5t-99.5 -27.5t-67.5 -76t-24 -110.5t24 -111t67.5 -76t99.5 -27t100 27zM158 629
v39h256v-39h-256z" />
    <glyph glyph-name="Obreve" unicode="&#x14e;" horiz-adv-x="749" 
d="M659.5 166.5q-41.5 -81.5 -116 -127t-169.5 -45.5t-169.5 45.5t-116 127t-41.5 183.5t41.5 183.5t116 127t169.5 45.5t169.5 -45.5t116 -127t41.5 -183.5t-41.5 -183.5zM137.5 191.5q34.5 -69.5 96 -108.5t140.5 -39t141 39t96.5 108.5t34.5 158.5t-34.5 158.5
t-96.5 108.5t-141 39t-140.5 -39t-96 -108.5t-34.5 -158.5t34.5 -158.5zM290 896q0 -38 23.5 -62.5t60.5 -24.5q38 0 62 24.5t24 62.5h41q-1 -57 -36.5 -92t-91.5 -35q-55 0 -89 34.5t-35 92.5h41z" />
    <glyph glyph-name="obreve" unicode="&#x14f;" horiz-adv-x="573" 
d="M160 27q-55 33 -86 92t-31 135t31 134.5t86 91.5t126 33t126.5 -33t86.5 -91.5t31 -134.5t-31 -135t-86.5 -92t-126.5 -33t-126 33zM386 67q44 27 68 76t24 111t-24 110.5t-68 76t-100 27.5t-99.5 -27.5t-67.5 -76t-24 -110.5t24 -111t67.5 -76t99.5 -27t100 27zM201 703
q0 -38 23.5 -62.5t60.5 -24.5q38 0 62 24.5t24 62.5h41q-1 -57 -36.5 -92t-91.5 -35q-55 0 -89 34.5t-35 92.5h41z" />
    <glyph glyph-name="Ohungarumlaut" unicode="&#x150;" horiz-adv-x="749" 
d="M659.5 166.5q-41.5 -81.5 -116 -127t-169.5 -45.5t-169.5 45.5t-116 127t-41.5 183.5t41.5 183.5t116 127t169.5 45.5t169.5 -45.5t116 -127t41.5 -183.5t-41.5 -183.5zM137.5 191.5q34.5 -69.5 96 -108.5t140.5 -39t141 39t96.5 108.5t34.5 158.5t-34.5 158.5
t-96.5 108.5t-141 39t-140.5 -39t-96 -108.5t-34.5 -158.5t34.5 -158.5zM265 763l91 133h59l-109 -133h-41zM429 763l91 133h58l-108 -133h-41z" />
    <glyph glyph-name="ohungarumlaut" unicode="&#x151;" horiz-adv-x="573" 
d="M160 27q-55 33 -86 92t-31 135t31 134.5t86 91.5t126 33t126.5 -33t86.5 -91.5t31 -134.5t-31 -135t-86.5 -92t-126.5 -33t-126 33zM386 67q44 27 68 76t24 111t-24 110.5t-68 76t-100 27.5t-99.5 -27.5t-67.5 -76t-24 -110.5t24 -111t67.5 -76t99.5 -27t100 27zM176 570
l91 133h59l-109 -133h-41zM340 570l91 133h58l-108 -133h-41z" />
    <glyph glyph-name="OE" unicode="&#x152;" horiz-adv-x="1130" 
d="M1100 50v-50h-444v173q-36 -84 -107.5 -131.5t-169.5 -47.5q-97 0 -172.5 45.5t-117.5 126.5t-42 184t42 184t117.5 126.5t172.5 45.5q98 0 169.5 -47.5t107.5 -131.5v173h431v-50h-377v-268h316v-50h-316v-282h390zM524 83q63 39 97.5 108.5t34.5 158.5q0 88 -34.5 158
t-97.5 109t-144 39q-82 0 -145 -39t-97.5 -109t-34.5 -158q0 -89 34.5 -158.5t97.5 -108.5t145 -39q81 0 144 39z" />
    <glyph glyph-name="oe" unicode="&#x153;" horiz-adv-x="984" 
d="M527 253q-1 -4 -1 -12q1 -59 24.5 -104.5t65.5 -71t96 -25.5q62 0 107.5 34.5t61.5 93.5h51q-17 -78 -75.5 -126t-140.5 -48q-76 0 -132.5 37.5t-83.5 103.5q-28 -66 -84 -103.5t-130 -37.5q-71 0 -126 33t-86 92t-31 136q0 76 31 134.5t86 91t126 32.5q75 0 132 -37
t84 -102q27 65 81 102t124 37q67 0 119 -28.5t82.5 -82.5t32.5 -128l-1 -21h-413zM386 67.5q44 27.5 68 76t24 109.5q0 63 -24 112t-68 76t-100 27t-99.5 -27.5t-67.5 -76t-24 -109.5q0 -62 24 -111t67.5 -76.5t99.5 -27.5t100 27.5zM622 446.5q-39 -21.5 -64 -60.5t-29 -90
h359q-7 82 -56 127t-125 45q-46 0 -85 -21.5z" />
    <glyph glyph-name="Racute" unicode="&#x154;" horiz-adv-x="595" 
d="M331 700q100 0 160 -55.5t60 -148.5q0 -77 -44.5 -129t-119.5 -65l166 -302h-61l-159 292h-207v-292h-54v700h259zM126 342h201q77 0 123 42t46 112t-45.5 112t-122.5 42h-202v-308zM267 764l91 132h60l-110 -132h-41z" />
    <glyph glyph-name="racute" unicode="&#x155;" horiz-adv-x="312" 
d="M290 507v-49h-33q-82 0 -114 -55.5t-32 -145.5v-257h-51v507h44l8 -101q18 47 54 74t101 27h23zM149 571l91 132h60l-110 -132h-41z" />
    <glyph glyph-name="Rcommaaccent" unicode="&#x156;" horiz-adv-x="595" 
d="M331 700q100 0 160 -55.5t60 -148.5q0 -77 -44.5 -129t-119.5 -65l166 -302h-61l-159 292h-207v-292h-54v700h259zM126 342h201q77 0 123 42t46 112t-45.5 112t-122.5 42h-202v-308zM271 -53h50l-59 -141h-38z" />
    <glyph glyph-name="rcommaaccent" unicode="&#x157;" horiz-adv-x="312" 
d="M290 507v-49h-33q-82 0 -114 -55.5t-32 -145.5v-257h-51v507h44l8 -101q18 47 54 74t101 27h23zM59 -53h50l-59 -141h-38z" />
    <glyph glyph-name="Rcaron" unicode="&#x158;" horiz-adv-x="595" 
d="M331 700q100 0 160 -55.5t60 -148.5q0 -77 -44.5 -129t-119.5 -65l166 -302h-61l-159 292h-207v-292h-54v700h259zM126 342h201q77 0 123 42t46 112t-45.5 112t-122.5 42h-202v-308zM286 798l102 98h50l-127 -133h-50l-127 133h51z" />
    <glyph glyph-name="rcaron" unicode="&#x159;" horiz-adv-x="312" 
d="M290 507v-49h-33q-82 0 -114 -55.5t-32 -145.5v-257h-51v507h44l8 -101q18 47 54 74t101 27h23zM168 605l102 98h50l-127 -133h-50l-127 133h51z" />
    <glyph glyph-name="Sacute" unicode="&#x15a;" horiz-adv-x="597" 
d="M101 216q5 -79 61 -125.5t145 -46.5q86 0 137.5 38.5t51.5 105.5q0 48 -27.5 76t-70.5 41.5t-110 24.5q-70 12 -117 29.5t-78 54t-31 99.5q0 58 29 102t82.5 68t123.5 24q104 0 169.5 -54.5t73.5 -144.5l-53 -1q-9 69 -60 110t-130 41q-83 0 -132 -37.5t-49 -104.5
q0 -47 26 -74t65.5 -39t108.5 -24q70 -11 119.5 -29.5t82 -56.5t32.5 -101q0 -58 -30.5 -103t-85.5 -70t-128 -25q-76 0 -133.5 27.5t-90 78t-35.5 116.5h54zM283 764l91 132h60l-110 -132h-41z" />
    <glyph glyph-name="sacute" unicode="&#x15b;" horiz-adv-x="493" 
d="M93 156q3 -55 47 -86.5t116 -31.5q63 0 104 27t41 71q0 35 -19.5 54.5t-50.5 28t-83 16.5q-64 9 -104 20.5t-66 38.5t-26 75q0 42 24.5 75t67 51.5t96.5 18.5q87 0 141.5 -38.5t61.5 -111.5h-51q-7 49 -47.5 77.5t-101.5 28.5q-63 0 -102 -27t-39 -70q0 -33 19.5 -51
t47.5 -25t81 -14q65 -9 107 -22.5t68.5 -42.5t26.5 -79q0 -66 -56.5 -105.5t-139.5 -39.5q-96 0 -154 42.5t-60 119.5h51zM227 571l91 132h60l-110 -132h-41z" />
    <glyph glyph-name="Scircumflex" unicode="&#x15c;" horiz-adv-x="597" 
d="M101 216q5 -79 61 -125.5t145 -46.5q86 0 137.5 38.5t51.5 105.5q0 48 -27.5 76t-70.5 41.5t-110 24.5q-70 12 -117 29.5t-78 54t-31 99.5q0 58 29 102t82.5 68t123.5 24q104 0 169.5 -54.5t73.5 -144.5l-53 -1q-9 69 -60 110t-130 41q-83 0 -132 -37.5t-49 -104.5
q0 -47 26 -74t65.5 -39t108.5 -24q70 -11 119.5 -29.5t82 -56.5t32.5 -101q0 -58 -30.5 -103t-85.5 -70t-128 -25q-76 0 -133.5 27.5t-90 78t-35.5 116.5h54zM302 862l-102 -99h-50l127 133h50l127 -133h-51z" />
    <glyph glyph-name="scircumflex" unicode="&#x15d;" horiz-adv-x="493" 
d="M93 156q3 -55 47 -86.5t116 -31.5q63 0 104 27t41 71q0 35 -19.5 54.5t-50.5 28t-83 16.5q-64 9 -104 20.5t-66 38.5t-26 75q0 42 24.5 75t67 51.5t96.5 18.5q87 0 141.5 -38.5t61.5 -111.5h-51q-7 49 -47.5 77.5t-101.5 28.5q-63 0 -102 -27t-39 -70q0 -33 19.5 -51
t47.5 -25t81 -14q65 -9 107 -22.5t68.5 -42.5t26.5 -79q0 -66 -56.5 -105.5t-139.5 -39.5q-96 0 -154 42.5t-60 119.5h51zM246 669l-102 -99h-50l127 133h50l127 -133h-51z" />
    <glyph glyph-name="Scedilla" unicode="&#x15e;" horiz-adv-x="597" 
d="M521 91q-29 -44 -81.5 -69.5t-121.5 -27.5l-10 -43h16q37 0 60 -20t23 -52q0 -36 -23.5 -57.5t-61.5 -21.5h-82v32h74q24 0 38.5 12t14.5 34q0 19 -14.5 31t-36.5 12h-44l18 73q-108 4 -173 64.5t-70 157.5h54q5 -79 61 -125.5t145 -46.5q86 0 137.5 38.5t51.5 105.5
q0 48 -27.5 76t-70.5 41.5t-110 24.5q-70 12 -117 29.5t-78 54t-31 99.5q0 58 29 102t82.5 68t123.5 24q104 0 169.5 -54.5t73.5 -144.5l-53 -1q-9 69 -60 110t-130 41q-83 0 -132 -37.5t-49 -104.5q0 -47 26 -74t65.5 -39t108.5 -24q70 -11 119.5 -29.5t82 -56.5t32.5 -101
q0 -57 -29 -101z" />
    <glyph glyph-name="scedilla" unicode="&#x15f;" horiz-adv-x="493" 
d="M401.5 38q-50.5 -39 -127.5 -43l-10 -44h16q37 0 60 -20t23 -52q0 -36 -23.5 -57.5t-61.5 -21.5h-82v32h74q24 0 38.5 12t14.5 34q0 19 -14.5 31t-36.5 12h-44l18 73q-92 2 -147 44.5t-57 117.5h51q3 -55 47 -86.5t116 -31.5q63 0 104 27t41 71q0 35 -19.5 54.5t-50.5 28
t-83 16.5q-64 9 -104 20.5t-66 38.5t-26 75q0 42 24.5 75t67 51.5t96.5 18.5q87 0 141.5 -38.5t61.5 -111.5h-51q-7 49 -47.5 77.5t-101.5 28.5q-63 0 -102 -27t-39 -70q0 -33 19.5 -51t47.5 -25t81 -14q65 -9 107 -22.5t68.5 -42.5t26.5 -79q0 -62 -50.5 -101z" />
    <glyph glyph-name="Scaron" unicode="&#x160;" horiz-adv-x="597" 
d="M101 216q5 -79 61 -125.5t145 -46.5q86 0 137.5 38.5t51.5 105.5q0 48 -27.5 76t-70.5 41.5t-110 24.5q-70 12 -117 29.5t-78 54t-31 99.5q0 58 29 102t82.5 68t123.5 24q104 0 169.5 -54.5t73.5 -144.5l-53 -1q-9 69 -60 110t-130 41q-83 0 -132 -37.5t-49 -104.5
q0 -47 26 -74t65.5 -39t108.5 -24q70 -11 119.5 -29.5t82 -56.5t32.5 -101q0 -58 -30.5 -103t-85.5 -70t-128 -25q-76 0 -133.5 27.5t-90 78t-35.5 116.5h54zM302 798l102 98h50l-127 -133h-50l-127 133h51z" />
    <glyph glyph-name="scaron" unicode="&#x161;" horiz-adv-x="493" 
d="M93 156q3 -55 47 -86.5t116 -31.5q63 0 104 27t41 71q0 35 -19.5 54.5t-50.5 28t-83 16.5q-64 9 -104 20.5t-66 38.5t-26 75q0 42 24.5 75t67 51.5t96.5 18.5q87 0 141.5 -38.5t61.5 -111.5h-51q-7 49 -47.5 77.5t-101.5 28.5q-63 0 -102 -27t-39 -70q0 -33 19.5 -51
t47.5 -25t81 -14q65 -9 107 -22.5t68.5 -42.5t26.5 -79q0 -66 -56.5 -105.5t-139.5 -39.5q-96 0 -154 42.5t-60 119.5h51zM246 605l102 98h50l-127 -133h-50l-127 133h51z" />
    <glyph glyph-name="uni0162" unicode="&#x162;" horiz-adv-x="580" 
d="M23 700h534v-50h-240v-650h-54v650h-240v50zM264 -53h50l-59 -141h-38z" />
    <glyph glyph-name="uni0163" unicode="&#x163;" horiz-adv-x="299" 
d="M94 460h-96v47h96v142h51v-142h135v-47h-135v-341q0 -39 16 -55.5t54 -16.5h74v-47h-76q-64 0 -91.5 28t-27.5 90v342zM168 -53h50l-59 -141h-38z" />
    <glyph glyph-name="Tcaron" unicode="&#x164;" horiz-adv-x="580" 
d="M23 700h534v-50h-240v-650h-54v650h-240v50zM291 798l102 98h50l-127 -133h-50l-127 133h51z" />
    <glyph glyph-name="tcaron" unicode="&#x165;" horiz-adv-x="299" 
d="M94 460h-96v47h96v142h51v-142h135v-47h-135v-341q0 -39 16 -55.5t54 -16.5h74v-47h-76q-64 0 -91.5 28t-27.5 90v342zM244 712h49l-53 -145h-38z" />
    <glyph glyph-name="Tbar" unicode="&#x166;" horiz-adv-x="580" 
d="M557 650h-240v-283h128v-47h-128v-320h-54v320h-128v47h128v283h-240v50h534v-50z" />
    <glyph glyph-name="tbar" unicode="&#x167;" horiz-adv-x="315" 
d="M293 47v-47h-77q-64 0 -91 28t-27 90v146h-96v44h96v152h-96v47h96v142h51v-142h135v-47h-135v-152h135v-44h-135v-145q0 -39 16 -55.5t54 -16.5h74z" />
    <glyph glyph-name="Utilde" unicode="&#x168;" horiz-adv-x="650" 
d="M123 700v-414q0 -122 49 -182t152 -60q104 0 153.5 60t49.5 182v414h54v-411q0 -295 -257 -295q-255 0 -255 295v411h54zM239.5 836.5q-10.5 -15.5 -10.5 -37.5h-33v8q0 35 19.5 57.5t53.5 22.5q23 0 37 -8.5t29 -23.5q13 -13 22 -19t23 -6q20 0 30 15.5t10 36.5h34v-7
q0 -35 -19.5 -57.5t-53.5 -22.5q-23 0 -36.5 8t-29.5 24q-13 13 -22 19t-23 6q-20 0 -30.5 -15.5z" />
    <glyph glyph-name="utilde" unicode="&#x169;" horiz-adv-x="539" 
d="M479 507v-507h-45l-7 107q-23 -52 -68 -82.5t-110 -30.5q-88 0 -141.5 57.5t-53.5 171.5v284h51v-281q0 -90 40 -137.5t112 -47.5q79 0 125 58.5t46 158.5v249h51zM181.5 643.5q-10.5 -15.5 -10.5 -37.5h-33v8q0 35 19.5 57.5t53.5 22.5q23 0 37 -8.5t29 -23.5
q13 -13 22 -19t23 -6q20 0 30 15.5t10 36.5h34v-7q0 -35 -19.5 -57.5t-53.5 -22.5q-23 0 -36.5 8t-29.5 24q-13 13 -22 19t-23 6q-20 0 -30.5 -15.5z" />
    <glyph glyph-name="Umacron" unicode="&#x16a;" horiz-adv-x="650" 
d="M123 700v-414q0 -122 49 -182t152 -60q104 0 153.5 60t49.5 182v414h54v-411q0 -295 -257 -295q-255 0 -255 295v411h54zM197 822v39h256v-39h-256z" />
    <glyph glyph-name="umacron" unicode="&#x16b;" horiz-adv-x="539" 
d="M479 507v-507h-45l-7 107q-23 -52 -68 -82.5t-110 -30.5q-88 0 -141.5 57.5t-53.5 171.5v284h51v-281q0 -90 40 -137.5t112 -47.5q79 0 125 58.5t46 158.5v249h51zM139 629v39h256v-39h-256z" />
    <glyph glyph-name="Ubreve" unicode="&#x16c;" horiz-adv-x="650" 
d="M123 700v-414q0 -122 49 -182t152 -60q104 0 153.5 60t49.5 182v414h54v-411q0 -295 -257 -295q-255 0 -255 295v411h54zM240 896q0 -38 23.5 -62.5t60.5 -24.5q38 0 62 24.5t24 62.5h41q-1 -57 -36.5 -92t-91.5 -35q-55 0 -89 34.5t-35 92.5h41z" />
    <glyph glyph-name="ubreve" unicode="&#x16d;" horiz-adv-x="539" 
d="M479 507v-507h-45l-7 107q-23 -52 -68 -82.5t-110 -30.5q-88 0 -141.5 57.5t-53.5 171.5v284h51v-281q0 -90 40 -137.5t112 -47.5q79 0 125 58.5t46 158.5v249h51zM182 703q0 -38 23.5 -62.5t60.5 -24.5q38 0 62 24.5t24 62.5h41q-1 -57 -36.5 -92t-91.5 -35
q-55 0 -89 34.5t-35 92.5h41z" />
    <glyph glyph-name="Uring" unicode="&#x16e;" horiz-adv-x="650" 
d="M123 700v-414q0 -122 49 -182t152 -60q104 0 153.5 60t49.5 182v414h54v-411q0 -295 -257 -295q-255 0 -255 295v411h54zM246.5 865q32.5 32 78.5 32t78.5 -32t32.5 -77t-32.5 -77t-78.5 -32t-78.5 32t-32.5 77t32.5 77zM379.5 843.5q-22.5 22.5 -54.5 22.5t-54.5 -22.5
t-22.5 -55.5t22.5 -55.5t54.5 -22.5t54.5 22.5t22.5 55.5t-22.5 55.5z" />
    <glyph glyph-name="uring" unicode="&#x16f;" horiz-adv-x="539" 
d="M479 507v-507h-45l-7 107q-23 -52 -68 -82.5t-110 -30.5q-88 0 -141.5 57.5t-53.5 171.5v284h51v-281q0 -90 40 -137.5t112 -47.5q79 0 125 58.5t46 158.5v249h51zM188.5 744q32.5 32 78.5 32t78.5 -32t32.5 -77t-32.5 -77t-78.5 -32t-78.5 32t-32.5 77t32.5 77z
M321.5 722.5q-22.5 22.5 -54.5 22.5t-54.5 -22.5t-22.5 -55.5t22.5 -55.5t54.5 -22.5t54.5 22.5t22.5 55.5t-22.5 55.5z" />
    <glyph glyph-name="Uhungarumlaut" unicode="&#x170;" horiz-adv-x="650" 
d="M123 700v-414q0 -122 49 -182t152 -60q104 0 153.5 60t49.5 182v414h54v-411q0 -295 -257 -295q-255 0 -255 295v411h54zM215 763l91 133h59l-109 -133h-41zM379 763l91 133h58l-108 -133h-41z" />
    <glyph glyph-name="uhungarumlaut" unicode="&#x171;" horiz-adv-x="539" 
d="M479 507v-507h-45l-7 107q-23 -52 -68 -82.5t-110 -30.5q-88 0 -141.5 57.5t-53.5 171.5v284h51v-281q0 -90 40 -137.5t112 -47.5q79 0 125 58.5t46 158.5v249h51zM157 570l91 133h59l-109 -133h-41zM321 570l91 133h58l-108 -133h-41z" />
    <glyph glyph-name="Uogonek" unicode="&#x172;" horiz-adv-x="650" 
d="M581 700v-411q0 -261 -201 -291q-52 -32 -79 -58t-27 -55q0 -22 15 -34.5t41 -12.5h61v-38h-69q-42 0 -66.5 21t-24.5 57q0 32 21.5 59.5t60.5 56.5q-244 6 -244 295v411h54v-414q0 -122 49 -182t152 -60q104 0 153.5 60t49.5 182v414h54z" />
    <glyph glyph-name="uogonek" unicode="&#x173;" horiz-adv-x="539" 
d="M487 -162v-38h-69q-42 0 -66.5 21t-24.5 57q0 37 27.5 67.5t78.5 65.5l-6 96q-23 -52 -68 -82.5t-110 -30.5q-88 0 -141.5 57.5t-53.5 171.5v284h51v-281q0 -90 40 -137.5t112 -47.5q79 0 125 58.5t46 158.5v249h51v-507q-54 -34 -81.5 -59.5t-27.5 -55.5q0 -22 15 -34.5
t41 -12.5h61z" />
    <glyph glyph-name="Wcircumflex" unicode="&#x174;" horiz-adv-x="975" 
d="M29 700h57l187 -629l189 629h55l184 -629l189 629h56l-213 -700h-65l-181 610l-181 -610h-65zM488 862l-102 -99h-50l127 133h50l127 -133h-51z" />
    <glyph glyph-name="wcircumflex" unicode="&#x175;" horiz-adv-x="777" 
d="M11 507h54l148 -446l153 446h48l144 -446l156 446h52l-180 -507h-55l-143 426l-149 -426l-56 -1zM390 669l-102 -99h-50l127 133h50l127 -133h-51z" />
    <glyph glyph-name="Ycircumflex" unicode="&#x176;" horiz-adv-x="618" 
d="M14 701h63l232 -384l234 384h61l-268 -443v-258h-54v258zM307 862l-102 -99h-50l127 133h50l127 -133h-51z" />
    <glyph glyph-name="ycircumflex" unicode="&#x177;" horiz-adv-x="477" 
d="M64 507l176 -447l173 447h55l-243 -601q-18 -45 -31 -66t-32 -30.5t-53 -9.5h-78v47h64q26 0 39.5 6t22 20t22.5 46l33 79l-203 509h55zM237 669l-102 -99h-50l127 133h50l127 -133h-51z" />
    <glyph glyph-name="Ydieresis" unicode="&#x178;" horiz-adv-x="618" 
d="M14 701h63l232 -384l234 384h61l-268 -443v-258h-54v258zM198 865q10 10 25 10q16 0 26 -10t10 -25t-10 -25t-26 -10q-15 0 -25 10t-10 25t10 25zM365.5 865q10.5 10 25.5 10t25 -10t10 -25t-10 -25t-25 -10t-25.5 10t-10.5 25t10.5 25z" />
    <glyph glyph-name="Zacute" unicode="&#x179;" horiz-adv-x="606" 
d="M54 700h512v-40l-462 -610h470v-50h-542v40l462 610h-440v50zM287 764l91 132h60l-110 -132h-41z" />
    <glyph glyph-name="zacute" unicode="&#x17a;" horiz-adv-x="466" 
d="M36 507h394v-40l-341 -420h355v-47h-422v40l340 420h-326v47zM215 571l91 132h60l-110 -132h-41z" />
    <glyph glyph-name="Zdotaccent" unicode="&#x17b;" horiz-adv-x="606" 
d="M54 700h512v-40l-462 -610h470v-50h-542v40l462 610h-440v50zM281 876.5q10 9.5 25 9.5t25 -9.5t10 -24.5t-10 -25t-25 -10t-25 10t-10 25t10 24.5z" />
    <glyph glyph-name="zdotaccent" unicode="&#x17c;" horiz-adv-x="466" 
d="M36 507h394v-40l-341 -420h355v-47h-422v40l340 420h-326v47zM209 683.5q10 9.5 25 9.5t25 -9.5t10 -24.5t-10 -25t-25 -10t-25 10t-10 25t10 24.5z" />
    <glyph glyph-name="Zcaron" unicode="&#x17d;" horiz-adv-x="606" 
d="M54 700h512v-40l-462 -610h470v-50h-542v40l462 610h-440v50zM306 798l102 98h50l-127 -133h-50l-127 133h51z" />
    <glyph glyph-name="zcaron" unicode="&#x17e;" horiz-adv-x="466" 
d="M36 507h394v-40l-341 -420h355v-47h-422v40l340 420h-326v47zM234 605l102 98h50l-127 -133h-50l-127 133h51z" />
    <glyph glyph-name="florin" unicode="&#x192;" horiz-adv-x="484" 
d="M314 635q-19 -18 -22 -57l-19 -214h128v-47h-132l-27 -313q-4 -56 -35 -83t-90 -27h-92v47h86q40 0 59 18t22 57l26 301h-123v47h127l20 226q4 56 35 83t89 27h93v-47h-86q-40 0 -59 -18z" />
    <glyph glyph-name="AEacute" unicode="&#x1fc;" horiz-adv-x="937" 
d="M799 896l-110 -132h-41l91 132h60zM517 50h390v-50h-444v195h-277l-122 -195h-57l430 700h457v-50h-377v-268h316v-50h-316v-282zM212 243h251v410z" />
    <glyph glyph-name="aeacute" unicode="&#x1fd;" horiz-adv-x="916" 
d="M585 700l-110 -132h-41l91 132h60zM459 252v-11q0 -59 24 -104.5t66 -71t96 -25.5q62 0 107.5 34.5t60.5 93.5h52q-17 -78 -76 -126t-141 -48q-72 0 -127 36t-83 100q-23 -61 -80 -98.5t-133 -37.5q-85 0 -135 39t-50 108q0 71 51.5 111t148.5 40h172v42q0 63 -39.5 98.5
t-110.5 35.5q-63 0 -102.5 -28t-49.5 -75h-51q10 69 64 108.5t141 39.5q73 0 120 -29t64 -85q29 54 78.5 84t112.5 30q67 0 119 -28.5t82.5 -82.5t32.5 -129q0 -14 -1 -21h-413zM555 446.5q-39 -21.5 -64 -61.5t-29 -91h358q-6 82 -55 128t-125 46q-46 0 -85 -21.5zM412 248
h-177q-69 0 -106 -27t-37 -77q0 -49 35.5 -77.5t98.5 -28.5q54 0 96.5 21.5t66 59.5t23.5 86v43z" />
    <glyph glyph-name="Scommaaccent" unicode="&#x218;" horiz-adv-x="597" 
d="M101 216q5 -79 61 -125.5t145 -46.5q86 0 137.5 38.5t51.5 105.5q0 48 -27.5 76t-70.5 41.5t-110 24.5q-70 12 -117 29.5t-78 54t-31 99.5q0 58 29 102t82.5 68t123.5 24q104 0 169.5 -54.5t73.5 -144.5l-53 -1q-9 69 -60 110t-130 41q-83 0 -132 -37.5t-49 -104.5
q0 -47 26 -74t65.5 -39t108.5 -24q70 -11 119.5 -29.5t82 -56.5t32.5 -101q0 -58 -30.5 -103t-85.5 -70t-128 -25q-76 0 -133.5 27.5t-90 78t-35.5 116.5h54zM278 -53h50l-59 -141h-38z" />
    <glyph glyph-name="scommaaccent" unicode="&#x219;" horiz-adv-x="493" 
d="M93 156q3 -55 47 -86.5t116 -31.5q63 0 104 27t41 71q0 35 -19.5 54.5t-50.5 28t-83 16.5q-64 9 -104 20.5t-66 38.5t-26 75q0 42 24.5 75t67 51.5t96.5 18.5q87 0 141.5 -38.5t61.5 -111.5h-51q-7 49 -47.5 77.5t-101.5 28.5q-63 0 -102 -27t-39 -70q0 -33 19.5 -51
t47.5 -25t81 -14q65 -9 107 -22.5t68.5 -42.5t26.5 -79q0 -66 -56.5 -105.5t-139.5 -39.5q-96 0 -154 42.5t-60 119.5h51zM234 -53h50l-59 -141h-38z" />
    <glyph glyph-name="uni021A" unicode="&#x21a;" horiz-adv-x="580" 
d="M23 700h534v-50h-240v-650h-54v650h-240v50zM264 -53h50l-59 -141h-38z" />
    <glyph glyph-name="uni021B" unicode="&#x21b;" horiz-adv-x="299" 
d="M94 460h-96v47h96v142h51v-142h135v-47h-135v-341q0 -39 16 -55.5t54 -16.5h74v-47h-76q-64 0 -91.5 28t-27.5 90v342zM168 -53h50l-59 -141h-38z" />
    <glyph glyph-name="uni0237" unicode="&#x237;" horiz-adv-x="177" 
d="M-4 -153q38 0 54 16t16 54v590h51v-589q0 -61 -28 -89.5t-91 -28.5h-62v47h60z" />
    <glyph glyph-name="uni02BC" unicode="&#x2bc;" horiz-adv-x="317" 
d="M154 700h49l-53 -145h-38z" />
    <glyph glyph-name="circumflex" unicode="&#x2c6;" horiz-adv-x="400" 
d="M200 666l-102 -99h-50l127 133h50l127 -133h-51z" />
    <glyph glyph-name="caron" unicode="&#x2c7;" horiz-adv-x="400" 
d="M200 602l102 98h50l-127 -133h-50l-127 133h51z" />
    <glyph glyph-name="breve" unicode="&#x2d8;" horiz-adv-x="400" 
d="M115 700q0 -38 23.5 -62.5t60.5 -24.5q38 0 62 24.5t24 62.5h41q-1 -57 -36.5 -92t-91.5 -35q-55 0 -89 34.5t-35 92.5h41z" />
    <glyph glyph-name="dotaccent" unicode="&#x2d9;" horiz-adv-x="400" 
d="M175 680.5q10 9.5 25 9.5t25 -9.5t10 -24.5t-10 -25t-25 -10t-25 10t-10 25t10 24.5z" />
    <glyph glyph-name="ring" unicode="&#x2da;" horiz-adv-x="400" 
d="M121.5 741q32.5 32 78.5 32t78.5 -32t32.5 -77t-32.5 -77t-78.5 -32t-78.5 32t-32.5 77t32.5 77zM254.5 719.5q-22.5 22.5 -54.5 22.5t-54.5 -22.5t-22.5 -55.5t22.5 -55.5t54.5 -22.5t54.5 22.5t22.5 55.5t-22.5 55.5z" />
    <glyph glyph-name="ogonek" unicode="&#x2db;" horiz-adv-x="400" 
d="M76 -54.5q28 30.5 81 67.5l43 -13q-54 -34 -81.5 -59.5t-27.5 -55.5q0 -22 15 -34.5t41 -12.5h61v-38h-69q-42 0 -66.5 21t-24.5 57q0 37 28 67.5z" />
    <glyph glyph-name="tilde" unicode="&#x2dc;" horiz-adv-x="400" 
d="M114.5 640.5q-10.5 -15.5 -10.5 -37.5h-33v8q0 35 19.5 57.5t53.5 22.5q23 0 36.5 -8t29.5 -24q13 -13 22 -19t23 -6q20 0 30 15.5t10 36.5h34v-7q0 -35 -19.5 -57.5t-53.5 -22.5q-23 0 -36.5 8t-29.5 24q-13 13 -22 19t-23 6q-20 0 -30.5 -15.5z" />
    <glyph glyph-name="hungarumlaut" unicode="&#x2dd;" horiz-adv-x="405" 
d="M90 567l91 133h59l-109 -133h-41zM254 567l91 133h58l-108 -133h-41z" />
    <glyph glyph-name="gravecomb" unicode="&#x300;" horiz-adv-x="0" 
d="M-330 700h60l90 -132h-42z" />
    <glyph glyph-name="acutecomb" unicode="&#x301;" horiz-adv-x="0" 
d="M-219 568l91 132h60l-110 -132h-41z" />
    <glyph glyph-name="uni0302" unicode="&#x302;" horiz-adv-x="0" 
d="M-200 666l-102 -99h-50l127 133h50l127 -133h-51z" />
    <glyph glyph-name="tildecomb" unicode="&#x303;" horiz-adv-x="0" 
d="M-285.5 640.5q-10.5 -15.5 -10.5 -37.5h-33v8q0 35 19.5 57.5t53.5 22.5q23 0 37 -8.5t29 -23.5q13 -13 22 -19t23 -6q20 0 30 15.5t10 36.5h34v-7q0 -35 -19.5 -57.5t-53.5 -22.5q-23 0 -36.5 8t-29.5 24q-13 13 -22 19t-23 6q-20 0 -30.5 -15.5z" />
    <glyph glyph-name="uni0304" unicode="&#x304;" horiz-adv-x="0" 
d="M-328 626v39h256v-39h-256z" />
    <glyph glyph-name="uni0306" unicode="&#x306;" horiz-adv-x="0" 
d="M-285 700q0 -38 23.5 -62.5t60.5 -24.5q38 0 62 24.5t24 62.5h41q-1 -57 -36.5 -92t-91.5 -35q-55 0 -89 34.5t-35 92.5h41z" />
    <glyph glyph-name="uni0307" unicode="&#x307;" horiz-adv-x="0" 
d="M-225 680.5q10 9.5 25 9.5t25 -9.5t10 -24.5t-10 -25t-25 -10t-25 10t-10 25t10 24.5z" />
    <glyph glyph-name="uni0308" unicode="&#x308;" horiz-adv-x="0" 
d="M-309 669q10 10 25 10q16 0 26 -10t10 -25t-10 -25t-26 -10q-15 0 -25 10t-10 25t10 25zM-141.5 669q10.5 10 25.5 10t25 -10t10 -25t-10 -25t-25 -10t-25.5 10t-10.5 25t10.5 25z" />
    <glyph glyph-name="uni030A" unicode="&#x30a;" horiz-adv-x="0" 
d="M-278.5 741q32.5 32 78.5 32t78.5 -32t32.5 -77t-32.5 -77t-78.5 -32t-78.5 32t-32.5 77t32.5 77zM-145.5 719.5q-22.5 22.5 -54.5 22.5t-54.5 -22.5t-22.5 -55.5t22.5 -55.5t54.5 -22.5t54.5 22.5t22.5 55.5t-22.5 55.5z" />
    <glyph glyph-name="uni030B" unicode="&#x30b;" horiz-adv-x="0" 
d="M-310 567l91 133h59l-109 -133h-41zM-146 567l91 133h58l-108 -133h-41z" />
    <glyph glyph-name="uni030C" unicode="&#x30c;" horiz-adv-x="0" 
d="M-200 602l102 98h50l-127 -133h-50l-127 133h51z" />
    <glyph glyph-name="uni0312" unicode="&#x312;" horiz-adv-x="0" 
d="M-183 559h-50l56 141h40z" />
    <glyph glyph-name="uni0326" unicode="&#x326;" horiz-adv-x="0" 
d="M-226 -53h50l-59 -141h-38z" />
    <glyph glyph-name="uni0327" unicode="&#x327;" horiz-adv-x="0" 
d="M-182 10l-14 -59h16q37 0 60 -20t23 -52q0 -36 -23.5 -57.5t-61.5 -21.5h-82v32h74q24 0 38.5 12t14.5 34q0 19 -14.5 31t-36.5 12h-44l22 89h28z" />
    <glyph glyph-name="uni0328" unicode="&#x328;" horiz-adv-x="0" 
d="M-324 -54.5q28 30.5 81 67.5l43 -13q-54 -34 -81.5 -59.5t-27.5 -55.5q0 -22 15 -34.5t41 -12.5h61v-38h-69q-42 0 -66.5 21t-24.5 57q0 37 28 67.5z" />
    <glyph glyph-name="pi" unicode="&#x3c0;" horiz-adv-x="602" 
d="M584 507v-47h-90v-460h-51v460h-284v-460h-52v460h-89v47h566z" />
    <glyph glyph-name="uni0E3F" unicode="&#xe3f;" horiz-adv-x="624" 
d="M526 306q44 -42 44 -116q0 -89 -63.5 -139.5t-183.5 -50.5h-17v-100h-37v100h-197v700h197v101h37v-101h13q105 0 162.5 -47t57.5 -131q0 -64 -35.5 -106.5t-101.5 -55.5q80 -12 124 -54zM126 651v-269h143v269h-143zM306 651v-269h16q77 0 120 36t43 99t-42.5 98.5
t-120.5 35.5h-16zM126 49h143v284h-143v-284zM466 87q49 38 49 105q0 69 -50 105t-142 36h-17v-284h17q94 0 143 38z" />
    <glyph glyph-name="Wgrave" unicode="&#x1e80;" horiz-adv-x="975" 
d="M29 700h57l187 -629l189 629h55l184 -629l189 629h56l-213 -700h-65l-181 610l-181 -610h-65zM358 896h60l90 -132h-42z" />
    <glyph glyph-name="wgrave" unicode="&#x1e81;" horiz-adv-x="777" 
d="M11 507h54l148 -446l153 446h48l144 -446l156 446h52l-180 -507h-55l-143 426l-149 -426l-56 -1zM260 703h60l90 -132h-42z" />
    <glyph glyph-name="Wacute" unicode="&#x1e82;" horiz-adv-x="975" 
d="M29 700h57l187 -629l189 629h55l184 -629l189 629h56l-213 -700h-65l-181 610l-181 -610h-65zM469 764l91 132h60l-110 -132h-41z" />
    <glyph glyph-name="wacute" unicode="&#x1e83;" horiz-adv-x="777" 
d="M11 507h54l148 -446l153 446h48l144 -446l156 446h52l-180 -507h-55l-143 426l-149 -426l-56 -1zM371 571l91 132h60l-110 -132h-41z" />
    <glyph glyph-name="Wdieresis" unicode="&#x1e84;" horiz-adv-x="975" 
d="M29 700h57l187 -629l189 629h55l184 -629l189 629h56l-213 -700h-65l-181 610l-181 -610h-65zM379 865q10 10 25 10q16 0 26 -10t10 -25t-10 -25t-26 -10q-15 0 -25 10t-10 25t10 25zM546.5 865q10.5 10 25.5 10t25 -10t10 -25t-10 -25t-25 -10t-25.5 10t-10.5 25
t10.5 25z" />
    <glyph glyph-name="wdieresis" unicode="&#x1e85;" horiz-adv-x="777" 
d="M11 507h54l148 -446l153 446h48l144 -446l156 446h52l-180 -507h-55l-143 426l-149 -426l-56 -1zM281 672q10 10 25 10q16 0 26 -10t10 -25t-10 -25t-26 -10q-15 0 -25 10t-10 25t10 25zM448.5 672q10.5 10 25.5 10t25 -10t10 -25t-10 -25t-25 -10t-25.5 10t-10.5 25
t10.5 25z" />
    <glyph glyph-name="Ygrave" unicode="&#x1ef2;" horiz-adv-x="618" 
d="M14 701h63l232 -384l234 384h61l-268 -443v-258h-54v258zM177 896h60l90 -132h-42z" />
    <glyph glyph-name="ygrave" unicode="&#x1ef3;" horiz-adv-x="477" 
d="M64 507l176 -447l173 447h55l-243 -601q-18 -45 -31 -66t-32 -30.5t-53 -9.5h-78v47h64q26 0 39.5 6t22 20t22.5 46l33 79l-203 509h55zM107 703h60l90 -132h-42z" />
    <glyph glyph-name="endash" unicode="&#x2013;" horiz-adv-x="584" 
d="M59 263v42h466v-42h-466z" />
    <glyph glyph-name="emdash" unicode="&#x2014;" horiz-adv-x="919" 
d="M59 306h801v-42h-801v42z" />
    <glyph glyph-name="quoteleft" unicode="&#x2018;" horiz-adv-x="184" 
d="M58.5 532.5q-17.5 24.5 -17.5 58.5q0 50 30.5 81.5t81.5 33.5v-30q-36 -1 -55.5 -24.5t-19.5 -54.5q0 -17 9 -26q8 12 25 12q15 0 25 -9.5t10 -26.5t-12 -28t-32 -11q-27 0 -44.5 24.5z" />
    <glyph glyph-name="quoteright" unicode="&#x2019;" horiz-adv-x="184" 
d="M125.5 680.5q17.5 -24.5 17.5 -58.5q0 -50 -30.5 -81.5t-81.5 -33.5v30q36 1 55.5 24.5t19.5 54.5q0 17 -9 26q-7 -12 -25 -12q-15 0 -25 9.5t-10 26.5t12 28t32 11q27 0 44.5 -24.5z" />
    <glyph glyph-name="quotesinglbase" unicode="&#x201a;" horiz-adv-x="184" 
d="M125.5 45.5q17.5 -24.5 17.5 -58.5q0 -50 -30.5 -81.5t-81.5 -33.5v30q36 1 55.5 24.5t19.5 54.5q0 17 -9 26q-7 -12 -25 -12q-15 0 -25 9.5t-10 26.5t12 28t32 11q27 0 44.5 -24.5z" />
    <glyph glyph-name="quotedblleft" unicode="&#x201c;" horiz-adv-x="334" 
d="M58.5 532.5q-17.5 24.5 -17.5 58.5q0 50 30.5 81.5t81.5 33.5v-30q-36 -1 -55.5 -24.5t-19.5 -54.5q0 -17 9 -26q8 12 25 12q15 0 25 -9.5t10 -26.5t-12 -28t-32 -11q-27 0 -44.5 24.5zM208.5 532.5q-17.5 24.5 -17.5 58.5q0 50 30.5 81.5t81.5 33.5v-30
q-36 -1 -55.5 -24.5t-19.5 -54.5q0 -17 9 -26q8 12 25 12q15 0 25 -9.5t10 -26.5t-12 -28t-32 -11q-27 0 -44.5 24.5z" />
    <glyph glyph-name="quotedblright" unicode="&#x201d;" horiz-adv-x="334" 
d="M125.5 680.5q17.5 -24.5 17.5 -58.5q0 -50 -30.5 -81.5t-81.5 -33.5v30q36 1 55.5 24.5t19.5 54.5q0 17 -9 26q-7 -12 -25 -12q-15 0 -25 9.5t-10 26.5t12 28t32 11q27 0 44.5 -24.5zM275.5 680.5q17.5 -24.5 17.5 -58.5q0 -50 -30.5 -81.5t-81.5 -33.5v30
q36 1 55.5 24.5t19.5 54.5q0 17 -9 26q-7 -12 -25 -12q-15 0 -25 9.5t-10 26.5t12 28t32 11q27 0 44.5 -24.5z" />
    <glyph glyph-name="quotedblbase" unicode="&#x201e;" horiz-adv-x="334" 
d="M125.5 45.5q17.5 -24.5 17.5 -58.5q0 -50 -30.5 -81.5t-81.5 -33.5v30q36 1 55.5 24.5t19.5 54.5q0 17 -9 26q-7 -12 -25 -12q-15 0 -25 9.5t-10 26.5t12 28t32 11q27 0 44.5 -24.5zM275.5 45.5q17.5 -24.5 17.5 -58.5q0 -50 -30.5 -81.5t-81.5 -33.5v30q36 1 55.5 24.5
t19.5 54.5q0 17 -9 26q-7 -12 -25 -12q-15 0 -25 9.5t-10 26.5t12 28t32 11q27 0 44.5 -24.5z" />
    <glyph glyph-name="dagger" unicode="&#x2020;" horiz-adv-x="516" 
d="M477 480v-44h-196v-436h-46v436h-196v44h196v220h46v-220h196z" />
    <glyph glyph-name="daggerdbl" unicode="&#x2021;" horiz-adv-x="532" 
d="M488 470h-199v-240h199v-45h-199v-185h-46v185h-199v45h199v240h-199v45h199v185h46v-185h199v-45z" />
    <glyph glyph-name="bullet" unicode="&#x2022;" horiz-adv-x="342" 
d="M101 409.5q27 25.5 69 25.5q43 0 70.5 -25.5t27.5 -67.5t-27.5 -67.5t-70.5 -25.5q-42 0 -69 25.5t-27 67.5t27 67.5z" />
    <glyph glyph-name="ellipsis" unicode="&#x2026;" horiz-adv-x="521" 
d="M64.5 60q10.5 10 27.5 10t27.5 -10t10.5 -27t-10.5 -27.5t-27.5 -10.5t-27.5 10.5t-10.5 27.5t10.5 27zM233.5 60q10.5 10 27.5 10t27.5 -10t10.5 -27t-10.5 -27.5t-27.5 -10.5t-27.5 10.5t-10.5 27.5t10.5 27zM401.5 60q10.5 10 27.5 10t27.5 -10t10.5 -27t-10.5 -27.5
t-27.5 -10.5t-27.5 10.5t-10.5 27.5t10.5 27z" />
    <glyph glyph-name="perthousand" unicode="&#x2030;" horiz-adv-x="1268" 
d="M84 623.5q22 38.5 60.5 60.5t85.5 22q48 0 86.5 -22t60.5 -60.5t22 -85.5t-22 -85.5t-60.5 -60t-86.5 -21.5q-47 0 -85.5 21.5t-60.5 60t-22 85.5t22 85.5zM180 0l471 700h51l-472 -700h-50zM318 628q-35 36 -88 36q-52 0 -87 -36t-35 -90t34.5 -89.5t87.5 -35.5t88 35.5
t35 89.5t-35 90zM503 246.5q22 38.5 60.5 60.5t86.5 22q47 0 85.5 -22t60.5 -60.5t22 -85.5t-22 -85.5t-60.5 -60t-85.5 -21.5q-48 0 -86.5 21.5t-60.5 60t-22 85.5t22 85.5zM891 246.5q22 38.5 60.5 60.5t86.5 22q47 0 86 -22t61 -60.5t22 -85.5t-22 -85.5t-61 -60
t-86 -21.5q-48 0 -86.5 21.5t-60.5 60t-22 85.5t22 85.5zM737 251q-35 36 -87 36q-53 0 -88 -36t-35 -90t35 -89.5t88 -35.5t87.5 35.5t34.5 89.5t-35 90zM1125 251q-35 36 -87 36q-53 0 -88 -36t-35 -90t35 -89.5t88 -35.5t87.5 35.5t34.5 89.5t-35 90z" />
    <glyph glyph-name="guilsinglleft" unicode="&#x2039;" horiz-adv-x="333" 
d="M273 507l-161 -253l161 -254h-52l-163 254l163 253h52z" />
    <glyph glyph-name="guilsinglright" unicode="&#x203a;" horiz-adv-x="333" 
d="M60 507h52l163 -253l-163 -254h-52l161 254z" />
    <glyph glyph-name="uni2042" unicode="&#x2042;" horiz-adv-x="954" 
d="M628 622l-128 -49l88 -104l-28 -25l-89 109l-87 -109l-28 25l88 105l-127 49l14 35l124 -54l-1 137h36l-1 -137l124 54zM384 134l-128 -49l88 -104l-28 -25l-89 109l-87 -109l-28 25l88 105l-127 49l14 35l124 -54l-1 137h36l-1 -137l124 54zM882 134l-128 -49l88 -104
l-28 -25l-89 109l-87 -109l-28 25l88 105l-127 49l14 35l124 -54l-1 137h36l-1 -137l124 54z" />
    <glyph glyph-name="fraction" unicode="&#x2044;" horiz-adv-x="181" 
d="M-153 0l444 700h43l-444 -700h-43z" />
    <glyph glyph-name="uni2051" unicode="&#x2051;" horiz-adv-x="456" 
d="M384 622l-128 -49l88 -104l-28 -25l-89 109l-87 -109l-28 25l88 105l-127 49l14 35l124 -54l-1 137h36l-1 -137l124 54zM384 131l-128 -49l88 -104l-28 -25l-89 109l-87 -109l-28 25l88 105l-127 49l14 35l124 -54l-1 137h36l-1 -137l124 54z" />
    <glyph glyph-name="uni2070" unicode="&#x2070;" horiz-adv-x="337" 
d="M66.5 754.5q38.5 52.5 102.5 52.5t102 -52.5t38 -135.5t-38 -135.5t-102 -52.5t-102.5 52.5t-38.5 135.5t38.5 135.5zM244 729q-28 43 -75 43t-75.5 -43t-28.5 -110t28.5 -110t75.5 -43t75 43t28 110t-28 110z" />
    <glyph glyph-name="uni2074" unicode="&#x2074;" horiz-adv-x="332" 
d="M205 800h44v-234h62v-34h-62v-96h-36v96h-192v34zM213 760l-152 -194h152v194z" />
    <glyph glyph-name="uni2075" unicode="&#x2075;" horiz-adv-x="312" 
d="M262 766h-188l-8 -135q16 22 41.5 34t55.5 12q54 0 87.5 -34t33.5 -88q0 -55 -36 -90t-92 -35q-52 0 -87 29t-40 76h36q5 -32 30 -51.5t61 -19.5q39 0 64.5 25.5t25.5 65.5t-25 64.5t-66 24.5q-28 0 -50.5 -13.5t-35.5 -36.5h-34l10 206h217v-34z" />
    <glyph glyph-name="uni2076" unicode="&#x2076;" horiz-adv-x="321" 
d="M67.5 754q38.5 53 104.5 53q46 0 79.5 -27.5t40.5 -76.5h-35q-7 35 -30 54t-55 19q-49 0 -78.5 -42t-29.5 -112q0 -15 2 -45q2 38 30 65.5t76 27.5q55 0 88.5 -33t33.5 -86q0 -54 -34.5 -87t-91.5 -33q-70 0 -104.5 49t-34.5 132q0 89 38.5 142zM232.5 615.5
q-24.5 24.5 -64.5 24.5q-41 0 -66 -24t-25 -64t25.5 -65t65.5 -25t64.5 24.5t24.5 64.5t-24.5 64.5z" />
    <glyph glyph-name="uni2077" unicode="&#x2077;" horiz-adv-x="300" 
d="M24 800h255v-31l-176 -334h-40l176 332l-215 -1v34z" />
    <glyph glyph-name="uni2078" unicode="&#x2078;" horiz-adv-x="321" 
d="M50.5 593.5q23.5 25.5 60.5 32.5q-33 7 -53 29.5t-20 56.5q0 41 34.5 68t88.5 27q53 0 87.5 -27t34.5 -68q0 -33 -19.5 -55.5t-52.5 -30.5q37 -7 60 -32.5t23 -61.5q0 -44 -37 -72.5t-96 -28.5t-96.5 28.5t-37.5 72.5q0 36 23.5 61.5zM222 757q-24 19 -61 19
q-38 0 -62 -19t-24 -49q0 -31 24 -50t62 -19t61.5 19t23.5 50q0 30 -24 49zM229 588.5q-27 21.5 -68 21.5t-68.5 -21.5t-27.5 -53.5q0 -31 27.5 -52t68.5 -21t68 20.5t27 52.5t-27 53.5z" />
    <glyph glyph-name="uni2079" unicode="&#x2079;" horiz-adv-x="318" 
d="M253 484q-39 -53 -105 -53q-45 0 -78.5 27.5t-40.5 76.5h35q7 -35 30 -54t55 -19q49 0 78.5 42t29.5 112q0 15 -2 45q-2 -38 -30 -65.5t-76 -27.5q-55 0 -88.5 33t-33.5 86q0 54 34.5 87t91.5 33q70 0 104.5 -49t34.5 -132q0 -89 -39 -142zM88.5 622.5
q24.5 -24.5 64.5 -24.5q41 0 66 24t25 64t-25.5 65t-65.5 25t-64.5 -24.5t-24.5 -64.5t24.5 -64.5z" />
    <glyph glyph-name="uni2080" unicode="&#x2080;" horiz-adv-x="336" 
d="M65.5 217.5q38.5 52.5 102.5 52.5t102 -52.5t38 -135.5t-38 -135.5t-102 -52.5t-102.5 52.5t-38.5 135.5t38.5 135.5zM243 192q-28 43 -75 43t-75.5 -43t-28.5 -110t28.5 -110t75.5 -43t75 43t28 110t-28 110z" />
    <glyph glyph-name="uni2081" unicode="&#x2081;" horiz-adv-x="168" 
d="M87 -100v257q-4 -9 -18 -9h-69v35h69q8 0 13.5 7t5.5 16v58h35v-364h-36z" />
    <glyph glyph-name="uni2082" unicode="&#x2082;" horiz-adv-x="310" 
d="M31 152q0 54 35 86t88 32q56 0 90 -30t34 -78q0 -37 -19 -64t-55 -58l-123 -105h201v-35h-255v34l150 125q32 27 47.5 50t15.5 52q0 33 -23.5 53.5t-61.5 20.5q-40 0 -64 -22.5t-24 -62.5v-6h-36v8z" />
    <glyph glyph-name="uni2083" unicode="&#x2083;" horiz-adv-x="319" 
d="M70 241q34 29 89 29t89 -27.5t34 -71.5q0 -32 -20 -53t-52 -27q37 -7 59 -29.5t22 -58.5q0 -49 -36.5 -79t-96.5 -30q-63 0 -98 30t-35 85h36q1 -39 27.5 -60t70.5 -21q41 0 67.5 20.5t26.5 53.5t-27 52.5t-72 19.5h-23v27h23q40 0 65 18.5t25 48.5t-23.5 49t-60.5 19
q-40 0 -64 -20t-24 -54h-37q1 50 35 79z" />
    <glyph glyph-name="uni2084" unicode="&#x2084;" horiz-adv-x="332" 
d="M205 264h44v-234h62v-34h-62v-96h-36v96h-192v34zM213 224l-152 -194h152v194z" />
    <glyph glyph-name="uni2085" unicode="&#x2085;" horiz-adv-x="312" 
d="M262 230h-188l-8 -135q16 22 41.5 34t55.5 12q54 0 87.5 -34t33.5 -88q0 -55 -36 -90t-92 -35q-52 0 -87 29t-40 76h36q5 -32 30 -51.5t61 -19.5q39 0 64.5 25.5t25.5 65.5t-25 64.5t-66 24.5q-28 0 -50.5 -13.5t-35.5 -36.5h-34l10 206h217v-34z" />
    <glyph glyph-name="uni2086" unicode="&#x2086;" horiz-adv-x="321" 
d="M67.5 217q38.5 53 104.5 53q46 0 79.5 -27.5t40.5 -76.5h-35q-7 35 -30 54t-55 19q-49 0 -78.5 -42t-29.5 -112q0 -15 2 -45q2 38 30 65.5t76 27.5q55 0 88.5 -33t33.5 -86q0 -54 -34.5 -87t-91.5 -33q-70 0 -104.5 49t-34.5 132q0 89 38.5 142zM232.5 78.5
q-24.5 24.5 -64.5 24.5q-41 0 -66 -24t-25 -64t25.5 -65t65.5 -25t64.5 24.5t24.5 64.5t-24.5 64.5z" />
    <glyph glyph-name="uni2087" unicode="&#x2087;" horiz-adv-x="300" 
d="M24 265h255v-31l-176 -334h-40l176 332l-215 -1v34z" />
    <glyph glyph-name="uni2088" unicode="&#x2088;" horiz-adv-x="321" 
d="M50.5 56.5q23.5 25.5 60.5 32.5q-33 7 -53 29.5t-20 56.5q0 41 34.5 68t88.5 27q53 0 87.5 -27t34.5 -68q0 -33 -19.5 -55.5t-52.5 -30.5q37 -7 60 -32.5t23 -61.5q0 -44 -37 -72.5t-96 -28.5t-96.5 28.5t-37.5 72.5q0 36 23.5 61.5zM222 220q-24 19 -61 19
q-38 0 -62 -19t-24 -49q0 -31 24 -50t62 -19t61.5 19t23.5 50q0 30 -24 49zM229 51.5q-27 21.5 -68 21.5t-68.5 -21.5t-27.5 -53.5q0 -31 27.5 -52t68.5 -21t68 20.5t27 52.5t-27 53.5z" />
    <glyph glyph-name="uni2089" unicode="&#x2089;" horiz-adv-x="318" 
d="M253 -53q-39 -53 -105 -53q-45 0 -78.5 27.5t-40.5 76.5h35q7 -35 30 -54t55 -19q49 0 78.5 42t29.5 112q0 15 -2 45q-2 -38 -30 -65.5t-76 -27.5q-55 0 -88.5 33t-33.5 86q0 54 34.5 87t91.5 33q70 0 104.5 -49t34.5 -132q0 -89 -39 -142zM88.5 85.5
q24.5 -24.5 64.5 -24.5q41 0 66 24t25 64t-25.5 65t-65.5 25t-64.5 -24.5t-24.5 -64.5t24.5 -64.5z" />
    <glyph glyph-name="franc" unicode="&#x20a3;" horiz-adv-x="526" 
d="M503 650h-362v-277h302v-50h-302v-143h162v-44h-162v-136h-54v136h-90v44h90v520h416v-50z" />
    <glyph glyph-name="uni20A8" unicode="&#x20a8;" horiz-adv-x="628" 
d="M589 700l-6 -41h-176q40 -20 63 -57t26 -86h79l-7 -41h-72q-6 -69 -49.5 -115t-113.5 -58l166 -302h-61l-159 292h-207v50h201q71 0 116 36t52 97h-369v41h369q-7 62 -51.5 98t-115.5 36h-202v50h517z" />
    <glyph glyph-name="Euro" unicode="&#x20ac;" horiz-adv-x="649" 
d="M24 253v41h67q-2 32 -2 56t2 42h-67v41h69q13 128 83.5 200.5t179.5 72.5q103 0 169 -58.5t77 -154.5h-53q-11 74 -62 119t-129 45q-87 0 -143.5 -59.5t-66.5 -164.5h213l-6 -41h-210q-2 -16 -2 -42q0 -30 3 -56h188l-7 -41h-178q15 -99 71 -154.5t140 -55.5q76 0 125 44
t63 119h53q-15 -97 -78.5 -154.5t-164.5 -57.5q-106 0 -177 68.5t-87 190.5h-70z" />
    <glyph glyph-name="uni20BF" unicode="&#x20bf;" horiz-adv-x="620" 
d="M172 700v105h45v-105h89v105h45v-108q87 -7 135 -52.5t48 -122.5q0 -64 -34.5 -106t-98.5 -56q78 -13 121.5 -54.5t43.5 -115.5q0 -83 -55.5 -132.5t-159.5 -55.5v-98h-45v96h-89v-96h-46v96h-99v700h100zM126 382h191q78 0 120.5 36t42.5 99t-42.5 98.5t-120.5 35.5
h-191v-269zM126 49h193q94 0 143 38t49 105q0 68 -50 104.5t-142 36.5h-193v-284z" />
    <glyph glyph-name="trademark" unicode="&#x2122;" horiz-adv-x="692" 
d="M34 700h238v-35h-100v-234h-38v234h-100v35zM311 700h52l107 -222l108 222h53v-269h-36v226l-110 -226h-31l-108 226v-226h-35v269z" />
    <glyph glyph-name="uni2126" unicode="&#x2126;" horiz-adv-x="746" 
d="M448 113q97 53 142.5 119.5t45.5 158.5q0 77 -34 138t-94 95t-135 34t-134.5 -34t-93.5 -95t-34 -138q0 -92 45 -158.5t142 -119.5v-113h-238v50h191v45q-100 48 -147.5 122t-47.5 176q0 92 40.5 163t113 110.5t163.5 39.5t163.5 -39.5t113.5 -110.5t41 -162
q0 -103 -48 -177t-148 -122v-45h192v-50h-239v113z" />
    <glyph glyph-name="uni2153" unicode="&#x2153;" horiz-adv-x="660" 
d="M87 337v257q-4 -9 -18 -9h-69v35h69q8 0 13.5 7t5.5 16v58h35v-364h-36zM15 0l444 700h43l-444 -700h-43zM416 341q34 29 89 29t89 -27.5t34 -71.5q0 -32 -20 -53t-52 -27q37 -7 59 -29.5t22 -58.5q0 -49 -36.5 -79t-96.5 -30q-63 0 -98 30t-35 85h36q1 -39 27.5 -60
t70.5 -21q41 0 67.5 20.5t26.5 53.5t-27 52.5t-72 19.5h-23v27h23q40 0 65 18.5t25 48.5t-23.5 49t-60.5 19q-40 0 -64 -20t-24 -54h-37q1 50 35 79z" />
    <glyph glyph-name="uni2155" unicode="&#x2155;" horiz-adv-x="639" 
d="M87 337v257q-4 -9 -18 -9h-69v35h69q8 0 13.5 7t5.5 16v58h35v-364h-36zM15 0l444 700h43l-444 -700h-43zM595 330h-188l-8 -135q16 22 41.5 34t55.5 12q54 0 87.5 -34t33.5 -88q0 -55 -36 -90t-92 -35q-52 0 -87 29t-40 76h36q5 -32 30 -51.5t61 -19.5q39 0 64.5 25.5
t25.5 65.5t-25 64.5t-66 24.5q-28 0 -50.5 -13.5t-35.5 -36.5h-34l10 206h217v-34z" />
    <glyph glyph-name="uni2156" unicode="&#x2156;" horiz-adv-x="781" 
d="M31 588q0 54 35 86t88 32q56 0 90 -30t34 -78q0 -37 -19 -64t-55 -58l-123 -105h201v-35h-255v34l150 125q32 27 47.5 50t15.5 52q0 33 -23.5 53.5t-61.5 20.5q-40 0 -64 -22.5t-24 -62.5v-6h-36v8zM157 0l444 700h43l-444 -700h-43zM737 330h-188l-8 -135q16 22 41.5 34
t55.5 12q54 0 87.5 -34t33.5 -88q0 -55 -36 -90t-92 -35q-52 0 -87 29t-40 76h36q5 -32 30 -51.5t61 -19.5q39 0 64.5 25.5t25.5 65.5t-25 64.5t-66 24.5q-28 0 -50.5 -13.5t-35.5 -36.5h-34l10 206h217v-34z" />
    <glyph glyph-name="uni2157" unicode="&#x2157;" horiz-adv-x="790" 
d="M70 679q34 29 89 29t89 -27.5t34 -71.5q0 -32 -20 -53t-52 -27q37 -7 59 -29.5t22 -58.5q0 -49 -36.5 -79t-96.5 -30q-63 0 -98 30t-35 85h36q1 -39 27.5 -60t70.5 -21q41 0 67.5 20.5t26.5 53.5t-27 52.5t-72 19.5h-23v27h23q40 0 65 18.5t25 48.5t-23.5 49t-60.5 19
q-40 0 -64 -20t-24 -54h-37q1 50 35 79zM166 0l444 700h43l-444 -700h-43zM746 330h-188l-8 -135q16 22 41.5 34t55.5 12q54 0 87.5 -34t33.5 -88q0 -55 -36 -90t-92 -35q-52 0 -87 29t-40 76h36q5 -32 30 -51.5t61 -19.5q39 0 64.5 25.5t25.5 65.5t-25 64.5t-66 24.5
q-28 0 -50.5 -13.5t-35.5 -36.5h-34l10 206h217v-34z" />
    <glyph glyph-name="uni2158" unicode="&#x2158;" horiz-adv-x="803" 
d="M205 700h44v-234h62v-34h-62v-96h-36v96h-192v34zM213 660l-152 -194h152v194zM179 0l444 700h43l-444 -700h-43zM759 330h-188l-8 -135q16 22 41.5 34t55.5 12q54 0 87.5 -34t33.5 -88q0 -55 -36 -90t-92 -35q-52 0 -87 29t-40 76h36q5 -32 30 -51.5t61 -19.5
q39 0 64.5 25.5t25.5 65.5t-25 64.5t-66 24.5q-28 0 -50.5 -13.5t-35.5 -36.5h-34l10 206h217v-34z" />
    <glyph glyph-name="uni2159" unicode="&#x2159;" horiz-adv-x="631" 
d="M87 337v257q-4 -9 -18 -9h-69v35h69q8 0 13.5 7t5.5 16v58h35v-364h-36zM15 0l444 700h43l-444 -700h-43zM381.5 317q38.5 53 104.5 53q46 0 79.5 -27.5t40.5 -76.5h-35q-7 35 -30 54t-55 19q-49 0 -78.5 -42t-29.5 -112q0 -15 2 -45q2 38 30 65.5t76 27.5q55 0 88.5 -33
t33.5 -86q0 -54 -34.5 -87t-91.5 -33q-70 0 -104.5 49t-34.5 132q0 89 38.5 142zM546.5 178.5q-24.5 24.5 -64.5 24.5q-41 0 -66 -24t-25 -64t25.5 -65t65.5 -25t64.5 24.5t24.5 64.5t-24.5 64.5z" />
    <glyph glyph-name="oneeighth" unicode="&#x215b;" horiz-adv-x="644" 
d="M87 337v257q-4 -9 -18 -9h-69v35h69q8 0 13.5 7t5.5 16v58h35v-364h-36zM15 0l444 700h43l-444 -700h-43zM377.5 156.5q23.5 25.5 60.5 32.5q-33 7 -53 29.5t-20 56.5q0 41 34.5 68t88.5 27q53 0 87.5 -27t34.5 -68q0 -33 -19.5 -55.5t-52.5 -30.5q37 -7 60 -32.5
t23 -61.5q0 -44 -37 -72.5t-96 -28.5t-96.5 28.5t-37.5 72.5q0 36 23.5 61.5zM549 320q-24 19 -61 19q-38 0 -62 -19t-24 -49q0 -31 24 -50t62 -19t61.5 19t23.5 50q0 30 -24 49zM556 151.5q-27 21.5 -68 21.5t-68.5 -21.5t-27.5 -53.5q0 -31 27.5 -52t68.5 -21t68 20.5
t27 52.5t-27 53.5z" />
    <glyph glyph-name="threeeighths" unicode="&#x215c;" horiz-adv-x="795" 
d="M70 679q34 29 89 29t89 -27.5t34 -71.5q0 -32 -20 -53t-52 -27q37 -7 59 -29.5t22 -58.5q0 -49 -36.5 -79t-96.5 -30q-63 0 -98 30t-35 85h36q1 -39 27.5 -60t70.5 -21q41 0 67.5 20.5t26.5 53.5t-27 52.5t-72 19.5h-23v27h23q40 0 65 18.5t25 48.5t-23.5 49t-60.5 19
q-40 0 -64 -20t-24 -54h-37q1 50 35 79zM166 0l444 700h43l-444 -700h-43zM528.5 156.5q23.5 25.5 60.5 32.5q-33 7 -53 29.5t-20 56.5q0 41 34.5 68t88.5 27q53 0 87.5 -27t34.5 -68q0 -33 -19.5 -55.5t-52.5 -30.5q37 -7 60 -32.5t23 -61.5q0 -44 -37 -72.5t-96 -28.5
t-96.5 28.5t-37.5 72.5q0 36 23.5 61.5zM700 320q-24 19 -61 19q-38 0 -62 -19t-24 -49q0 -31 24 -50t62 -19t61.5 19t23.5 50q0 30 -24 49zM707 151.5q-27 21.5 -68 21.5t-68.5 -21.5t-27.5 -53.5q0 -31 27.5 -52t68.5 -21t68 20.5t27 52.5t-27 53.5z" />
    <glyph glyph-name="fiveeighths" unicode="&#x215d;" horiz-adv-x="788" 
d="M262 666h-188l-8 -135q16 22 41.5 34t55.5 12q54 0 87.5 -34t33.5 -88q0 -55 -36 -90t-92 -35q-52 0 -87 29t-40 76h36q5 -32 30 -51.5t61 -19.5q39 0 64.5 25.5t25.5 65.5t-25 64.5t-66 24.5q-28 0 -50.5 -13.5t-35.5 -36.5h-34l10 206h217v-34zM159 0l444 700h43
l-444 -700h-43zM522.5 156.5q23.5 25.5 60.5 32.5q-33 7 -53 29.5t-20 56.5q0 41 34.5 68t88.5 27q53 0 87.5 -27t34.5 -68q0 -33 -19.5 -55.5t-52.5 -30.5q37 -7 60 -32.5t23 -61.5q0 -44 -37 -72.5t-96 -28.5t-96.5 28.5t-37.5 72.5q0 36 23.5 61.5zM694 320
q-24 19 -61 19q-38 0 -62 -19t-24 -49q0 -31 24 -50t62 -19t61.5 19t23.5 50q0 30 -24 49zM701 151.5q-27 21.5 -68 21.5t-68.5 -21.5t-27.5 -53.5q0 -31 27.5 -52t68.5 -21t68 20.5t27 52.5t-27 53.5z" />
    <glyph glyph-name="seveneighths" unicode="&#x215e;" horiz-adv-x="776" 
d="M24 700h255v-31l-176 -334h-40l176 332l-215 -1v34zM147 0l444 700h43l-444 -700h-43zM509.5 156.5q23.5 25.5 60.5 32.5q-33 7 -53 29.5t-20 56.5q0 41 34.5 68t88.5 27q53 0 87.5 -27t34.5 -68q0 -33 -19.5 -55.5t-52.5 -30.5q37 -7 60 -32.5t23 -61.5q0 -44 -37 -72.5
t-96 -28.5t-96.5 28.5t-37.5 72.5q0 36 23.5 61.5zM681 320q-24 19 -61 19q-38 0 -62 -19t-24 -49q0 -31 24 -50t62 -19t61.5 19t23.5 50q0 30 -24 49zM688 151.5q-27 21.5 -68 21.5t-68.5 -21.5t-27.5 -53.5q0 -31 27.5 -52t68.5 -21t68 20.5t27 52.5t-27 53.5z" />
    <glyph glyph-name="arrowleft" unicode="&#x2190;" horiz-adv-x="562" 
d="M10 268l258 259l32 -32l-204 -203h406v-47h-406l204 -204l-32 -32z" />
    <glyph glyph-name="arrowup" unicode="&#x2191;" horiz-adv-x="634" 
d="M576 256l-33 -33l-203 205v-428h-47v428l-203 -204l-32 32l258 257z" />
    <glyph glyph-name="arrowright" unicode="&#x2192;" horiz-adv-x="562" 
d="M552 269l-258 -259l-32 32l204 204h-406v47h406l-204 203l32 32z" />
    <glyph glyph-name="arrowdown" unicode="&#x2193;" horiz-adv-x="634" 
d="M576 251l-260 -257l-258 257l32 32l203 -204v428h47v-428l203 205z" />
    <glyph glyph-name="arrowboth" unicode="&#x2194;" horiz-adv-x="853" 
d="M553 515l246 -247l-246 -247l-32 32l193 192h-575l193 -192l-32 -32l-246 247l246 247l32 -32l-193 -191h575l-193 191z" />
    <glyph glyph-name="arrowupdn" unicode="&#x2195;" horiz-adv-x="602" 
d="M54 469l247 246l247 -246l-32 -32l-192 193v-563l192 193l32 -32l-247 -246l-247 246l32 32l191 -193v563l-191 -193z" />
    <glyph glyph-name="uni2196" unicode="&#x2196;" horiz-adv-x="489" 
d="M58 507h365v-45l-289 2l289 -288l-34 -33l-288 289l2 -291h-45v366z" />
    <glyph glyph-name="uni2197" unicode="&#x2197;" horiz-adv-x="489" 
d="M431 507v-366h-45l2 291l-288 -289l-34 33l289 288l-289 -2v45h365z" />
    <glyph glyph-name="uni2198" unicode="&#x2198;" horiz-adv-x="489" 
d="M66 44l290 -2l-290 288l34 34l288 -290l-2 291h45v-366h-365v45z" />
    <glyph glyph-name="uni2199" unicode="&#x2199;" horiz-adv-x="489" 
d="M103 365l-1 -290l287 289l34 -33l-290 -288l291 2v-46h-366v366h45z" />
    <glyph glyph-name="partialdiff" unicode="&#x2202;" horiz-adv-x="583" 
d="M76 354q31 53 84 82.5t118 29.5q62 0 113 -25t76 -70q-26 114 -109 195t-240 95v45q142 -9 235 -76.5t135.5 -166.5t42.5 -206q0 -78 -29.5 -137.5t-84.5 -92.5t-131 -33q-70 0 -125 30.5t-85.5 85t-30.5 122.5q0 69 31 122zM425.5 95q52.5 56 52.5 149q0 55 -26.5 96
t-70 62t-95.5 21q-55 0 -98 -24.5t-67 -68t-24 -98.5t24 -99t67 -69t98 -25q87 0 139.5 56z" />
    <glyph glyph-name="emptyset" unicode="&#x2205;" horiz-adv-x="613" 
d="M546 456q20 -48 20 -102q0 -73 -34 -132.5t-93.5 -93.5t-131.5 -34q-50 0 -94.5 16.5t-79.5 47.5l-53 -57l-28 27l54 58q-28 35 -43 77.5t-15 90.5q0 72 34 131.5t93.5 93.5t131.5 34q85 0 154 -48l52 56l28 -27l-51 -54q36 -36 56 -84zM141 224l286 305q-51 39 -120 39
q-58 0 -105 -28.5t-74.5 -77.5t-27.5 -108q0 -73 41 -130zM411.5 168.5q47.5 28.5 75 77.5t27.5 108q0 43 -15 81.5t-42 68.5l-290 -310q59 -54 140 -54q57 0 104.5 28.5z" />
    <glyph glyph-name="uni2206" unicode="&#x2206;" horiz-adv-x="660" 
d="M25 0v44l271 656h67l271 -656v-44h-609zM83 49h490l-246 595z" />
    <glyph glyph-name="product" unicode="&#x220f;" horiz-adv-x="716" 
d="M685 700v-50h-93v-756h-54v756h-360v-756h-54v756h-93v50h654z" />
    <glyph glyph-name="summation" unicode="&#x2211;" horiz-adv-x="611" 
d="M42 -61l295 367l-274 349v45h500v-49h-429l256 -327v-35l-280 -347h461v-48h-529v45z" />
    <glyph glyph-name="minus" unicode="&#x2212;" 
d="M66 266v43h396v-43h-396z" />
    <glyph glyph-name="radical" unicode="&#x221a;" horiz-adv-x="558" 
d="M99 388l-68 -32l-17 41l113 52l155 -386l192 637h51l-212 -700h-55z" />
    <glyph glyph-name="infinity" unicode="&#x221e;" horiz-adv-x="778" 
d="M478.5 134q-40.5 30 -90.5 108q-50 -78 -90 -108t-93 -30q-74 0 -118.5 50t-44.5 127t44.5 127t118.5 50q53 0 93.5 -30t89.5 -107q50 77 90.5 107t93.5 30q74 0 118.5 -50t44.5 -127t-44.5 -127t-118.5 -50q-53 0 -93.5 30zM283.5 177.5q33.5 27.5 78.5 102.5
q-46 76 -79 104t-76 28q-53 0 -85.5 -35.5t-32.5 -95.5t32 -95.5t86 -35.5q43 0 76.5 27.5zM492 178.5q34 -28.5 77 -28.5q54 0 86 35.5t32 95.5t-32.5 95.5t-85.5 35.5q-43 0 -77 -28t-78 -102q44 -75 78 -103.5z" />
    <glyph glyph-name="integral" unicode="&#x222b;" horiz-adv-x="380" 
d="M94 -59q38 0 54.5 16t16.5 54v571q0 61 28 89.5t90 28.5h65v-47h-62q-38 0 -54 -16t-16 -54v-571q0 -61 -28 -89.5t-91 -28.5h-65v47h62z" />
    <glyph glyph-name="approxequal" unicode="&#x2248;" 
d="M72 103q0 57 29.5 90.5t77.5 33.5q31 0 52.5 -11t46.5 -32q21 -17 35 -25t33 -8q34 0 51 21.5t17 56.5h43q0 -57 -29 -90.5t-78 -33.5q-31 0 -52.5 11t-46.5 32q-21 17 -35 25t-33 8q-33 1 -50 -20.5t-17 -57.5h-44zM72 313q0 57 29.5 90.5t77.5 33.5q31 0 52.5 -11
t46.5 -32q21 -17 35 -25t33 -8q34 0 51 21.5t17 56.5h43q0 -57 -29 -90.5t-78 -33.5q-31 0 -52.5 11t-46.5 32q-21 17 -35 25t-33 8q-33 1 -50 -20.5t-17 -57.5h-44z" />
    <glyph glyph-name="notequal" unicode="&#x2260;" 
d="M452 355h-139l-55 -162h194v-43h-208l-36 -104h-45l35 104h-122v43h137l55 162h-192v44h207l34 101h46l-34 -101h123v-44z" />
    <glyph glyph-name="lessequal" unicode="&#x2264;" 
d="M79 299v50l371 173v-50l-314 -148l314 -147v-51zM79 0v44h371v-44h-371z" />
    <glyph glyph-name="greaterequal" unicode="&#x2265;" 
d="M450 349v-50l-371 -173v51l314 147l-314 148v50zM79 0v44h371v-44h-371z" />
    <glyph glyph-name="dotmath" unicode="&#x22c5;" horiz-adv-x="184" 
d="M64.5 318q10.5 10 27.5 10t27.5 -10t10.5 -27t-10.5 -27.5t-27.5 -10.5t-27.5 10.5t-10.5 27.5t10.5 27z" />
    <glyph glyph-name="filledbox" unicode="&#x25a0;" horiz-adv-x="848" 
d="M72 700h704v-700h-704v700z" />
    <glyph glyph-name="uni25A1" unicode="&#x25a1;" horiz-adv-x="845" 
d="M72 700h701v-700h-701v700zM124 652v-604h597v604h-597z" />
    <glyph glyph-name="uni25AF" unicode="&#x25af;" horiz-adv-x="596" 
d="M72 700h452v-700h-452v700zM124 652v-604h347v604h-347z" />
    <glyph glyph-name="triagup" unicode="&#x25b2;" horiz-adv-x="884" 
d="M443 712l409 -712h-820z" />
    <glyph glyph-name="uni25B3" unicode="&#x25b3;" horiz-adv-x="884" 
d="M443 712l409 -712h-820zM443 615l-329 -568h656z" />
    <glyph glyph-name="uni25B6" unicode="&#x25b6;" horiz-adv-x="523" 
d="M60 506l446 -256l-446 -256v512z" />
    <glyph glyph-name="uni25B7" unicode="&#x25b7;" horiz-adv-x="527" 
d="M60 512l450 -258l-450 -259v517zM100 62l334 192l-334 192v-384z" />
    <glyph glyph-name="uni25C0" unicode="&#x25c0;" horiz-adv-x="523" 
d="M463 506v-512l-446 256z" />
    <glyph glyph-name="uni25C1" unicode="&#x25c1;" horiz-adv-x="527" 
d="M467 512v-517l-450 259zM427 62v384l-334 -192z" />
    <glyph glyph-name="lozenge" unicode="&#x25ca;" horiz-adv-x="579" 
d="M321 700l204 -350l-204 -351h-63l-204 351l204 350h63zM290 42l176 308l-176 308l-177 -308z" />
    <glyph glyph-name="circle" unicode="&#x25cb;" horiz-adv-x="812" 
d="M587.5 659q81.5 -47 129 -128.5t47.5 -180.5t-47.5 -180.5t-129 -128.5t-181.5 -47t-182 47t-129.5 128.5t-47.5 180.5t47.5 180.5t129.5 128.5t182 47t181.5 -47zM243 629.5q-73 -42.5 -115 -116t-42 -163.5t42 -163.5t115 -116t163 -42.5q89 0 162.5 42.5t115.5 116
t42 163.5t-42 163.5t-115.5 116t-162.5 42.5q-90 0 -163 -42.5z" />
    <glyph glyph-name="uni25CF" unicode="&#x25cf;" horiz-adv-x="807" 
d="M221.5 659.5q-81.5 -46.5 -128 -128t-46.5 -181.5t46.5 -181.5t128 -128t181.5 -46.5t181.5 46.5t128 128t46.5 181.5t-46.5 181.5t-128 128t-181.5 46.5t-181.5 -46.5z" />
    <glyph glyph-name="uni25FD" unicode="&#x25fd;" horiz-adv-x="627" 
d="M60 507h507v-508h-507v508zM101 467v-428h424v428h-424z" />
    <glyph glyph-name="uni25FE" unicode="&#x25fe;" horiz-adv-x="627" 
d="M60 507h507v-507h-507v507z" />
    <glyph glyph-name="uni262E" unicode="&#x262e;" horiz-adv-x="809" 
d="M93.5 532.5q46.5 81.5 128 127.5t182.5 46t182.5 -46t128 -127.5t46.5 -182.5t-46.5 -182.5t-128 -127.5t-182.5 -46t-182.5 46t-128 127.5t-46.5 182.5t46.5 182.5zM384 660q-83 -4 -149.5 -45.5t-104.5 -110.5t-38 -154q0 -57 19.5 -107t54.5 -88l218 224v281zM424 379
l218 -224q35 37 54.5 87.5t19.5 107.5q0 85 -37.5 154t-104.5 110.5t-150 45.5v-281zM424 40q59 3 110 24t89 58l-199 205v-287zM186 122q38 -37 89 -58t109 -24v286z" />
    <glyph glyph-name="uni26AA" unicode="&#x26aa;" horiz-adv-x="601" 
d="M430 476q59 -34 93.5 -93t34.5 -129t-34.5 -129t-93.5 -93.5t-130 -34.5q-70 0 -129 34.5t-93.5 93.5t-34.5 129t34.5 129t93.5 93t129 34q71 0 130 -34zM190 443q-50 -29 -79.5 -79.5t-29.5 -109.5q0 -60 29.5 -110t79.5 -79.5t110 -29.5t110.5 29.5t80 79.5t29.5 110
t-29.5 110t-80 79t-110.5 29t-110 -29z" />
    <glyph glyph-name="uni26AB" unicode="&#x26ab;" horiz-adv-x="601" 
d="M430 476q59 -34 93.5 -93t34.5 -129t-34.5 -129t-93.5 -93.5t-130 -34.5q-70 0 -129 34.5t-93.5 93.5t-34.5 129t34.5 129t93.5 93t129 34q71 0 130 -34z" />
    <glyph glyph-name="uni2713" unicode="&#x2713;" horiz-adv-x="1074" 
d="M32 349l37 38l312 -312l623 625l38 -38l-661 -662z" />
    <glyph glyph-name="uni2715" unicode="&#x2715;" horiz-adv-x="788" 
d="M82 700l312 -311l312 311l37 -38l-312 -311l312 -313l-37 -37l-312 311l-312 -311l-37 37l312 313l-312 311z" />
    <glyph glyph-name="uni2780" unicode="&#x2780;" horiz-adv-x="812" 
d="M587.5 659q81.5 -47 129 -128.5t47.5 -180.5t-47.5 -180.5t-129 -128.5t-181.5 -47t-182 47t-129.5 128.5t-47.5 180.5t47.5 180.5t129.5 128.5t182 47t181.5 -47zM243 629.5q-73 -42.5 -115 -116t-42 -163.5t42 -163.5t115 -116t163 -42.5q89 0 162.5 42.5t115.5 116
t42 163.5t-42 163.5t-115.5 116t-162.5 42.5q-90 0 -163 -42.5zM394 168v257q-4 -9 -18 -9h-69v35h69q8 0 13.5 7t5.5 16v58h35v-364h-36z" />
    <glyph glyph-name="uni2781" unicode="&#x2781;" horiz-adv-x="812" 
d="M587.5 659q81.5 -47 129 -128.5t47.5 -180.5t-47.5 -180.5t-129 -128.5t-181.5 -47t-182 47t-129.5 128.5t-47.5 180.5t47.5 180.5t129.5 128.5t182 47t181.5 -47zM243 629.5q-73 -42.5 -115 -116t-42 -163.5t42 -163.5t115 -116t163 -42.5q89 0 162.5 42.5t115.5 116
t42 163.5t-42 163.5t-115.5 116t-162.5 42.5q-90 0 -163 -42.5zM278 420q0 54 35 86t88 32q56 0 90 -30t34 -78q0 -37 -19 -64t-55 -58l-123 -105h201v-35h-255v34l150 125q32 27 47.5 50t15.5 52q0 33 -23.5 53.5t-61.5 20.5q-40 0 -64 -22.5t-24 -62.5v-6h-36v8z" />
    <glyph glyph-name="uni2782" unicode="&#x2782;" horiz-adv-x="812" 
d="M587.5 659q81.5 -47 129 -128.5t47.5 -180.5t-47.5 -180.5t-129 -128.5t-181.5 -47t-182 47t-129.5 128.5t-47.5 180.5t47.5 180.5t129.5 128.5t182 47t181.5 -47zM243 629.5q-73 -42.5 -115 -116t-42 -163.5t42 -163.5t115 -116t163 -42.5q89 0 162.5 42.5t115.5 116
t42 163.5t-42 163.5t-115.5 116t-162.5 42.5q-90 0 -163 -42.5zM316 509q34 29 89 29t89 -27.5t34 -71.5q0 -32 -20 -53t-52 -27q37 -7 59 -29.5t22 -58.5q0 -49 -36.5 -79t-96.5 -30q-63 0 -98 30t-35 85h36q1 -39 27.5 -60t70.5 -21q41 0 67.5 20.5t26.5 53.5t-27 52.5
t-72 19.5h-23v27h23q40 0 65 18.5t25 48.5t-23.5 49t-60.5 19q-40 0 -64 -20t-24 -54h-37q1 50 35 79z" />
    <glyph glyph-name="uni2783" unicode="&#x2783;" horiz-adv-x="812" 
d="M587.5 659q81.5 -47 129 -128.5t47.5 -180.5t-47.5 -180.5t-129 -128.5t-181.5 -47t-182 47t-129.5 128.5t-47.5 180.5t47.5 180.5t129.5 128.5t182 47t181.5 -47zM243 629.5q-73 -42.5 -115 -116t-42 -163.5t42 -163.5t115 -116t163 -42.5q89 0 162.5 42.5t115.5 116
t42 163.5t-42 163.5t-115.5 116t-162.5 42.5q-90 0 -163 -42.5zM427 532h44v-234h62v-34h-62v-96h-36v96h-192v34zM435 492l-152 -194h152v194z" />
    <glyph glyph-name="uni2784" unicode="&#x2784;" horiz-adv-x="812" 
d="M587.5 659q81.5 -47 129 -128.5t47.5 -180.5t-47.5 -180.5t-129 -128.5t-181.5 -47t-182 47t-129.5 128.5t-47.5 180.5t47.5 180.5t129.5 128.5t182 47t181.5 -47zM243 629.5q-73 -42.5 -115 -116t-42 -163.5t42 -163.5t115 -116t163 -42.5q89 0 162.5 42.5t115.5 116
t42 163.5t-42 163.5t-115.5 116t-162.5 42.5q-90 0 -163 -42.5zM516 498h-188l-8 -135q16 22 41.5 34t55.5 12q54 0 87.5 -34t33.5 -88q0 -55 -36 -90t-92 -35q-52 0 -87 29t-40 76h36q5 -32 30 -51.5t61 -19.5q39 0 64.5 25.5t25.5 65.5t-25 64.5t-66 24.5
q-28 0 -50.5 -13.5t-35.5 -36.5h-34l10 206h217v-34z" />
    <glyph glyph-name="uni2785" unicode="&#x2785;" horiz-adv-x="812" 
d="M587.5 659q81.5 -47 129 -128.5t47.5 -180.5t-47.5 -180.5t-129 -128.5t-181.5 -47t-182 47t-129.5 128.5t-47.5 180.5t47.5 180.5t129.5 128.5t182 47t181.5 -47zM243 629.5q-73 -42.5 -115 -116t-42 -163.5t42 -163.5t115 -116t163 -42.5q89 0 162.5 42.5t115.5 116
t42 163.5t-42 163.5t-115.5 116t-162.5 42.5q-90 0 -163 -42.5zM304.5 485q38.5 53 104.5 53q46 0 79.5 -27.5t40.5 -76.5h-35q-7 35 -30 54t-55 19q-49 0 -78.5 -42t-29.5 -112q0 -15 2 -45q2 38 30 65.5t76 27.5q55 0 88.5 -33t33.5 -86q0 -54 -34.5 -87t-91.5 -33
q-70 0 -104.5 49t-34.5 132q0 89 38.5 142zM469.5 346.5q-24.5 24.5 -64.5 24.5q-41 0 -66 -24t-25 -64t25.5 -65t65.5 -25t64.5 24.5t24.5 64.5t-24.5 64.5z" />
    <glyph glyph-name="uni2786" unicode="&#x2786;" horiz-adv-x="812" 
d="M587.5 659q81.5 -47 129 -128.5t47.5 -180.5t-47.5 -180.5t-129 -128.5t-181.5 -47t-182 47t-129.5 128.5t-47.5 180.5t47.5 180.5t129.5 128.5t182 47t181.5 -47zM243 629.5q-73 -42.5 -115 -116t-42 -163.5t42 -163.5t115 -116t163 -42.5q89 0 162.5 42.5t115.5 116
t42 163.5t-42 163.5t-115.5 116t-162.5 42.5q-90 0 -163 -42.5zM284 533h255v-31l-176 -334h-40l176 332l-215 -1v34z" />
    <glyph glyph-name="uni2787" unicode="&#x2787;" horiz-adv-x="812" 
d="M587.5 659q81.5 -47 129 -128.5t47.5 -180.5t-47.5 -180.5t-129 -128.5t-181.5 -47t-182 47t-129.5 128.5t-47.5 180.5t47.5 180.5t129.5 128.5t182 47t181.5 -47zM243 629.5q-73 -42.5 -115 -116t-42 -163.5t42 -163.5t115 -116t163 -42.5q89 0 162.5 42.5t115.5 116
t42 163.5t-42 163.5t-115.5 116t-162.5 42.5q-90 0 -163 -42.5zM295.5 324.5q23.5 25.5 60.5 32.5q-33 7 -53 29.5t-20 56.5q0 41 34.5 68t88.5 27q53 0 87.5 -27t34.5 -68q0 -33 -19.5 -55.5t-52.5 -30.5q37 -7 60 -32.5t23 -61.5q0 -44 -37 -72.5t-96 -28.5t-96.5 28.5
t-37.5 72.5q0 36 23.5 61.5zM467 488q-24 19 -61 19q-38 0 -62 -19t-24 -49q0 -31 24 -50t62 -19t61.5 19t23.5 50q0 30 -24 49zM474 319.5q-27 21.5 -68 21.5t-68.5 -21.5t-27.5 -53.5q0 -31 27.5 -52t68.5 -21t68 20.5t27 52.5t-27 53.5z" />
    <glyph glyph-name="uni2788" unicode="&#x2788;" horiz-adv-x="812" 
d="M587.5 659q81.5 -47 129 -128.5t47.5 -180.5t-47.5 -180.5t-129 -128.5t-181.5 -47t-182 47t-129.5 128.5t-47.5 180.5t47.5 180.5t129.5 128.5t182 47t181.5 -47zM243 629.5q-73 -42.5 -115 -116t-42 -163.5t42 -163.5t115 -116t163 -42.5q89 0 162.5 42.5t115.5 116
t42 163.5t-42 163.5t-115.5 116t-162.5 42.5q-90 0 -163 -42.5zM500 215q-39 -53 -105 -53q-45 0 -78.5 27.5t-40.5 76.5h35q7 -35 30 -54t55 -19q49 0 78.5 42t29.5 112q0 15 -2 45q-2 -38 -30 -65.5t-76 -27.5q-55 0 -88.5 33t-33.5 86q0 54 34.5 87t91.5 33
q70 0 104.5 -49t34.5 -132q0 -89 -39 -142zM335.5 353.5q24.5 -24.5 64.5 -24.5q41 0 66 24t25 64t-25.5 65t-65.5 25t-64.5 -24.5t-24.5 -64.5t24.5 -64.5z" />
    <glyph glyph-name="uni278A" unicode="&#x278a;" horiz-adv-x="807" 
d="M221.5 658.5q-81.5 -46.5 -128 -128t-46.5 -181.5t46.5 -181.5t128 -128t181.5 -46.5t181.5 46.5t128 128t46.5 181.5t-46.5 181.5t-128 128t-181.5 46.5t-181.5 -46.5zM391 167v257q-4 -9 -18 -9h-69v35h69q8 0 13.5 7t5.5 16v58h35v-364h-36z" />
    <glyph glyph-name="uni278B" unicode="&#x278b;" horiz-adv-x="807" 
d="M221.5 659.5q-81.5 -46.5 -128 -128t-46.5 -181.5t46.5 -181.5t128 -128t181.5 -46.5t181.5 46.5t128 128t46.5 181.5t-46.5 181.5t-128 128t-181.5 46.5t-181.5 -46.5zM275 420q0 54 35 86t88 32q56 0 90 -30t34 -78q0 -37 -19 -64t-55 -58l-123 -105h201v-35h-255v34
l150 125q32 27 47.5 50t15.5 52q0 33 -23.5 53.5t-61.5 20.5q-40 0 -64 -22.5t-24 -62.5v-6h-36v8z" />
    <glyph glyph-name="uni278C" unicode="&#x278c;" horiz-adv-x="807" 
d="M221.5 659.5q-81.5 -46.5 -128 -128t-46.5 -181.5t46.5 -181.5t128 -128t181.5 -46.5t181.5 46.5t128 128t46.5 181.5t-46.5 181.5t-128 128t-181.5 46.5t-181.5 -46.5zM313 509q34 29 89 29t89 -27.5t34 -71.5q0 -32 -20 -53t-52 -27q37 -7 59 -29.5t22 -58.5
q0 -49 -36.5 -79t-96.5 -30q-63 0 -98 30t-35 85h36q1 -39 27.5 -60t70.5 -21q41 0 67.5 20.5t26.5 53.5t-27 52.5t-72 19.5h-23v27h23q40 0 65 18.5t25 48.5t-23.5 49t-60.5 19q-40 0 -64 -20t-24 -54h-37q1 50 35 79z" />
    <glyph glyph-name="uni278D" unicode="&#x278d;" horiz-adv-x="807" 
d="M221.5 659.5q-81.5 -46.5 -128 -128t-46.5 -181.5t46.5 -181.5t128 -128t181.5 -46.5t181.5 46.5t128 128t46.5 181.5t-46.5 181.5t-128 128t-181.5 46.5t-181.5 -46.5zM424 532h44v-234h62v-34h-62v-96h-36v96h-192v34zM432 492l-152 -194h152v194z" />
    <glyph glyph-name="uni278E" unicode="&#x278e;" horiz-adv-x="807" 
d="M221.5 659.5q-81.5 -46.5 -128 -128t-46.5 -181.5t46.5 -181.5t128 -128t181.5 -46.5t181.5 46.5t128 128t46.5 181.5t-46.5 181.5t-128 128t-181.5 46.5t-181.5 -46.5zM513 498h-188l-8 -135q16 22 41.5 34t55.5 12q54 0 87.5 -34t33.5 -88q0 -55 -36 -90t-92 -35
q-52 0 -87 29t-40 76h36q5 -32 30 -51.5t61 -19.5q39 0 64.5 25.5t25.5 65.5t-25 64.5t-66 24.5q-28 0 -50.5 -13.5t-35.5 -36.5h-34l10 206h217v-34z" />
    <glyph glyph-name="uni278F" unicode="&#x278f;" horiz-adv-x="807" 
d="M221.5 659.5q-81.5 -46.5 -128 -128t-46.5 -181.5t46.5 -181.5t128 -128t181.5 -46.5t181.5 46.5t128 128t46.5 181.5t-46.5 181.5t-128 128t-181.5 46.5t-181.5 -46.5zM301.5 485q38.5 53 104.5 53q46 0 79.5 -27.5t40.5 -76.5h-35q-7 35 -30 54t-55 19q-49 0 -78.5 -42
t-29.5 -112q0 -15 2 -45q2 38 30 65.5t76 27.5q55 0 88.5 -33t33.5 -86q0 -54 -34.5 -87t-91.5 -33q-70 0 -104.5 49t-34.5 132q0 89 38.5 142zM466.5 346.5q-24.5 24.5 -64.5 24.5q-41 0 -66 -24t-25 -64t25.5 -65t65.5 -25t64.5 24.5t24.5 64.5t-24.5 64.5z" />
    <glyph glyph-name="uni2790" unicode="&#x2790;" horiz-adv-x="807" 
d="M221.5 659.5q-81.5 -46.5 -128 -128t-46.5 -181.5t46.5 -181.5t128 -128t181.5 -46.5t181.5 46.5t128 128t46.5 181.5t-46.5 181.5t-128 128t-181.5 46.5t-181.5 -46.5zM281 533h255v-31l-176 -334h-40l176 332l-215 -1v34z" />
    <glyph glyph-name="uni2791" unicode="&#x2791;" horiz-adv-x="807" 
d="M221.5 659.5q-81.5 -46.5 -128 -128t-46.5 -181.5t46.5 -181.5t128 -128t181.5 -46.5t181.5 46.5t128 128t46.5 181.5t-46.5 181.5t-128 128t-181.5 46.5t-181.5 -46.5zM292.5 324.5q23.5 25.5 60.5 32.5q-33 7 -53 29.5t-20 56.5q0 41 34.5 68t88.5 27q53 0 87.5 -27
t34.5 -68q0 -33 -19.5 -55.5t-52.5 -30.5q37 -7 60 -32.5t23 -61.5q0 -44 -37 -72.5t-96 -28.5t-96.5 28.5t-37.5 72.5q0 36 23.5 61.5zM464 488q-24 19 -61 19q-38 0 -62 -19t-24 -49q0 -31 24 -50t62 -19t61.5 19t23.5 50q0 30 -24 49zM471 319.5q-27 21.5 -68 21.5
t-68.5 -21.5t-27.5 -53.5q0 -31 27.5 -52t68.5 -21t68 20.5t27 52.5t-27 53.5z" />
    <glyph glyph-name="uni2792" unicode="&#x2792;" horiz-adv-x="807" 
d="M221.5 659.5q-81.5 -46.5 -128 -128t-46.5 -181.5t46.5 -181.5t128 -128t181.5 -46.5t181.5 46.5t128 128t46.5 181.5t-46.5 181.5t-128 128t-181.5 46.5t-181.5 -46.5zM497 215q-39 -53 -105 -53q-45 0 -78.5 27.5t-40.5 76.5h35q7 -35 30 -54t55 -19q49 0 78.5 42
t29.5 112q0 15 -2 45q-2 -38 -30 -65.5t-76 -27.5q-55 0 -88.5 33t-33.5 86q0 54 34.5 87t91.5 33q70 0 104.5 -49t34.5 -132q0 -89 -39 -142zM332.5 353.5q24.5 -24.5 64.5 -24.5q41 0 66 24t25 64t-25.5 65t-65.5 25t-64.5 -24.5t-24.5 -64.5t24.5 -64.5z" />
    <glyph glyph-name="fl" unicode="&#xfb02;" horiz-adv-x="465" 
d="M94 507v75q0 61 28 89.5t91 28.5h85v-47h-83q-38 0 -54 -16t-16 -54v-76h152v-47h-152v-460h-51v460h-96v47h96zM354 700h51v-700h-51v700z" />
    <glyph glyph-name="u1F10B" unicode="&#x1f10b;" horiz-adv-x="812" 
d="M587.5 659q81.5 -47 129 -128.5t47.5 -180.5t-47.5 -180.5t-129 -128.5t-181.5 -47t-182 47t-129.5 128.5t-47.5 180.5t47.5 180.5t129.5 128.5t182 47t181.5 -47zM243 629.5q-73 -42.5 -115 -116t-42 -163.5t42 -163.5t115 -116t163 -42.5q89 0 162.5 42.5t115.5 116
t42 163.5t-42 163.5t-115.5 116t-162.5 42.5q-90 0 -163 -42.5zM303.5 485.5q38.5 52.5 102.5 52.5t102 -52.5t38 -135.5t-38 -135.5t-102 -52.5t-102.5 52.5t-38.5 135.5t38.5 135.5zM481 460q-28 43 -75 43t-75.5 -43t-28.5 -110t28.5 -110t75.5 -43t75 43t28 110t-28 110
z" />
    <glyph glyph-name="u1F10C" unicode="&#x1f10c;" horiz-adv-x="807" 
d="M221.5 659.5q-81.5 -46.5 -128 -128t-46.5 -181.5t46.5 -181.5t128 -128t181.5 -46.5t181.5 46.5t128 128t46.5 181.5t-46.5 181.5t-128 128t-181.5 46.5t-181.5 -46.5zM300.5 485.5q38.5 52.5 102.5 52.5t102 -52.5t38 -135.5t-38 -135.5t-102 -52.5t-102.5 52.5
t-38.5 135.5t38.5 135.5zM478 460q-28 43 -75 43t-75.5 -43t-28.5 -110t28.5 -110t75.5 -43t75 43t28 110t-28 110z" />
    <glyph glyph-name="J.ss06" horiz-adv-x="562" 
d="M89 248q0 -96 45.5 -150t128.5 -54q88 0 132.5 49t44.5 161v446h54v-445q0 -137 -59 -199t-172 -62q-109 0 -169 66t-59 188h54z" />
    <glyph glyph-name="Jcircumflex.ss06" horiz-adv-x="562" 
d="M89 248q0 -96 45.5 -150t128.5 -54q88 0 132.5 49t44.5 161v446h54v-445q0 -137 -59 -199t-172 -62q-109 0 -169 66t-59 188h54zM468 862l-102 -99h-50l127 133h50l127 -133h-51z" />
    <glyph glyph-name="Q.ss07" horiz-adv-x="749" 
d="M656.5 161q-44.5 -83 -122.5 -127l70 -112h-55l-58 92q-54 -20 -117 -20q-95 0 -169.5 45.5t-116 127t-41.5 183.5t41.5 183.5t116 127t169.5 45.5t169.5 -45.5t116 -127t41.5 -183.5q0 -106 -44.5 -189zM464 59l-94 150h55l82 -131q65 37 102 108.5t37 163.5
q0 89 -34.5 158.5t-96.5 108.5t-141 39t-140.5 -39t-96 -108.5t-34.5 -158.5t34.5 -158.5t96 -108.5t140.5 -39q48 0 90 15z" />
    <glyph glyph-name="a.ss01" horiz-adv-x="587" 
d="M527 507v-507h-44l-8 116q-25 -55 -75 -88.5t-118 -33.5q-69 0 -123.5 32t-85 90.5t-30.5 137.5q0 75 30.5 134t85 92t123.5 33t119 -32.5t74 -87.5l8 114h44zM385.5 67q43.5 27 67.5 75.5t24 110.5t-24 111t-67.5 76.5t-99.5 27.5t-99.5 -27.5t-67.5 -76t-24 -110.5
t24 -111t67.5 -76t99.5 -27t99.5 27z" />
    <glyph glyph-name="a.ss02" horiz-adv-x="515" 
d="M408.5 466.5q52.5 -46.5 52.5 -130.5v-336h-44l-5 99q-25 -48 -72 -76.5t-118 -28.5q-83 0 -132.5 39t-49.5 105q0 73 51.5 112.5t146.5 39.5h172v49q0 60 -40 94.5t-111 34.5q-61 0 -100 -28t-49 -75h-51q10 69 63.5 108.5t138.5 39.5q95 0 147.5 -46.5zM410 246h-177
q-67 0 -104 -27.5t-37 -78.5q0 -46 36 -74t98 -28q85 0 133.5 44t50.5 116v48z" />
    <glyph glyph-name="aacute.ss01" horiz-adv-x="587" 
d="M527 507v-507h-44l-8 116q-25 -55 -75 -88.5t-118 -33.5q-69 0 -123.5 32t-85 90.5t-30.5 137.5q0 75 30.5 134t85 92t123.5 33t119 -32.5t74 -87.5l8 114h44zM385.5 67q43.5 27 67.5 75.5t24 110.5t-24 111t-67.5 76.5t-99.5 27.5t-99.5 -27.5t-67.5 -76t-24 -110.5
t24 -111t67.5 -76t99.5 -27t99.5 27zM267 571l91 132h60l-110 -132h-41z" />
    <glyph glyph-name="aacute.ss02" horiz-adv-x="515" 
d="M408.5 466.5q52.5 -46.5 52.5 -130.5v-336h-44l-5 99q-25 -48 -72 -76.5t-118 -28.5q-83 0 -132.5 39t-49.5 105q0 73 51.5 112.5t146.5 39.5h172v49q0 60 -40 94.5t-111 34.5q-61 0 -100 -28t-49 -75h-51q10 69 63.5 108.5t138.5 39.5q95 0 147.5 -46.5zM410 246h-177
q-67 0 -104 -27.5t-37 -78.5q0 -46 36 -74t98 -28q85 0 133.5 44t50.5 116v48zM240 571l91 132h60l-110 -132h-41z" />
    <glyph glyph-name="abreve.ss01" horiz-adv-x="587" 
d="M527 507v-507h-44l-8 116q-25 -55 -75 -88.5t-118 -33.5q-69 0 -123.5 32t-85 90.5t-30.5 137.5q0 75 30.5 134t85 92t123.5 33t119 -32.5t74 -87.5l8 114h44zM385.5 67q43.5 27 67.5 75.5t24 110.5t-24 111t-67.5 76.5t-99.5 27.5t-99.5 -27.5t-67.5 -76t-24 -110.5
t24 -111t67.5 -76t99.5 -27t99.5 27zM201 703q0 -38 23.5 -62.5t60.5 -24.5q38 0 62 24.5t24 62.5h41q-1 -57 -36.5 -92t-91.5 -35q-55 0 -89 34.5t-35 92.5h41z" />
    <glyph glyph-name="abreve.ss02" horiz-adv-x="515" 
d="M408.5 466.5q52.5 -46.5 52.5 -130.5v-336h-44l-5 99q-25 -48 -72 -76.5t-118 -28.5q-83 0 -132.5 39t-49.5 105q0 73 51.5 112.5t146.5 39.5h172v49q0 60 -40 94.5t-111 34.5q-61 0 -100 -28t-49 -75h-51q10 69 63.5 108.5t138.5 39.5q95 0 147.5 -46.5zM410 246h-177
q-67 0 -104 -27.5t-37 -78.5q0 -46 36 -74t98 -28q85 0 133.5 44t50.5 116v48zM174 703q0 -38 23.5 -62.5t60.5 -24.5q38 0 62 24.5t24 62.5h41q-1 -57 -36.5 -92t-91.5 -35q-55 0 -89 34.5t-35 92.5h41z" />
    <glyph glyph-name="acircumflex.ss01" horiz-adv-x="587" 
d="M527 507v-507h-44l-8 116q-25 -55 -75 -88.5t-118 -33.5q-69 0 -123.5 32t-85 90.5t-30.5 137.5q0 75 30.5 134t85 92t123.5 33t119 -32.5t74 -87.5l8 114h44zM385.5 67q43.5 27 67.5 75.5t24 110.5t-24 111t-67.5 76.5t-99.5 27.5t-99.5 -27.5t-67.5 -76t-24 -110.5
t24 -111t67.5 -76t99.5 -27t99.5 27zM286 669l-102 -99h-50l127 133h50l127 -133h-51z" />
    <glyph glyph-name="acircumflex.ss02" horiz-adv-x="515" 
d="M408.5 466.5q52.5 -46.5 52.5 -130.5v-336h-44l-5 99q-25 -48 -72 -76.5t-118 -28.5q-83 0 -132.5 39t-49.5 105q0 73 51.5 112.5t146.5 39.5h172v49q0 60 -40 94.5t-111 34.5q-61 0 -100 -28t-49 -75h-51q10 69 63.5 108.5t138.5 39.5q95 0 147.5 -46.5zM410 246h-177
q-67 0 -104 -27.5t-37 -78.5q0 -46 36 -74t98 -28q85 0 133.5 44t50.5 116v48zM259 669l-102 -99h-50l127 133h50l127 -133h-51z" />
    <glyph glyph-name="adieresis.ss01" horiz-adv-x="587" 
d="M527 507v-507h-44l-8 116q-25 -55 -75 -88.5t-118 -33.5q-69 0 -123.5 32t-85 90.5t-30.5 137.5q0 75 30.5 134t85 92t123.5 33t119 -32.5t74 -87.5l8 114h44zM385.5 67q43.5 27 67.5 75.5t24 110.5t-24 111t-67.5 76.5t-99.5 27.5t-99.5 -27.5t-67.5 -76t-24 -110.5
t24 -111t67.5 -76t99.5 -27t99.5 27zM177 672q10 10 25 10q16 0 26 -10t10 -25t-10 -25t-26 -10q-15 0 -25 10t-10 25t10 25zM344.5 672q10.5 10 25.5 10t25 -10t10 -25t-10 -25t-25 -10t-25.5 10t-10.5 25t10.5 25z" />
    <glyph glyph-name="adieresis.ss02" horiz-adv-x="515" 
d="M408.5 466.5q52.5 -46.5 52.5 -130.5v-336h-44l-5 99q-25 -48 -72 -76.5t-118 -28.5q-83 0 -132.5 39t-49.5 105q0 73 51.5 112.5t146.5 39.5h172v49q0 60 -40 94.5t-111 34.5q-61 0 -100 -28t-49 -75h-51q10 69 63.5 108.5t138.5 39.5q95 0 147.5 -46.5zM410 246h-177
q-67 0 -104 -27.5t-37 -78.5q0 -46 36 -74t98 -28q85 0 133.5 44t50.5 116v48zM150 672q10 10 25 10q16 0 26 -10t10 -25t-10 -25t-26 -10q-15 0 -25 10t-10 25t10 25zM317.5 672q10.5 10 25.5 10t25 -10t10 -25t-10 -25t-25 -10t-25.5 10t-10.5 25t10.5 25z" />
    <glyph glyph-name="agrave.ss01" horiz-adv-x="587" 
d="M527 507v-507h-44l-8 116q-25 -55 -75 -88.5t-118 -33.5q-69 0 -123.5 32t-85 90.5t-30.5 137.5q0 75 30.5 134t85 92t123.5 33t119 -32.5t74 -87.5l8 114h44zM385.5 67q43.5 27 67.5 75.5t24 110.5t-24 111t-67.5 76.5t-99.5 27.5t-99.5 -27.5t-67.5 -76t-24 -110.5
t24 -111t67.5 -76t99.5 -27t99.5 27zM156 703h60l90 -132h-42z" />
    <glyph glyph-name="agrave.ss02" horiz-adv-x="515" 
d="M408.5 466.5q52.5 -46.5 52.5 -130.5v-336h-44l-5 99q-25 -48 -72 -76.5t-118 -28.5q-83 0 -132.5 39t-49.5 105q0 73 51.5 112.5t146.5 39.5h172v49q0 60 -40 94.5t-111 34.5q-61 0 -100 -28t-49 -75h-51q10 69 63.5 108.5t138.5 39.5q95 0 147.5 -46.5zM410 246h-177
q-67 0 -104 -27.5t-37 -78.5q0 -46 36 -74t98 -28q85 0 133.5 44t50.5 116v48zM129 703h60l90 -132h-42z" />
    <glyph glyph-name="amacron.ss01" horiz-adv-x="587" 
d="M527 507v-507h-44l-8 116q-25 -55 -75 -88.5t-118 -33.5q-69 0 -123.5 32t-85 90.5t-30.5 137.5q0 75 30.5 134t85 92t123.5 33t119 -32.5t74 -87.5l8 114h44zM385.5 67q43.5 27 67.5 75.5t24 110.5t-24 111t-67.5 76.5t-99.5 27.5t-99.5 -27.5t-67.5 -76t-24 -110.5
t24 -111t67.5 -76t99.5 -27t99.5 27zM158 629v39h256v-39h-256z" />
    <glyph glyph-name="amacron.ss02" horiz-adv-x="515" 
d="M408.5 466.5q52.5 -46.5 52.5 -130.5v-336h-44l-5 99q-25 -48 -72 -76.5t-118 -28.5q-83 0 -132.5 39t-49.5 105q0 73 51.5 112.5t146.5 39.5h172v49q0 60 -40 94.5t-111 34.5q-61 0 -100 -28t-49 -75h-51q10 69 63.5 108.5t138.5 39.5q95 0 147.5 -46.5zM410 246h-177
q-67 0 -104 -27.5t-37 -78.5q0 -46 36 -74t98 -28q85 0 133.5 44t50.5 116v48zM131 629v39h256v-39h-256z" />
    <glyph glyph-name="aogonek.ss01" horiz-adv-x="587" 
d="M535 -162v-38h-69q-42 0 -66.5 21t-24.5 57q0 37 27.5 67t79.5 67l-7 104q-25 -55 -75 -88.5t-118 -33.5q-69 0 -123.5 32t-85 90.5t-30.5 137.5q0 75 30.5 134t85 92t123.5 33t119 -32.5t74 -87.5l8 114h44v-507q-54 -34 -81.5 -59.5t-27.5 -55.5q0 -22 15 -34.5
t41 -12.5h61zM385.5 67q43.5 27 67.5 75.5t24 110.5t-24 111t-67.5 76.5t-99.5 27.5t-99.5 -27.5t-67.5 -76t-24 -110.5t24 -111t67.5 -76t99.5 -27t99.5 27z" />
    <glyph glyph-name="aogonek.ss02" horiz-adv-x="515" 
d="M470 -162v-38h-69q-42 0 -66.5 21t-24.5 57q0 37 27.5 67t78.5 66l-4 88q-25 -48 -72 -76.5t-118 -28.5q-83 0 -132.5 39t-49.5 105q0 73 51.5 112.5t146.5 39.5h172v49q0 60 -40 94.5t-111 34.5q-61 0 -100 -28t-49 -75h-51q10 69 63.5 108.5t138.5 39.5
q95 0 147.5 -46.5t52.5 -130.5v-336h1q-54 -34 -81.5 -59.5t-27.5 -55.5q0 -22 15 -34.5t41 -12.5h61zM410 246h-177q-67 0 -104 -27.5t-37 -78.5q0 -46 36 -74t98 -28q85 0 133.5 44t50.5 116v48z" />
    <glyph glyph-name="aring.ss01" horiz-adv-x="587" 
d="M527 507v-507h-44l-8 116q-25 -55 -75 -88.5t-118 -33.5q-69 0 -123.5 32t-85 90.5t-30.5 137.5q0 75 30.5 134t85 92t123.5 33t119 -32.5t74 -87.5l8 114h44zM385.5 67q43.5 27 67.5 75.5t24 110.5t-24 111t-67.5 76.5t-99.5 27.5t-99.5 -27.5t-67.5 -76t-24 -110.5
t24 -111t67.5 -76t99.5 -27t99.5 27zM207.5 744q32.5 32 78.5 32t78.5 -32t32.5 -77t-32.5 -77t-78.5 -32t-78.5 32t-32.5 77t32.5 77zM340.5 722.5q-22.5 22.5 -54.5 22.5t-54.5 -22.5t-22.5 -55.5t22.5 -55.5t54.5 -22.5t54.5 22.5t22.5 55.5t-22.5 55.5z" />
    <glyph glyph-name="aring.ss02" horiz-adv-x="515" 
d="M408.5 466.5q52.5 -46.5 52.5 -130.5v-336h-44l-5 99q-25 -48 -72 -76.5t-118 -28.5q-83 0 -132.5 39t-49.5 105q0 73 51.5 112.5t146.5 39.5h172v49q0 60 -40 94.5t-111 34.5q-61 0 -100 -28t-49 -75h-51q10 69 63.5 108.5t138.5 39.5q95 0 147.5 -46.5zM410 246h-177
q-67 0 -104 -27.5t-37 -78.5q0 -46 36 -74t98 -28q85 0 133.5 44t50.5 116v48zM180.5 744q32.5 32 78.5 32t78.5 -32t32.5 -77t-32.5 -77t-78.5 -32t-78.5 32t-32.5 77t32.5 77zM313.5 722.5q-22.5 22.5 -54.5 22.5t-54.5 -22.5t-22.5 -55.5t22.5 -55.5t54.5 -22.5
t54.5 22.5t22.5 55.5t-22.5 55.5z" />
    <glyph glyph-name="atilde.ss01" horiz-adv-x="587" 
d="M527 507v-507h-44l-8 116q-25 -55 -75 -88.5t-118 -33.5q-69 0 -123.5 32t-85 90.5t-30.5 137.5q0 75 30.5 134t85 92t123.5 33t119 -32.5t74 -87.5l8 114h44zM385.5 67q43.5 27 67.5 75.5t24 110.5t-24 111t-67.5 76.5t-99.5 27.5t-99.5 -27.5t-67.5 -76t-24 -110.5
t24 -111t67.5 -76t99.5 -27t99.5 27zM200.5 643.5q-10.5 -15.5 -10.5 -37.5h-33v8q0 35 19.5 57.5t53.5 22.5q23 0 37 -8.5t29 -23.5q13 -13 22 -19t23 -6q20 0 30 15.5t10 36.5h34v-7q0 -35 -19.5 -57.5t-53.5 -22.5q-23 0 -36.5 8t-29.5 24q-13 13 -22 19t-23 6
q-20 0 -30.5 -15.5z" />
    <glyph glyph-name="atilde.ss02" horiz-adv-x="515" 
d="M408.5 466.5q52.5 -46.5 52.5 -130.5v-336h-44l-5 99q-25 -48 -72 -76.5t-118 -28.5q-83 0 -132.5 39t-49.5 105q0 73 51.5 112.5t146.5 39.5h172v49q0 60 -40 94.5t-111 34.5q-61 0 -100 -28t-49 -75h-51q10 69 63.5 108.5t138.5 39.5q95 0 147.5 -46.5zM410 246h-177
q-67 0 -104 -27.5t-37 -78.5q0 -46 36 -74t98 -28q85 0 133.5 44t50.5 116v48zM173.5 643.5q-10.5 -15.5 -10.5 -37.5h-33v8q0 35 19.5 57.5t53.5 22.5q23 0 37 -8.5t29 -23.5q13 -13 22 -19t23 -6q20 0 30 15.5t10 36.5h34v-7q0 -35 -19.5 -57.5t-53.5 -22.5q-23 0 -36.5 8
t-29.5 24q-13 13 -22 19t-23 6q-20 0 -30.5 -15.5z" />
    <glyph glyph-name="f.calt" horiz-adv-x="260" 
d="M88 671.5q28 28.5 90 28.5h86v-47h-83q-38 0 -54 -16t-16 -54v-76h152v-47h-152v-460h-51v582q0 61 28 89.5z" />
    <glyph glyph-name="i.ss03" horiz-adv-x="193" 
d="M133.5 683q10.5 -10 10.5 -26t-10.5 -26t-25.5 -10q-16 0 -26 10t-10 26t10 26t26 10q15 0 25.5 -10zM82 460h-79v47h130v-507h-51v460z" />
    <glyph glyph-name="dotlessi.ss03" horiz-adv-x="193" 
d="M3 507h130v-507h-51v460h-79v47z" />
    <glyph glyph-name="iacute.ss03" horiz-adv-x="193" 
d="M3 507h130v-507h-51v460h-79v47zM87 571l91 132h60l-110 -132h-41z" />
    <glyph glyph-name="ibreve.ss03" horiz-adv-x="193" 
d="M3 507h130v-507h-51v460h-79v47zM21 703q0 -38 23.5 -62.5t60.5 -24.5q38 0 62 24.5t24 62.5h41q-1 -57 -36.5 -92t-91.5 -35q-55 0 -89 34.5t-35 92.5h41z" />
    <glyph glyph-name="icircumflex.ss03" horiz-adv-x="193" 
d="M3 507h130v-507h-51v460h-79v47zM106 669l-102 -99h-50l127 133h50l127 -133h-51z" />
    <glyph glyph-name="idieresis.ss03" horiz-adv-x="193" 
d="M3 507h130v-507h-51v460h-79v47zM-3 672q10 10 25 10q16 0 26 -10t10 -25t-10 -25t-26 -10q-15 0 -25 10t-10 25t10 25zM164.5 672q10.5 10 25.5 10t25 -10t10 -25t-10 -25t-25 -10t-25.5 10t-10.5 25t10.5 25z" />
    <glyph glyph-name="i.loclTRK" horiz-adv-x="171" 
d="M60 507h51v-507h-51v507zM61 683.5q10 9.5 25 9.5t25 -9.5t10 -24.5t-10 -25t-25 -10t-25 10t-10 25t10 24.5z" />
    <glyph glyph-name="i.loclTRK.ss03" horiz-adv-x="193" 
d="M3 507h130v-507h-51v460h-79v47zM81 683.5q10 9.5 25 9.5t25 -9.5t10 -24.5t-10 -25t-25 -10t-25 10t-10 25t10 24.5z" />
    <glyph glyph-name="igrave.ss03" horiz-adv-x="193" 
d="M3 507h130v-507h-51v460h-79v47zM-24 703h60l90 -132h-42z" />
    <glyph glyph-name="ij.ss03" horiz-adv-x="366" 
d="M111 683q10 -10 10 -26t-10 -26t-26 -10q-15 0 -25.5 10t-10.5 26t10.5 26t25.5 10q16 0 26 -10zM60 507h51v-507h-51v507zM255 683q10 10 26 10q15 0 25 -10t10 -26t-10 -26t-25 -10q-16 0 -26 10t-10 26t10 26zM185 -153q38 0 54 16t16 54v543h-80v47h131v-589
q0 -61 -28 -89.5t-90 -28.5h-71v47h68z" />
    <glyph glyph-name="ij.ss04" horiz-adv-x="342" 
d="M111 683q10 -10 10 -26t-10 -26t-26 -10q-15 0 -25.5 10t-10.5 26t10.5 26t25.5 10q16 0 26 -10zM60 507h51v-507h-51v507zM230.5 683q10.5 10 25.5 10q16 0 26 -10t10 -26t-10 -26t-26 -10q-15 0 -25.5 10t-10.5 26t10.5 26zM231 507h51v-707h-51v707z" />
    <glyph glyph-name="imacron.ss01" horiz-adv-x="193" 
d="M3 507h130v-507h-51v460h-79v47zM-22 629v39h256v-39h-256z" />
    <glyph glyph-name="iogonek.ss03" horiz-adv-x="193" 
d="M82 631q-10 10 -10 26t10 26t26 10q15 0 25.5 -10t10.5 -26t-10.5 -26t-25.5 -10q-16 0 -26 10zM40 -149.5q15 -12.5 41 -12.5h61v-38h-69q-42 0 -66.5 21t-24.5 57t26 65.5t74 63.5v453h-79v47h130v-507h1q-54 -34 -81.5 -59.5t-27.5 -55.5q0 -22 15 -34.5z" />
    <glyph glyph-name="itilde.ss03" horiz-adv-x="193" 
d="M3 507h130v-507h-51v460h-79v47zM20.5 643.5q-10.5 -15.5 -10.5 -37.5h-33v8q0 35 19.5 57.5t53.5 22.5q23 0 37 -8.5t29 -23.5q13 -13 22 -19t23 -6q20 0 30 15.5t10 36.5h34v-7q0 -35 -19.5 -57.5t-53.5 -22.5q-23 0 -36.5 8t-29.5 24q-13 13 -22 19t-23 6
q-20 0 -30.5 -15.5z" />
    <glyph glyph-name="j.short" horiz-adv-x="177" 
d="M65.5 683q10.5 10 25.5 10q16 0 26 -10t10 -26t-10 -26t-26 -10q-15 0 -25.5 10t-10.5 26t10.5 26zM-4 -153q38 0 54 16t16 54v590h51v-589q0 -61 -28 -89.5t-91 -28.5h-29v47h27z" />
    <glyph glyph-name="j.ss03" horiz-adv-x="195" 
d="M84 683q10 10 26 10q15 0 25 -10t10 -26t-10 -26t-25 -10q-16 0 -26 10t-10 26t10 26zM14 -153q38 0 54 16t16 54v543h-80v47h131v-589q0 -61 -28 -89.5t-90 -28.5h-71v47h68z" />
    <glyph glyph-name="j.ss04" horiz-adv-x="171" 
d="M59.5 683q10.5 10 25.5 10q16 0 26 -10t10 -26t-10 -26t-26 -10q-15 0 -25.5 10t-10.5 26t10.5 26zM60 507h51v-707h-51v707z" />
    <glyph glyph-name="uni0237.short" horiz-adv-x="177" 
d="M-4 -153q38 0 54 16t16 54v590h51v-589q0 -61 -28 -89.5t-91 -28.5h-29v47h27z" />
    <glyph glyph-name="uni0237.ss03" horiz-adv-x="195" 
d="M14 -153q38 0 54 16t16 54v543h-80v47h131v-589q0 -61 -28 -89.5t-90 -28.5h-71v47h68z" />
    <glyph glyph-name="uni0237.ss04" horiz-adv-x="171" 
d="M60 507h51v-707h-51v707z" />
    <glyph glyph-name="jcircumflex.short" horiz-adv-x="177" 
d="M-4 -153q38 0 54 16t16 54v590h51v-589q0 -61 -28 -89.5t-91 -28.5h-29v47h27zM92 669l-102 -99h-50l127 133h50l127 -133h-51z" />
    <glyph glyph-name="jcircumflex.ss03" horiz-adv-x="195" 
d="M14 -153q38 0 54 16t16 54v543h-80v47h131v-589q0 -61 -28 -89.5t-90 -28.5h-71v47h68zM110 669l-102 -99h-50l127 133h50l127 -133h-51z" />
    <glyph glyph-name="jcircumflex.ss04" horiz-adv-x="171" 
d="M60 507h51v-707h-51v707zM86 669l-102 -99h-50l127 133h50l127 -133h-51z" />
    <glyph glyph-name="t.calt" horiz-adv-x="265" 
d="M60 649h51v-142h135v-47h-135v-341q0 -39 16 -55.5t54 -16.5h74v-47h-77q-64 0 -91 28t-27 90v531z" />
    <glyph glyph-name="t.ss05" horiz-adv-x="289" 
d="M-2 507h97v142h51v-142h133v-47h-133v-460h-51v460h-97v47z" />
    <glyph glyph-name="tbar.calt" horiz-adv-x="265" 
d="M111 460v-152h135v-44h-135v-145q0 -39 16 -55.5t54 -16.5h74v-47h-77q-64 0 -91 28t-27 90v531h51v-142h135v-47h-135z" />
    <glyph glyph-name="tbar.ss05" horiz-adv-x="301" 
d="M283 460h-133v-156h133v-44h-133v-260h-51v260h-97v44h97v156h-97v47h97v142h51v-142h133v-47z" />
    <glyph glyph-name="tcaron.calt" horiz-adv-x="265" 
d="M60 649h51v-142h135v-47h-135v-341q0 -39 16 -55.5t54 -16.5h74v-47h-77q-64 0 -91 28t-27 90v531zM208 712h49l-53 -145h-38z" />
    <glyph glyph-name="tcaron.ss05" horiz-adv-x="289" 
d="M-2 507h97v142h51v-142h133v-47h-133v-460h-51v460h-97v47zM245 705h49l-53 -145h-38z" />
    <glyph glyph-name="uni0163.calt" horiz-adv-x="265" 
d="M60 649h51v-142h135v-47h-135v-341q0 -39 16 -55.5t54 -16.5h74v-47h-77q-64 0 -91 28t-27 90v531zM126 -53h50l-59 -141h-38z" />
    <glyph glyph-name="uni0163.ss05" horiz-adv-x="289" 
d="M-2 507h97v142h51v-142h133v-47h-133v-460h-51v460h-97v47zM94 -53h50l-59 -141h-38z" />
    <glyph glyph-name="uni021B.calt" horiz-adv-x="265" 
d="M60 649h51v-142h135v-47h-135v-341q0 -39 16 -55.5t54 -16.5h74v-47h-77q-64 0 -91 28t-27 90v531zM126 -53h50l-59 -141h-38z" />
    <glyph glyph-name="uni021B.ss05" horiz-adv-x="289" 
d="M-2 507h97v142h51v-142h133v-47h-133v-460h-51v460h-97v47zM94 -53h50l-59 -141h-38z" />
    <glyph glyph-name="y.ss01" horiz-adv-x="539" 
d="M479 507v-498q0 -102 -55 -158.5t-164 -56.5q-88 0 -142 41.5t-64 119.5h53q11 -56 51.5 -85.5t105.5 -29.5q79 0 121.5 43.5t42.5 125.5v109q-23 -57 -67.5 -89.5t-109.5 -32.5q-89 0 -142.5 56t-53.5 169v286h51v-283q0 -87 40.5 -134t112.5 -47q78 0 123.5 58.5
t45.5 156.5v249h51z" />
    <glyph glyph-name="yacute.ss01" horiz-adv-x="539" 
d="M479 507v-498q0 -102 -55 -158.5t-164 -56.5q-88 0 -142 41.5t-64 119.5h53q11 -56 51.5 -85.5t105.5 -29.5q79 0 121.5 43.5t42.5 125.5v109q-23 -57 -67.5 -89.5t-109.5 -32.5q-89 0 -142.5 56t-53.5 169v286h51v-283q0 -87 40.5 -134t112.5 -47q78 0 123.5 58.5
t45.5 156.5v249h51zM248 571l91 132h60l-110 -132h-41z" />
    <glyph glyph-name="ycircumflex.ss01" horiz-adv-x="539" 
d="M479 507v-498q0 -102 -55 -158.5t-164 -56.5q-88 0 -142 41.5t-64 119.5h53q11 -56 51.5 -85.5t105.5 -29.5q79 0 121.5 43.5t42.5 125.5v109q-23 -57 -67.5 -89.5t-109.5 -32.5q-89 0 -142.5 56t-53.5 169v286h51v-283q0 -87 40.5 -134t112.5 -47q78 0 123.5 58.5
t45.5 156.5v249h51zM267 669l-102 -99h-50l127 133h50l127 -133h-51z" />
    <glyph glyph-name="ydieresis.ss01" horiz-adv-x="539" 
d="M479 507v-498q0 -102 -55 -158.5t-164 -56.5q-88 0 -142 41.5t-64 119.5h53q11 -56 51.5 -85.5t105.5 -29.5q79 0 121.5 43.5t42.5 125.5v109q-23 -57 -67.5 -89.5t-109.5 -32.5q-89 0 -142.5 56t-53.5 169v286h51v-283q0 -87 40.5 -134t112.5 -47q78 0 123.5 58.5
t45.5 156.5v249h51zM158 672q10 10 25 10q16 0 26 -10t10 -25t-10 -25t-26 -10q-15 0 -25 10t-10 25t10 25zM325.5 672q10.5 10 25.5 10t25 -10t10 -25t-10 -25t-25 -10t-25.5 10t-10.5 25t10.5 25z" />
    <glyph glyph-name="ygrave.ss01" horiz-adv-x="539" 
d="M479 507v-498q0 -102 -55 -158.5t-164 -56.5q-88 0 -142 41.5t-64 119.5h53q11 -56 51.5 -85.5t105.5 -29.5q79 0 121.5 43.5t42.5 125.5v109q-23 -57 -67.5 -89.5t-109.5 -32.5q-89 0 -142.5 56t-53.5 169v286h51v-283q0 -87 40.5 -134t112.5 -47q78 0 123.5 58.5
t45.5 156.5v249h51zM137 703h60l90 -132h-42z" />
    <glyph glyph-name="w_w_w" horiz-adv-x="2184" 
d="M2121 507h52l-180 -507h-55l-143 426l-149 -426l-56 -1l-147 434l-154 -433h-55l-143 426l-149 -426l-56 -1l-147 433l-153 -432h-55l-143 426l-149 -426l-56 -1l-172 508h54l148 -446l153 446h48l144 -446l156 446h54l148 -446l153 446h48l144 -446l156 446h55l148 -446
l153 446h48l144 -446z" />
    <glyph glyph-name="zero.osf" horiz-adv-x="613" 
d="M82 385.5q34 59.5 93.5 93.5t131.5 34t131.5 -34t93.5 -93.5t34 -131.5q0 -73 -34 -132.5t-93.5 -93.5t-131.5 -34t-131.5 34t-93.5 93.5t-34 132.5q0 72 34 131.5zM486.5 362q-27.5 49 -74.5 77.5t-105 28.5t-105 -28.5t-74.5 -77.5t-27.5 -108t27.5 -108t74.5 -77.5
t105 -28.5q57 0 104.5 28.5t75 77.5t27.5 108t-27.5 108z" />
    <glyph glyph-name="one.osf" horiz-adv-x="267" 
d="M100 375q23 0 34.5 14t11.5 39v79h50v-507h-51v343q-16 -15 -45 -15h-97v47h97z" />
    <glyph glyph-name="two.osf" horiz-adv-x="502" 
d="M460 45v-45h-423v43l231 147q65 41 94.5 74.5t29.5 81.5q0 55 -40.5 88.5t-105.5 33.5q-67 0 -109.5 -39.5t-42.5 -102.5v-15h-52v15q0 54 25.5 96.5t72.5 66.5t107 24q58 0 103 -21t70 -58.5t25 -86.5q0 -54 -32 -94t-100 -83l-198 -125h345z" />
    <glyph glyph-name="three.osf" horiz-adv-x="560" 
d="M467 118q44 -42 44 -112q0 -56 -30 -100t-83.5 -68t-123.5 -24q-110 0 -174 56t-65 154h51q1 -78 51.5 -121t136.5 -43q81 0 133 41t52 108q0 63 -51 99t-136 36h-52v47h49q79 0 126 38.5t47 97.5q0 63 -46.5 101t-119.5 38q-77 0 -124 -40.5t-48 -107.5h-51q0 58 28 102
t79 68t117 24q65 0 114 -23t76 -63.5t27 -92.5q0 -64 -40 -108t-109 -55q78 -10 122 -52z" />
    <glyph glyph-name="four.osf" horiz-adv-x="575" 
d="M381 507h63v-460h113v-47h-113v-180h-50v180h-368v47zM394 452l-311 -405h311v405z" />
    <glyph glyph-name="five.osf" horiz-adv-x="576" 
d="M422.5 244.5q50.5 -29.5 78.5 -82t28 -118.5q0 -73 -31.5 -125t-85 -78.5t-117.5 -26.5q-69 0 -121 28.5t-81 76t-33 105.5h52q4 -45 27 -82t63 -59.5t93 -22.5q49 0 90.5 22t66.5 63.5t25 98.5q0 53 -22.5 95t-64 66t-95.5 24q-60 0 -105 -29t-67 -82l-51 2l25 387h389
v-48h-343l-20 -277q25 44 73.5 68t109.5 24q66 0 116.5 -29.5z" />
    <glyph glyph-name="six.osf" horiz-adv-x="586" 
d="M457 643q56 -51 69 -135h-51q-14 63 -55.5 101.5t-111.5 38.5q-104 0 -157 -79.5t-53 -212.5q0 -46 9 -90q2 22 4 31q15 70 71.5 111.5t134.5 41.5q66 0 115.5 -29t76 -80.5t26.5 -117.5q0 -67 -29 -119t-81.5 -81t-120.5 -29t-118.5 30.5t-81.5 85.5q-25 46 -39 108
t-14 129q0 158 65.5 252.5t192.5 94.5q92 0 148 -51zM214.5 382.5q-41.5 -22.5 -64.5 -63t-23 -92.5q0 -84 49 -136t129 -52t129 50.5t49 132.5t-47 132.5t-127 50.5q-53 0 -94.5 -22.5z" />
    <glyph glyph-name="seven.osf" horiz-adv-x="498" 
d="M16 507h454v-45l-335 -642h-57l335 640h-397v47z" />
    <glyph glyph-name="eight.osf" horiz-adv-x="583" 
d="M490.5 296q44.5 -46 44.5 -116q0 -54 -30 -96.5t-85 -66t-128 -23.5q-74 0 -129 23.5t-85 66t-30 96.5q0 69 44.5 115t115.5 59q-62 15 -101 57t-39 105q0 52 27.5 92.5t78.5 63t118 22.5t117.5 -22.5t78 -63t27.5 -92.5q0 -61 -39.5 -103.5t-99.5 -57.5
q70 -13 114.5 -59zM168 417q48 -38 124 -38q75 0 123 38t48 99q0 60 -48 98.5t-123 38.5q-76 0 -124 -38t-48 -99t48 -99zM390 55q44 19 68.5 52.5t24.5 76.5q0 42 -25 76t-68.5 53.5t-97.5 19.5q-55 0 -99 -19.5t-68.5 -53t-24.5 -76.5t24.5 -76.5t68.5 -52.5t99 -19
q54 0 98 19z" />
    <glyph glyph-name="nine.osf" horiz-adv-x="586" 
d="M521 290.5q14 -61.5 14 -128.5q0 -158 -65.5 -253t-192.5 -95q-92 0 -148 51t-70 136h51q14 -64 56 -102.5t112 -38.5q105 0 158 80t53 213q0 49 -10 90q-1 -17 -6 -33q-15 -70 -70.5 -110t-133.5 -40q-66 0 -115.5 28.5t-76 80t-26.5 117.5t29 118t81.5 80.5t120.5 28.5
t118.5 -30t81.5 -86q25 -45 39 -106.5zM149.5 155q47.5 -50 127.5 -50q81 0 131.5 50.5t50.5 130.5q0 81 -49 131.5t-130 50.5q-80 0 -129 -50.5t-49 -131.5t47.5 -131z" />
    <glyph glyph-name="one.osf.ss08" horiz-adv-x="600" 
d="M538 44v-44h-456v44h199v302q-16 -16 -45 -16h-132v42h132q23 0 34.5 14t11.5 38v83h50v-463h206z" />
    <glyph glyph-name="seven.osf.ss08" horiz-adv-x="531" 
d="M40 507h463v-45l-335 -642h-56l334 640h-361v-138h-45v185z" />
    <glyph glyph-name="four.osf.ss09" horiz-adv-x="519" 
d="M381 507h66v-687h-52v180h-369v47zM395 452l-312 -405h312v405z" />
    <glyph glyph-name="zero.osf.zero" horiz-adv-x="613" 
d="M438.5 479q59.5 -34 93.5 -93.5t34 -131.5q0 -73 -34 -132.5t-93.5 -93.5t-131.5 -34t-131.5 34t-93.5 93.5t-34 132.5q0 72 34 131.5t93.5 93.5t131.5 34t131.5 -34zM202 439.5q-47 -28.5 -74.5 -77.5t-27.5 -108q0 -78 46 -137l296 301q-28 24 -62.5 37t-72.5 13
q-58 0 -105 -28.5zM411.5 68.5q47.5 28.5 75 77.5t27.5 108q0 80 -47 138l-295 -302q28 -24 62.5 -37t72.5 -13q57 0 104.5 28.5z" />
    <glyph glyph-name="one.ss08" horiz-adv-x="516" 
d="M480 48v-48h-447v48h202v472q-13 -14 -40 -14h-125v47h120q23 0 34.5 14t11.5 39v94h51v-652h193z" />
    <glyph glyph-name="seven.ss08" horiz-adv-x="554" 
d="M527 700v-38l-359 -662h-56l358 652h-381v-138h-44v186h482z" />
    <glyph glyph-name="four.ss09" horiz-adv-x="546" 
d="M392 700h65v-700h-52v183h-381v48zM405 644l-323 -413h323v413z" />
    <glyph glyph-name="zero.tf" horiz-adv-x="600" 
d="M54 367q0 99 30 176.5t86 120.5t130 43t130 -43t86 -120.5t30 -176.5v-32q0 -99 -30 -176.5t-86 -120.5t-130 -43t-130 43t-86 120.5t-30 176.5v32zM495 365q0 86 -24 153t-68 104.5t-103 37.5t-103 -37.5t-68 -104.5t-24 -153v-28q0 -86 24 -152.5t68 -104t103 -37.5
t103 37.5t68 104t24 152.5v28z" />
    <glyph glyph-name="one.tf" horiz-adv-x="600" 
d="M537 48v-48h-447v48h202v472q-13 -14 -40 -14h-125v47h120q23 0 34.5 14t11.5 39v94h51v-652h193z" />
    <glyph glyph-name="two.tf" horiz-adv-x="600" 
d="M329 292q43 39 70 67.5t45 64.5t18 77q0 74 -47 116.5t-127 42.5q-78 0 -125 -47.5t-47 -128.5v-14h-52v17q0 65 27.5 115t78.5 77.5t118 27.5q106 0 167 -55t61 -148q0 -50 -20 -91.5t-50.5 -74t-82.5 -80.5l-233 -210h394v-48h-466v45z" />
    <glyph glyph-name="three.tf" horiz-adv-x="600" 
d="M495.5 307q47.5 -44 47.5 -117q0 -57 -31 -101.5t-87 -69.5t-128 -25q-111 0 -177.5 56.5t-66.5 154.5h53q1 -76 54 -120t140 -44q54 0 97 19.5t67.5 54t24.5 78.5q0 67 -52 104.5t-144 37.5h-54v45h51q84 0 132.5 40.5t48.5 103.5q0 60 -48 97.5t-124 37.5
q-78 0 -126 -39.5t-49 -107.5h-52q1 91 62.5 142.5t162.5 51.5q69 0 120 -22.5t79 -63.5t28 -94q0 -66 -40 -110t-109 -56q73 -9 120.5 -53z" />
    <glyph glyph-name="four.tf" horiz-adv-x="600" 
d="M29 231l364 469h62v-468h119v-48h-119v-184h-53v184h-373v47zM85 232h317v408z" />
    <glyph glyph-name="five.tf" horiz-adv-x="600" 
d="M435 434q51 -30 79.5 -83t28.5 -120q0 -74 -32.5 -127.5t-87 -81t-118.5 -27.5q-71 0 -124 28.5t-82.5 77.5t-33.5 108h52q7 -71 57 -119t131 -48q49 0 91.5 21.5t68 64.5t25.5 102q0 54 -22 96.5t-63.5 66.5t-95.5 24q-56 0 -106.5 -26.5t-71.5 -83.5l-51 2l25 391h393
v-48h-345l-20 -280q30 46 80.5 69t104.5 23q66 0 117 -30z" />
    <glyph glyph-name="six.tf" horiz-adv-x="600" 
d="M66 220.5q-13 61.5 -13 129.5q0 106 29.5 186.5t86.5 125t139 44.5q91 0 149 -51t72 -135h-53q-13 64 -56 102t-114 38q-101 0 -154.5 -83t-53.5 -218q0 -46 10 -90q0 17 2 27q14 74 70 118.5t138 44.5q67 0 118.5 -29t80 -81.5t28.5 -121.5q0 -67 -29.5 -120t-82.5 -83
t-122 -30q-71 0 -123.5 31t-83.5 88q-25 46 -38 107.5zM444.5 361.5q-48.5 51.5 -130.5 51.5q-54 0 -96.5 -24t-66 -66.5t-23.5 -96.5q0 -83 50.5 -134.5t132.5 -51.5t132 52t50 135t-48.5 134.5z" />
    <glyph glyph-name="seven.tf" horiz-adv-x="601" 
d="M59 700h484v-38l-363 -662h-57l363 652h-427v48z" />
    <glyph glyph-name="eight.tf" horiz-adv-x="600" 
d="M496.5 301.5q47.5 -47.5 47.5 -118.5q0 -55 -30 -98t-85.5 -67t-129.5 -24q-73 0 -128.5 24t-85.5 67t-30 98q0 71 46.5 118.5t122.5 60.5q-66 11 -107.5 55t-41.5 108q0 53 27.5 94.5t78.5 64.5t118 23t118 -23t78.5 -64.5t27.5 -94.5q0 -63 -42 -108t-107 -55
q75 -13 122.5 -60.5zM175 425.5q48 -38.5 124 -38.5t124.5 38.5t48.5 99.5t-48.5 99t-124.5 38t-124 -38t-48 -99t48 -99.5zM398 56.5q44 18.5 69 52t25 76.5t-25 77.5t-69 54t-99 19.5q-56 0 -99.5 -19.5t-68 -54t-24.5 -77.5t24.5 -76.5t68.5 -52t99 -18.5t99 18.5z" />
    <glyph glyph-name="nine.tf" horiz-adv-x="600" 
d="M531.5 480.5q13.5 -60.5 13.5 -124.5q0 -171 -67 -266.5t-189 -95.5q-91 0 -151.5 50t-73.5 138h52q14 -67 59 -104.5t116 -37.5q99 0 153 79.5t55 220.5q1 43 -9 91q0 -17 -2 -28q-14 -73 -70 -117.5t-137 -44.5q-67 0 -118.5 29t-80 81.5t-28.5 121.5q0 68 29.5 120.5
t83 82.5t122.5 30q70 0 123 -32t83 -88q23 -45 36.5 -105.5zM154 339q48 -51 130 -51q55 0 97 23.5t65.5 66t23.5 97.5q0 82 -49.5 133t-130.5 52q-84 0 -134 -51.5t-50 -135.5q0 -83 48 -134z" />
    <glyph glyph-name="seven.tf.ss08" horiz-adv-x="600" 
d="M541 700v-38l-359 -662h-56l358 652h-381v-138h-44v186h482z" />
    <glyph glyph-name="four.tf.ss09" horiz-adv-x="600" 
d="M418 700h65v-700h-52v183h-381v48zM431 644l-323 -413h323v413z" />
    <glyph glyph-name="zero.tf.zero" horiz-adv-x="600" 
d="M430 664q56 -43 86 -120.5t30 -176.5v-32q0 -99 -30 -176.5t-86 -120.5t-130 -43t-130 43t-86 120.5t-30 176.5v32q0 99 30 176.5t86 120.5t130 43t130 -43zM105 337q0 -78 20 -140l334 350q-25 54 -65.5 83.5t-93.5 29.5q-59 0 -103 -37.5t-68 -104.5t-24 -153v-28z
M495 365q0 74 -19 139l-334 -351q26 -53 66 -81.5t92 -28.5q59 0 103 37.5t68 104t24 152.5v28z" />
    <glyph glyph-name="zero.tosf" horiz-adv-x="600" 
d="M80 385.5q33 59.5 91 93.5t129 34t129 -34t91 -93.5t33 -132.5q0 -72 -33 -131.5t-91 -93.5t-129 -34t-129 34t-91 93.5t-33 131.5q0 73 33 132.5zM475 361q-27 49 -73 77.5t-102 28.5t-102 -28.5t-73 -77.5t-27 -108t27 -108t73 -77t102 -28t102 28t73 77t27 108
t-27 108z" />
    <glyph glyph-name="one.tosf" horiz-adv-x="600" 
d="M538 44v-44h-456v44h199v302q-16 -16 -45 -16h-132v42h132q23 0 34.5 14t11.5 38v83h50v-463h206z" />
    <glyph glyph-name="two.tosf" horiz-adv-x="600" 
d="M516 45v-45h-423v43l231 147q65 41 94.5 74.5t29.5 81.5q0 55 -40.5 88.5t-105.5 33.5q-67 0 -109.5 -39.5t-42.5 -102.5v-15h-52v15q0 54 25.5 96.5t72.5 66.5t107 24q58 0 103 -21t70 -58.5t25 -86.5q0 -54 -32 -94t-100 -83l-198 -125h345z" />
    <glyph glyph-name="three.tosf" horiz-adv-x="600" 
d="M492.5 114q47.5 -44 47.5 -117q0 -57 -31 -101.5t-87 -69.5t-128 -25q-111 0 -177.5 56.5t-66.5 154.5h53q1 -76 54 -120t140 -44q54 0 97 19.5t67.5 54t24.5 78.5q0 67 -52 104.5t-144 37.5h-54v45h51q84 0 132.5 40.5t48.5 103.5q0 60 -48 97.5t-124 37.5
q-78 0 -126 -39.5t-49 -107.5h-52q1 91 62.5 142.5t162.5 51.5q69 0 120 -22.5t79 -63.5t28 -94q0 -66 -40 -110t-109 -56q73 -9 120.5 -53z" />
    <glyph glyph-name="four.tosf" horiz-adv-x="600" 
d="M381 507h63v-460h113v-47h-113v-180h-50v180h-368v47zM394 452l-311 -405h311v405z" />
    <glyph glyph-name="five.tosf" horiz-adv-x="600" 
d="M430.5 245.5q50.5 -29.5 78.5 -82t28 -118.5q0 -73 -31.5 -125t-85 -78.5t-117.5 -26.5q-69 0 -121 28.5t-81 76t-33 105.5h52q4 -45 27 -82t63 -59.5t93 -22.5q49 0 90.5 22t66.5 63.5t25 98.5q0 53 -22.5 95t-64 66t-95.5 24q-60 0 -105 -29t-67 -82l-51 2l25 387h389
v-48h-343l-20 -277q25 44 73.5 68t109.5 24q66 0 116.5 -29.5z" />
    <glyph glyph-name="six.tosf" horiz-adv-x="600" 
d="M464 643q56 -51 69 -135h-51q-14 63 -55.5 101.5t-111.5 38.5q-104 0 -157 -79.5t-53 -212.5q0 -46 9 -90q2 22 4 31q15 70 71.5 111.5t134.5 41.5q66 0 115.5 -29t76 -80.5t26.5 -117.5q0 -67 -29 -119t-81.5 -81t-120.5 -29t-118.5 30.5t-81.5 85.5q-25 46 -39 108
t-14 129q0 158 65.5 252.5t192.5 94.5q92 0 148 -51zM221.5 382.5q-41.5 -22.5 -64.5 -63t-23 -92.5q0 -84 49 -136t129 -52t129 50.5t49 132.5t-47 132.5t-127 50.5q-53 0 -94.5 -22.5z" />
    <glyph glyph-name="seven.tosf" horiz-adv-x="600" 
d="M58 507h454v-45l-335 -642h-57l335 640h-397v47z" />
    <glyph glyph-name="eight.tosf" horiz-adv-x="600" 
d="M499.5 296q44.5 -46 44.5 -116q0 -54 -30 -96.5t-85 -66t-128 -23.5q-74 0 -129 23.5t-85 66t-30 96.5q0 69 44.5 115t115.5 59q-62 15 -101 57t-39 105q0 52 27.5 92.5t78.5 63t118 22.5t117.5 -22.5t78 -63t27.5 -92.5q0 -61 -39.5 -103.5t-99.5 -57.5
q70 -13 114.5 -59zM177 417q48 -38 124 -38q75 0 123 38t48 99q0 60 -48 98.5t-123 38.5q-76 0 -124 -38t-48 -99t48 -99zM399 55q44 19 68.5 52.5t24.5 76.5q0 42 -25 76t-68.5 53.5t-97.5 19.5q-55 0 -99 -19.5t-68.5 -53t-24.5 -76.5t24.5 -76.5t68.5 -52.5t99 -19
q54 0 98 19z" />
    <glyph glyph-name="nine.tosf" horiz-adv-x="600" 
d="M528 290.5q14 -61.5 14 -128.5q0 -158 -65.5 -253t-192.5 -95q-92 0 -148 51t-70 136h51q14 -64 56 -102.5t112 -38.5q105 0 158 80t53 213q0 49 -10 90q-1 -17 -6 -33q-15 -70 -70.5 -110t-133.5 -40q-66 0 -115.5 28.5t-76 80t-26.5 117.5t29 118t81.5 80.5t120.5 28.5
t118.5 -30t81.5 -86q25 -45 39 -106.5zM156.5 155q47.5 -50 127.5 -50q81 0 131.5 50.5t50.5 130.5q0 81 -49 131.5t-130 50.5q-80 0 -129 -50.5t-49 -131.5t47.5 -131z" />
    <glyph glyph-name="seven.tosf.ss08" horiz-adv-x="600" 
d="M61 507h463v-45l-335 -642h-56l334 640h-361v-138h-45v185z" />
    <glyph glyph-name="four.tosf.ss09" horiz-adv-x="600" 
d="M418 508h65v-700h-52v183h-381v48zM431 452l-323 -413h323v413z" />
    <glyph glyph-name="zero.tosf.zero" horiz-adv-x="600" 
d="M429 479q58 -34 91 -93.5t33 -132.5q0 -72 -33 -131.5t-91 -93.5t-129 -34t-129 34t-91 93.5t-33 131.5q0 73 33 132.5t91 93.5t129 34t129 -34zM198 438.5q-46 -28.5 -73 -77.5t-27 -108q0 -76 43 -133l292 295q-55 52 -133 52q-56 0 -102 -28.5zM402.5 68
q46.5 28 73 77t26.5 108q0 78 -44 135l-292 -296q57 -52 134 -52q56 0 102.5 28z" />
    <glyph glyph-name="zero.zero" horiz-adv-x="614" 
d="M437 660q57 -43 88 -119.5t31 -174.5v-32q0 -100 -31 -176t-87.5 -118t-130.5 -42t-130.5 42t-87.5 118t-31 176v32q0 98 31 174.5t88 119.5t130 43t130 -43zM104 336q0 -81 21 -144l345 363q-27 51 -69 79t-94 28q-61 0 -107 -37t-71 -104t-25 -156v-29zM510 365
q0 81 -22 147l-346 -363q26 -53 68.5 -81.5t96.5 -28.5q60 0 106 36.5t71.5 104t25.5 156.5v29z" />
    <glyph glyph-name="u1F10C.zero" horiz-adv-x="807" 
d="M221.5 662.5q-81.5 -46.5 -128 -128t-46.5 -181.5t46.5 -181.5t128 -128t181.5 -46.5t181.5 46.5t128 128t46.5 181.5t-46.5 181.5t-128 128t-181.5 46.5t-181.5 -46.5zM505 488.5q38 -52.5 38 -135.5t-38 -135.5t-102 -52.5t-102.5 52.5t-38.5 135.5t38.5 135.5
t102.5 52.5t102 -52.5zM327.5 463q-28.5 -43 -28.5 -110q0 -42 14 -78l168 182q-28 49 -78 49q-47 0 -75.5 -43zM478 243q28 43 28 110q0 44 -14 78l-168 -182q29 -49 79 -49q47 0 75 43z" />
    <glyph glyph-name="u1F10B.zero" horiz-adv-x="812" 
d="M587.5 659q81.5 -47 129 -128.5t47.5 -180.5t-47.5 -180.5t-129 -128.5t-181.5 -47t-182 47t-129.5 128.5t-47.5 180.5t47.5 180.5t129.5 128.5t182 47t181.5 -47zM243 629.5q-73 -42.5 -115 -116t-42 -163.5t42 -163.5t115 -116t163 -42.5q89 0 162.5 42.5t115.5 116
t42 163.5t-42 163.5t-115.5 116t-162.5 42.5q-90 0 -163 -42.5zM508 485.5q38 -52.5 38 -135.5t-38 -135.5t-102 -52.5t-102.5 52.5t-38.5 135.5t38.5 135.5t102.5 52.5t102 -52.5zM330.5 460q-28.5 -43 -28.5 -110q0 -42 14 -78l168 182q-28 49 -78 49q-47 0 -75.5 -43z
M481 240q28 43 28 110q0 44 -14 78l-168 -182q29 -49 79 -49q47 0 75 43z" />
    <glyph glyph-name="zero.dnom" horiz-adv-x="337" 
d="M66.5 317.5q38.5 52.5 102.5 52.5t102 -52.5t38 -135.5t-38 -135.5t-102 -52.5t-102.5 52.5t-38.5 135.5t38.5 135.5zM244 292q-28 43 -75 43t-75.5 -43t-28.5 -110t28.5 -110t75.5 -43t75 43t28 110t-28 110z" />
    <glyph glyph-name="one.dnom" horiz-adv-x="168" 
d="M87 0v257q-4 -9 -18 -9h-69v35h69q8 0 13.5 7t5.5 16v58h35v-364h-36z" />
    <glyph glyph-name="two.dnom" horiz-adv-x="310" 
d="M31 252q0 54 35 86t88 32q56 0 90 -30t34 -78q0 -37 -19 -64t-55 -58l-123 -105h201v-35h-255v34l150 125q32 27 47.5 50t15.5 52q0 33 -23.5 53.5t-61.5 20.5q-40 0 -64 -22.5t-24 -62.5v-6h-36v8z" />
    <glyph glyph-name="three.dnom" horiz-adv-x="319" 
d="M70 341q34 29 89 29t89 -27.5t34 -71.5q0 -32 -20 -53t-52 -27q37 -7 59 -29.5t22 -58.5q0 -49 -36.5 -79t-96.5 -30q-63 0 -98 30t-35 85h36q1 -39 27.5 -60t70.5 -21q41 0 67.5 20.5t26.5 53.5t-27 52.5t-72 19.5h-23v27h23q40 0 65 18.5t25 48.5t-23.5 49t-60.5 19
q-40 0 -64 -20t-24 -54h-37q1 50 35 79z" />
    <glyph glyph-name="four.dnom" horiz-adv-x="332" 
d="M205 364h44v-234h62v-34h-62v-96h-36v96h-192v34zM213 324l-152 -194h152v194z" />
    <glyph glyph-name="five.dnom" horiz-adv-x="312" 
d="M262 330h-188l-8 -135q16 22 41.5 34t55.5 12q54 0 87.5 -34t33.5 -88q0 -55 -36 -90t-92 -35q-52 0 -87 29t-40 76h36q5 -32 30 -51.5t61 -19.5q39 0 64.5 25.5t25.5 65.5t-25 64.5t-66 24.5q-28 0 -50.5 -13.5t-35.5 -36.5h-34l10 206h217v-34z" />
    <glyph glyph-name="six.dnom" horiz-adv-x="321" 
d="M67.5 317q38.5 53 104.5 53q46 0 79.5 -27.5t40.5 -76.5h-35q-7 35 -30 54t-55 19q-49 0 -78.5 -42t-29.5 -112q0 -15 2 -45q2 38 30 65.5t76 27.5q55 0 88.5 -33t33.5 -86q0 -54 -34.5 -87t-91.5 -33q-70 0 -104.5 49t-34.5 132q0 89 38.5 142zM232.5 178.5
q-24.5 24.5 -64.5 24.5q-41 0 -66 -24t-25 -64t25.5 -65t65.5 -25t64.5 24.5t24.5 64.5t-24.5 64.5z" />
    <glyph glyph-name="seven.dnom" horiz-adv-x="300" 
d="M24 365h255v-31l-176 -334h-40l176 332l-215 -1v34z" />
    <glyph glyph-name="eight.dnom" horiz-adv-x="321" 
d="M50.5 156.5q23.5 25.5 60.5 32.5q-33 7 -53 29.5t-20 56.5q0 41 34.5 68t88.5 27q53 0 87.5 -27t34.5 -68q0 -33 -19.5 -55.5t-52.5 -30.5q37 -7 60 -32.5t23 -61.5q0 -44 -37 -72.5t-96 -28.5t-96.5 28.5t-37.5 72.5q0 36 23.5 61.5zM222 320q-24 19 -61 19
q-38 0 -62 -19t-24 -49q0 -31 24 -50t62 -19t61.5 19t23.5 50q0 30 -24 49zM229 151.5q-27 21.5 -68 21.5t-68.5 -21.5t-27.5 -53.5q0 -31 27.5 -52t68.5 -21t68 20.5t27 52.5t-27 53.5z" />
    <glyph glyph-name="nine.dnom" horiz-adv-x="318" 
d="M253 47q-39 -53 -105 -53q-45 0 -78.5 27.5t-40.5 76.5h35q7 -35 30 -54t55 -19q49 0 78.5 42t29.5 112q0 15 -2 45q-2 -38 -30 -65.5t-76 -27.5q-55 0 -88.5 33t-33.5 86q0 54 34.5 87t91.5 33q70 0 104.5 -49t34.5 -132q0 -89 -39 -142zM88.5 185.5
q24.5 -24.5 64.5 -24.5q41 0 66 24t25 64t-25.5 65t-65.5 25t-64.5 -24.5t-24.5 -64.5t24.5 -64.5z" />
    <glyph glyph-name="zero.numr" horiz-adv-x="337" 
d="M66.5 654.5q38.5 52.5 102.5 52.5t102 -52.5t38 -135.5t-38 -135.5t-102 -52.5t-102.5 52.5t-38.5 135.5t38.5 135.5zM244 629q-28 43 -75 43t-75.5 -43t-28.5 -110t28.5 -110t75.5 -43t75 43t28 110t-28 110z" />
    <glyph glyph-name="one.numr" horiz-adv-x="168" 
d="M87 337v257q-4 -9 -18 -9h-69v35h69q8 0 13.5 7t5.5 16v58h35v-364h-36z" />
    <glyph glyph-name="two.numr" horiz-adv-x="310" 
d="M31 588q0 54 35 86t88 32q56 0 90 -30t34 -78q0 -37 -19 -64t-55 -58l-123 -105h201v-35h-255v34l150 125q32 27 47.5 50t15.5 52q0 33 -23.5 53.5t-61.5 20.5q-40 0 -64 -22.5t-24 -62.5v-6h-36v8z" />
    <glyph glyph-name="three.numr" horiz-adv-x="319" 
d="M70 679q34 29 89 29t89 -27.5t34 -71.5q0 -32 -20 -53t-52 -27q37 -7 59 -29.5t22 -58.5q0 -49 -36.5 -79t-96.5 -30q-63 0 -98 30t-35 85h36q1 -39 27.5 -60t70.5 -21q41 0 67.5 20.5t26.5 53.5t-27 52.5t-72 19.5h-23v27h23q40 0 65 18.5t25 48.5t-23.5 49t-60.5 19
q-40 0 -64 -20t-24 -54h-37q1 50 35 79z" />
    <glyph glyph-name="four.numr" horiz-adv-x="332" 
d="M205 700h44v-234h62v-34h-62v-96h-36v96h-192v34zM213 660l-152 -194h152v194z" />
    <glyph glyph-name="five.numr" horiz-adv-x="312" 
d="M262 666h-188l-8 -135q16 22 41.5 34t55.5 12q54 0 87.5 -34t33.5 -88q0 -55 -36 -90t-92 -35q-52 0 -87 29t-40 76h36q5 -32 30 -51.5t61 -19.5q39 0 64.5 25.5t25.5 65.5t-25 64.5t-66 24.5q-28 0 -50.5 -13.5t-35.5 -36.5h-34l10 206h217v-34z" />
    <glyph glyph-name="six.numr" horiz-adv-x="321" 
d="M67.5 654q38.5 53 104.5 53q46 0 79.5 -27.5t40.5 -76.5h-35q-7 35 -30 54t-55 19q-49 0 -78.5 -42t-29.5 -112q0 -15 2 -45q2 38 30 65.5t76 27.5q55 0 88.5 -33t33.5 -86q0 -54 -34.5 -87t-91.5 -33q-70 0 -104.5 49t-34.5 132q0 89 38.5 142zM232.5 515.5
q-24.5 24.5 -64.5 24.5q-41 0 -66 -24t-25 -64t25.5 -65t65.5 -25t64.5 24.5t24.5 64.5t-24.5 64.5z" />
    <glyph glyph-name="seven.numr" horiz-adv-x="300" 
d="M24 700h255v-31l-176 -334h-40l176 332l-215 -1v34z" />
    <glyph glyph-name="eight.numr" horiz-adv-x="321" 
d="M50.5 493.5q23.5 25.5 60.5 32.5q-33 7 -53 29.5t-20 56.5q0 41 34.5 68t88.5 27q53 0 87.5 -27t34.5 -68q0 -33 -19.5 -55.5t-52.5 -30.5q37 -7 60 -32.5t23 -61.5q0 -44 -37 -72.5t-96 -28.5t-96.5 28.5t-37.5 72.5q0 36 23.5 61.5zM222 657q-24 19 -61 19
q-38 0 -62 -19t-24 -49q0 -31 24 -50t62 -19t61.5 19t23.5 50q0 30 -24 49zM229 488.5q-27 21.5 -68 21.5t-68.5 -21.5t-27.5 -53.5q0 -31 27.5 -52t68.5 -21t68 20.5t27 52.5t-27 53.5z" />
    <glyph glyph-name="nine.numr" horiz-adv-x="318" 
d="M253 384q-39 -53 -105 -53q-45 0 -78.5 27.5t-40.5 76.5h35q7 -35 30 -54t55 -19q49 0 78.5 42t29.5 112q0 15 -2 45q-2 -38 -30 -65.5t-76 -27.5q-55 0 -88.5 33t-33.5 86q0 54 34.5 87t91.5 33q70 0 104.5 -49t34.5 -132q0 -89 -39 -142zM88.5 522.5
q24.5 -24.5 64.5 -24.5q41 0 66 24t25 64t-25.5 65t-65.5 25t-64.5 -24.5t-24.5 -64.5t24.5 -64.5z" />
    <glyph glyph-name="uni2080.zero" horiz-adv-x="337" 
d="M271 217.5q38 -52.5 38 -135.5t-38 -135.5t-102 -52.5t-102.5 52.5t-38.5 135.5t38.5 135.5t102.5 52.5t102 -52.5zM93.5 192q-28.5 -43 -28.5 -110q0 -42 14 -78l168 182q-28 49 -78 49q-47 0 -75.5 -43zM244 -28q28 43 28 110q0 44 -14 78l-168 -182q29 -49 79 -49
q47 0 75 43z" />
    <glyph glyph-name="zero.dnom.zero" horiz-adv-x="337" 
d="M271 317.5q38 -52.5 38 -135.5t-38 -135.5t-102 -52.5t-102.5 52.5t-38.5 135.5t38.5 135.5t102.5 52.5t102 -52.5zM93.5 292q-28.5 -43 -28.5 -110q0 -42 14 -78l168 182q-28 49 -78 49q-47 0 -75.5 -43zM244 72q28 43 28 110q0 44 -14 78l-168 -182q29 -49 79 -49
q47 0 75 43z" />
    <glyph glyph-name="zero.numr.zero" horiz-adv-x="337" 
d="M271 654.5q38 -52.5 38 -135.5t-38 -135.5t-102 -52.5t-102.5 52.5t-38.5 135.5t38.5 135.5t102.5 52.5t102 -52.5zM93.5 629q-28.5 -43 -28.5 -110q0 -42 14 -78l168 182q-28 49 -78 49q-47 0 -75.5 -43zM244 409q28 43 28 110q0 44 -14 78l-168 -182q29 -49 79 -49
q47 0 75 43z" />
    <glyph glyph-name="uni2070.zero" horiz-adv-x="337" 
d="M271 754.5q38 -52.5 38 -135.5t-38 -135.5t-102 -52.5t-102.5 52.5t-38.5 135.5t38.5 135.5t102.5 52.5t102 -52.5zM93.5 729q-28.5 -43 -28.5 -110q0 -42 14 -78l168 182q-28 49 -78 49q-47 0 -75.5 -43zM244 509q28 43 28 110q0 44 -14 78l-168 -182q29 -49 79 -49
q47 0 75 43z" />
    <glyph glyph-name="backslash.case" horiz-adv-x="307" 
d="M66 700l236 -700h-52l-235 700h51z" />
    <glyph glyph-name="periodcentered.case" horiz-adv-x="224" 
d="M84.5 380q10.5 10 27.5 10t27.5 -10t10.5 -27t-10.5 -27.5t-27.5 -10.5t-27.5 10.5t-10.5 27.5t10.5 27z" />
    <glyph glyph-name="colon.case" horiz-adv-x="184" 
d="M64.5 544q10.5 10 27.5 10t27.5 -10t10.5 -27t-10.5 -27.5t-27.5 -10.5t-27.5 10.5t-10.5 27.5t10.5 27zM64.5 151q10.5 10 27.5 10t27.5 -10t10.5 -27t-10.5 -27.5t-27.5 -10.5t-27.5 10.5t-10.5 27.5t10.5 27z" />
    <glyph glyph-name="semicolon.case" horiz-adv-x="184" 
d="M125.5 136.5q17.5 -24.5 17.5 -58.5q0 -50 -30.5 -81.5t-81.5 -33.5v30q36 1 55.5 24.5t19.5 54.5q0 17 -9 26q-7 -12 -25 -12q-15 0 -25 9.5t-10 26.5t12 28t32 11q27 0 44.5 -24.5zM62.5 544q10.5 10 27.5 10t27.5 -10t10.5 -27t-10.5 -27.5t-27.5 -10.5t-27.5 10.5
t-10.5 27.5t10.5 27z" />
    <glyph glyph-name="slash.case" horiz-adv-x="307" 
d="M246 700h51l-235 -700h-52z" />
    <glyph glyph-name="braceleft.case" horiz-adv-x="327" 
d="M199.5 628q-26.5 -26 -26.5 -79q0 -23 6 -52q1 -8 2 -17.5t1 -20.5q0 -46 -23.5 -73.5t-60.5 -34.5q37 -8 61 -35.5t24 -73.5q0 -10 -4 -38q-6 -28 -6 -53q0 -53 26.5 -79t80.5 -27h25v-45h-30q-149 0 -149 136q0 19 5 52q4 28 4 38q0 51 -27.5 77t-74.5 26v44
q47 0 74.5 25.5t27.5 76.5q0 9 -4 37q-5 32 -5 52q0 136 149 136h30v-45h-25q-54 -1 -80.5 -27z" />
    <glyph glyph-name="braceright.case" horiz-adv-x="327" 
d="M219.5 398.5q27.5 -25.5 74.5 -25.5v-44q-47 0 -74.5 -26t-27.5 -77q0 -10 4 -38q5 -33 5 -52q0 -136 -149 -136h-30v45h25q54 1 80.5 27t26.5 79q0 25 -6 53q-4 28 -4 38q0 46 24 73.5t61 35.5q-37 7 -60.5 34.5t-23.5 73.5q0 11 1 20.5t2 17.5q6 29 6 52q0 53 -26.5 79
t-80.5 27h-25v45h30q149 0 149 -136q0 -20 -5 -52q-4 -28 -4 -37q0 -51 27.5 -76.5z" />
    <glyph glyph-name="bracketleft.case" horiz-adv-x="286" 
d="M69 700h195v-45h-147v-610h147v-45h-195v700z" />
    <glyph glyph-name="bracketright.case" horiz-adv-x="286" 
d="M217 700v-700h-195v45h147v610h-147v45h195z" />
    <glyph glyph-name="parenleft.case" horiz-adv-x="243" 
d="M82.5 538.5q28.5 94.5 75.5 161.5h54q-51 -68 -79 -161.5t-28 -188.5t28.5 -188.5t78.5 -161.5h-54q-47 67 -75.5 161t-28.5 189q0 94 28.5 188.5z" />
    <glyph glyph-name="parenright.case" horiz-adv-x="243" 
d="M31 0q50 68 78.5 161.5t28.5 188.5t-28 188.5t-79 161.5h54q47 -67 75.5 -161.5t28.5 -188.5q0 -95 -28.5 -189t-75.5 -161h-54z" />
    <glyph glyph-name="emdash.case" horiz-adv-x="929" 
d="M64 379h801v-43h-801v43z" />
    <glyph glyph-name="endash.case" horiz-adv-x="594" 
d="M64 336v43h466v-43h-466z" />
    <glyph glyph-name="hyphen.case" horiz-adv-x="451" 
d="M64 336v43h323v-43h-323z" />
    <glyph glyph-name="guillemotleft.case" horiz-adv-x="564" 
d="M278 602l-161 -253l161 -254h-52l-163 254l163 253h52zM499 601l-161 -253l161 -254h-52l-163 254l163 253h52z" />
    <glyph glyph-name="guillemotright.case" horiz-adv-x="564" 
d="M286 602h52l163 -253l-163 -254h-52l161 254zM65 601h52l163 -253l-163 -254h-52l161 254z" />
    <glyph glyph-name="guilsinglleft.case" horiz-adv-x="337" 
d="M221 602h56l-161 -254l161 -253h-56l-163 253z" />
    <glyph glyph-name="guilsinglright.case" horiz-adv-x="337" 
d="M116 602l163 -254l-163 -253h-56l161 253l-161 254h56z" />
    <glyph glyph-name="dotmath.case" horiz-adv-x="184" 
d="M64.5 386q10.5 10 27.5 10t27.5 -10t10.5 -27t-10.5 -27.5t-27.5 -10.5t-27.5 10.5t-10.5 27.5t10.5 27z" />
    <glyph glyph-name="plus.case" 
d="M240 562h47v-183h175v-43h-175v-183h-47v183h-174v43h174v183z" />
    <glyph glyph-name="minus.case" 
d="M66 336v43h396v-43h-396z" />
    <glyph glyph-name="multiply.case" 
d="M113 539l153 -153l151 153l31 -31l-152 -152l153 -152l-33 -33l-153 152l-151 -151l-31 30l152 152l-153 153z" />
    <glyph glyph-name="divide.case" 
d="M237.5 565q10.5 10 27.5 10t27 -10t10 -26q0 -17 -10 -27.5t-27 -10.5t-27.5 10.5t-10.5 27.5q0 16 10.5 26zM66 336v43h396v-43h-396zM237.5 211q10.5 10 27.5 10t27 -10t10 -26q0 -17 -10 -27.5t-27 -10.5t-27.5 10.5t-10.5 27.5q0 16 10.5 26z" />
    <glyph glyph-name="equal.case" 
d="M76 425v44h376v-44h-376zM76 220v43h376v-43h-376z" />
    <glyph glyph-name="notequal.case" 
d="M452 425h-139l-55 -162h194v-43h-208l-36 -104h-45l35 104h-122v43h137l55 162h-192v44h207l34 101h46l-34 -101h123v-44z" />
    <glyph glyph-name="greater.case" 
d="M450 379v-50l-371 -173v51l314 147l-314 148v50z" />
    <glyph glyph-name="less.case" 
d="M79 329v50l371 173v-50l-314 -148l314 -147v-51z" />
    <glyph glyph-name="greaterequal.case" 
d="M450 379v-50l-371 -173v51l314 147l-314 148v50zM79 30v44h371v-44h-371z" />
    <glyph glyph-name="lessequal.case" 
d="M79 329v50l371 173v-50l-314 -148l314 -147v-51zM79 30v44h371v-44h-371z" />
    <glyph glyph-name="plusminus.case" 
d="M240 562h47v-183h175v-43h-175v-183h-47v183h-174v43h174v183zM66 30v43h396v-43h-396z" />
    <glyph glyph-name="approxequal.case" 
d="M72 173q0 57 29.5 90.5t77.5 33.5q31 0 52.5 -11t46.5 -32q21 -17 35 -25t33 -8q34 0 51 21.5t17 56.5h43q0 -57 -29 -90.5t-78 -33.5q-31 0 -52.5 11t-46.5 32q-21 17 -35 25t-33 8q-33 1 -50 -20.5t-17 -57.5h-44zM72 383q0 57 29.5 90.5t77.5 33.5q31 0 52.5 -11
t46.5 -32q21 -17 35 -25t33 -8q34 0 51 21.5t17 56.5h43q0 -57 -29 -90.5t-78 -33.5q-31 0 -52.5 11t-46.5 32q-21 17 -35 25t-33 8q-33 1 -50 -20.5t-17 -57.5h-44z" />
    <glyph glyph-name="asciitilde.case" 
d="M72 287q0 57 29.5 90.5t77.5 33.5q31 0 52.5 -11t46.5 -32q21 -17 35 -25t33 -8q34 0 51 21.5t17 56.5h43q0 -57 -29 -90.5t-78 -33.5q-31 0 -52.5 11t-46.5 32q-21 17 -35 25t-33 8q-33 1 -50 -20.5t-17 -57.5h-44z" />
    <glyph glyph-name="logicalnot.case" 
d="M66 406h353v-212h-46v168h-307v44z" />
    <glyph glyph-name="arrowup.case" horiz-adv-x="732" 
d="M54 393l313 314l311 -313l-37 -37l-248 250v-608h-53v608l-249 -251z" />
    <glyph glyph-name="uni2197.case" horiz-adv-x="644" 
d="M148 700l442 1l-1 -442h-53l2 354l-447 -449l-37 37l448 448l-354 -2v53z" />
    <glyph glyph-name="arrowright.case" horiz-adv-x="816" 
d="M448 668l314 -312l-313 -312l-37 38l250 247h-608v53h608l-251 249z" />
    <glyph glyph-name="uni2198.case" horiz-adv-x="644" 
d="M149 1v52l354 -2l-449 448l37 37l447 -448l-1 354h53v-442z" />
    <glyph glyph-name="arrowdown.case" horiz-adv-x="732" 
d="M54 306l37 37l249 -251v608h53v-608l248 250l37 -37l-311 -313z" />
    <glyph glyph-name="uni2199.case" horiz-adv-x="644" 
d="M553 536l37 -37l-449 -447l355 1v-52l-442 -1l1 441h52l-2 -353z" />
    <glyph glyph-name="arrowleft.case" horiz-adv-x="816" 
d="M368 668l37 -37l-251 -249h608v-53h-608l250 -247l-37 -38l-313 312z" />
    <glyph glyph-name="uni2196.case" horiz-adv-x="644" 
d="M496 700v-53l-355 2l449 -448l-37 -37l-448 449l2 -354h-52l-1 442z" />
    <glyph glyph-name="arrowboth.case" horiz-adv-x="932" 
d="M921 350l-275 -273l-37 36l210 211h-707l210 -209l-37 -37l-274 272l37 38l1 -1l235 238l37 -37l-210 -211h710l-211 211l38 37z" />
    <glyph glyph-name="bar.case" horiz-adv-x="198" 
d="M72 700h54v-700h-54v700z" />
    <glyph glyph-name="brokenbar.case" horiz-adv-x="198" 
d="M72 700h54v-317h-54v317zM72 313h54v-313h-54v313z" />
    </font>
</defs>
</svg>
