
<!-- Generator: Adobe Illustrator 19.0.0, SVG Export Plug-In . SVG Version:
6.00 Build 0) -->
<svg contentScriptType="text/ecmascript" zoomAndPan="magnify"
     xmlns:xlink="http://www.w3.org/1999/xlink" contentStyleType="text/css"
     id="Capa_1" style="enable-background:new 0 0 480.056 480.056;"
     version="1.1" xml:space="preserve" preserveAspectRatio="xMidYMid meet"
     viewBox="0 0 480.056 480.056" xmlns="http://www.w3.org/2000/svg" x="0px"
     y="0px">
    <linearGradient gradientTransform="matrix(8 0 0 -8 454.8047 4941.251)"
                    x1="-58.7871" xmlns:xlink="http://www.w3.org/1999/xlink"
                    x2="5.3529" y1="605.6529" gradientUnits="userSpaceOnUse"
                    y2="605.6529" xlink:type="simple" xlink:actuate="onLoad"
                    id="SVGID_1_" xlink:show="other">
        <stop style="stop-color:#00A2CC" offset="0"/>
        <stop style="stop-color:#2B32B2" offset="1"/></linearGradient>
    <path style="fill:url(#SVGID_1_);"
          d="M160.028,32.028c-26.499,0.026-47.974,21.501-48,48c0,4.418,3.582,8,8,8s8-3.582,8-8  c0-17.673,14.327-32,32-32s32,14.327,32,32s-14.327,32-32,32c-4.418,0-8,3.582-8,8v32c0,4.418,3.582,8,8,8s8-3.582,8-8v-24.664  c26.143-4.394,43.774-29.149,39.38-55.292C203.52,48.94,183.484,32.006,160.028,32.028z"/>
    <g>

        <linearGradient gradientTransform="matrix(8 0 0 -8 454.8047 4941.251)"
                        x1="-58.7871" xmlns:xlink="http://www.w3.org/1999/xlink"
                        x2="5.3529" y1="593.6529" gradientUnits="userSpaceOnUse"
                        y2="593.6529" xlink:type="simple" xlink:actuate="onLoad"
                        id="SVGID_2_" xlink:show="other">
            <stop style="stop-color:#00A2CC" offset="0"/>
            <stop style="stop-color:#2B32B2" offset="1"/></linearGradient>
        <path style="fill:url(#SVGID_2_);"
              d="M168.028,192.028v-8c0-4.418-3.582-8-8-8s-8,3.582-8,8v8c0.037,1.453,0.481,2.866,1.28,4.08   c-0.727,1.181-1.127,2.534-1.16,3.92c0,4.418,3.582,8,8,8s8-3.582,8-8c-0.038-1.469-0.49-2.897-1.304-4.12   C167.575,194.742,167.983,193.403,168.028,192.028z"/>

        <linearGradient gradientTransform="matrix(8 0 0 -8 454.8047 4941.251)"
                        x1="-58.7871" xmlns:xlink="http://www.w3.org/1999/xlink"
                        x2="5.3529" y1="587.6533" gradientUnits="userSpaceOnUse"
                        y2="587.6533" xlink:type="simple" xlink:actuate="onLoad"
                        id="SVGID_3_" xlink:show="other">
            <stop style="stop-color:#00A2CC" offset="0"/>
            <stop style="stop-color:#2B32B2" offset="1"/></linearGradient>
        <path style="fill:url(#SVGID_3_);"
              d="M427.716,176.028H320.028v-120c0-32.448-20.184-56-48-56H52.34   c-29.879,1.086-53.261,26.117-52.312,56v192c0,4.418,3.582,8,8,8h17.96L1.452,291.476c-2.507,3.638-1.59,8.62,2.048,11.127   c2.362,1.627,5.414,1.866,8,0.625l98.04-47.2h50.488v120c0,32.448,20.184,56,48,56h162.488l98.04,47.2   c3.981,1.916,8.762,0.241,10.678-3.74c1.247-2.592,1.007-5.654-0.63-8.02l-24.536-35.44h17.96c4.418,0,8-3.582,8-8v-192   C480.977,202.144,457.595,177.114,427.716,176.028z M107.716,240.028c-1.2,0.003-2.384,0.277-3.464,0.8l-72.408,34.856l16-23.104   c2.514-3.633,1.607-8.617-2.027-11.131c-1.339-0.927-2.929-1.422-4.557-1.421H16.028v-184c-0.943-21.046,15.273-38.909,36.312-40   h219.688c21.984,0,32,20.736,32,40v144c0,19.264-10.016,40-32,40L107.716,240.028z M464.028,416.028h-25.232   c-4.418,0.001-7.999,3.584-7.997,8.003c0.001,1.626,0.496,3.212,1.421,4.549l16,23.104l-72.416-34.856   c-1.08-0.523-2.264-0.797-3.464-0.8H208.028c-21.984,0-32-20.736-32-40v-120h96c27.816,0,48-23.552,48-56v-8h107.688   c21.039,1.091,37.255,18.954,36.312,40V416.028z"/>

        <linearGradient gradientTransform="matrix(8 0 0 -8 454.8047 4941.251)"
                        x1="-58.7871" xmlns:xlink="http://www.w3.org/1999/xlink"
                        x2="5.3529" y1="577.6522" gradientUnits="userSpaceOnUse"
                        y2="577.6522" xlink:type="simple" xlink:actuate="onLoad"
                        id="SVGID_4_" xlink:show="other">
            <stop style="stop-color:#00A2CC" offset="0"/>
            <stop style="stop-color:#2B32B2" offset="1"/></linearGradient>
        <path style="fill:url(#SVGID_4_);"
              d="M369.628,332.932l-34.136-87.792c-1.596-4.12-6.229-6.166-10.349-4.571   c-2.099,0.813-3.758,2.472-4.571,4.571l-56,144c-1.599,4.12,0.444,8.757,4.564,10.356c4.12,1.599,8.757-0.444,10.356-4.564   l19.792-50.904h57.496l19.792,50.896c1.599,4.12,6.236,6.163,10.356,4.564c4.12-1.599,6.163-6.236,4.564-10.356l0,0   L369.628,332.932z M305.508,328.028l22.52-57.92l22.528,57.92H305.508z"/>

        <linearGradient gradientTransform="matrix(8 0 0 -8 454.8047 4941.251)"
                        x1="-58.7871" xmlns:xlink="http://www.w3.org/1999/xlink"
                        x2="5.3529" y1="563.1529" gradientUnits="userSpaceOnUse"
                        y2="563.1529" xlink:type="simple" xlink:actuate="onLoad"
                        id="SVGID_5_" xlink:show="other">
            <stop style="stop-color:#00A2CC" offset="0"/>
            <stop style="stop-color:#2B32B2" offset="1"/></linearGradient>
        <path style="fill:url(#SVGID_5_);"
              d="M176.028,456.028v-16c-13.255,0-24-10.745-24-24h-16   C136.054,438.108,153.947,456.001,176.028,456.028z"/>

        <linearGradient gradientTransform="matrix(8 0 0 -8 454.8047 4941.251)"
                        x1="-58.7871" xmlns:xlink="http://www.w3.org/1999/xlink"
                        x2="5.3529" y1="560.1529" gradientUnits="userSpaceOnUse"
                        y2="560.1529" xlink:type="simple" xlink:actuate="onLoad"
                        id="SVGID_6_" xlink:show="other">
            <stop style="stop-color:#00A2CC" offset="0"/>
            <stop style="stop-color:#2B32B2" offset="1"/></linearGradient>
        <path style="fill:url(#SVGID_6_);"
              d="M120.028,440.028h-16c0.026,22.08,17.92,39.974,40,40v-16   C130.773,464.028,120.028,453.283,120.028,440.028z"/></g>
    <g></g>
    <g></g>
    <g></g>
    <g></g>
    <g></g>
    <g></g>
    <g></g>
    <g></g>
    <g></g>
    <g></g>
    <g></g>
    <g></g>
    <g></g>
    <g></g>
    <g></g></svg>