<?xml version="1.0"?>
<svg xmlns="http://www.w3.org/2000/svg" xmlns:xlink="http://www.w3.org/1999/xlink" xmlns:svgjs="http://svgjs.com/svgjs" version="1.1" width="512" height="512" x="0" y="0" viewBox="0 0 227.617 227.617" style="enable-background:new 0 0 512 512" xml:space="preserve" class=""><g>
<g xmlns="http://www.w3.org/2000/svg">
	<g>
		<g>
			<path d="M56,148.628c-8.824,0-16,7.178-16,16s7.176,16,16,16c8.824,0,16-7.178,16-16S64.825,148.628,56,148.628z M56,172.628     c-4.41,0-8-3.588-8-8s3.59-8,8-8c4.41,0,8,3.588,8,8S60.41,172.628,56,172.628z" fill="#ffffff" data-original="#000000" style="" class=""/>
			<path d="M100.012,152.628h-1.668c-0.93-3.297-2.242-6.459-3.922-9.455l1.184-1.182c4.676-4.674,4.672-12.283-0.008-16.961     c-2.274-2.274-5.285-3.525-8.484-3.525c-0.004,0-0.008,0-0.008,0c-3.199,0.002-6.207,1.252-8.469,3.516l-1.184,1.184     c-2.992-1.678-6.156-2.99-9.453-3.92v-1.668c0-6.611-5.383-11.988-12-11.988s-12,5.377-12,11.988v1.668     c-3.297,0.93-6.461,2.242-9.453,3.92l-1.184-1.182c-4.676-4.674-12.285-4.67-16.961,0.008c-2.274,2.275-3.527,5.293-3.524,8.492     c0,3.197,1.25,6.205,3.516,8.467l1.18,1.184c-1.676,2.996-2.988,6.16-3.918,9.455h-1.668c-6.609,0-11.988,5.383-11.988,12     s5.379,12,11.988,12h1.668c0.93,3.295,2.242,6.459,3.918,9.455l-1.18,1.182c-4.676,4.674-4.672,12.283,0.008,16.961     c2.274,2.274,5.285,3.525,8.484,3.525c0.004,0,0.004,0,0.008,0c3.195-0.002,6.203-1.25,8.469-3.516l1.184-1.184     c2.992,1.678,6.156,2.99,9.453,3.92v1.668c0,6.611,5.383,11.988,12,11.988s12-5.377,12-11.988v-1.668     c3.297-0.93,6.461-2.242,9.453-3.92l1.184,1.182c4.676,4.676,12.285,4.668,16.961-0.008c2.274-2.275,3.527-5.293,3.524-8.492     c0-3.197-1.25-6.205-3.516-8.469l-1.184-1.182c1.68-2.996,2.992-6.158,3.922-9.455h1.668c6.609,0,11.988-5.383,11.988-12     S106.621,152.628,100.012,152.628z M100.012,168.628h-4.813c-1.902,0-3.543,1.34-3.922,3.205     c-0.914,4.524-2.68,8.777-5.242,12.644c-1.051,1.586-0.836,3.692,0.508,5.037l3.406,3.408c0.758,0.754,1.172,1.754,1.172,2.814     c0.004,1.062-0.418,2.068-1.18,2.832c-1.558,1.557-4.09,1.566-5.648,0.006l-3.406-3.404c-1.348-1.344-3.457-1.553-5.035-0.504     c-3.867,2.558-8.121,4.322-12.644,5.24c-1.868,0.376-3.208,2.017-3.208,3.92v4.812c0,2.236-1.758,3.988-4,3.988     c-2.207,0-4-1.789-4-3.988v-4.812c0-1.902-1.34-3.543-3.207-3.92c-4.524-0.918-8.777-2.682-12.644-5.24     c-0.672-0.447-1.442-0.666-2.207-0.666c-1.031,0-2.055,0.398-2.828,1.17l-3.406,3.406c-0.758,0.756-1.758,1.174-2.816,1.174     c-0.004,0-0.004,0-0.004,0c-1.062,0-2.066-0.418-2.828-1.182c-1.558-1.558-1.562-4.094-0.008-5.65l3.402-3.406     c1.344-1.344,1.555-3.449,0.508-5.033c-2.558-3.869-4.324-8.125-5.238-12.646c-0.379-1.865-2.02-3.205-3.922-3.205h-4.813     c-2.199,0-3.988-1.795-3.988-4s1.789-4,3.988-4h4.812c1.902,0,3.543-1.34,3.922-3.205c0.914-4.522,2.68-8.777,5.238-12.646     c1.047-1.584,0.836-3.69-0.508-5.033l-3.402-3.41c-0.758-0.754-1.172-1.754-1.172-2.814c-0.004-1.062,0.418-2.068,1.18-2.832     c1.555-1.558,4.086-1.568,5.648-0.006l3.406,3.404c1.348,1.346,3.457,1.557,5.035,0.504c3.867-2.558,8.121-4.322,12.644-5.24     c1.867-0.377,3.207-2.018,3.207-3.92v-4.812c0-2.236,1.758-3.988,4-3.988c2.207,0,4,1.789,4,3.988v4.812     c0,1.902,1.34,3.543,3.207,3.92c4.524,0.918,8.777,2.682,12.644,5.24c1.578,1.053,3.688,0.842,5.035-0.504l3.41-3.408     c0.754-0.756,1.754-1.172,2.812-1.172c0,0,0,0,0.004,0c1.062,0,2.066,0.418,2.828,1.182c1.558,1.558,1.562,4.094,0.008,5.648     l-3.406,3.406c-1.344,1.346-1.558,3.451-0.508,5.037c2.562,3.867,4.328,8.121,5.242,12.644c0.379,1.865,2.02,3.205,3.922,3.205     h4.812c2.199,0,3.988,1.795,3.988,4S102.211,168.628,100.012,168.628z" fill="#ffffff" data-original="#000000" style="" class=""/>
			<path d="M178.844,105.8c-3.797-2.285-8.266-2.959-12.582-1.881c-4.308,1.074-7.942,3.762-10.226,7.568     c-2.289,3.807-2.957,8.275-1.883,12.584c1.887,7.549,8.68,12.604,16.133,12.604c1.324,0,2.676-0.16,4.02-0.496     c8.894-2.219,14.324-11.258,12.109-20.152C185.336,111.718,182.649,108.087,178.844,105.8z M177.676,124.491     c-1.188,1.973-3.07,3.367-5.308,3.926c-4.606,1.152-9.297-1.668-10.449-6.283c-0.558-2.234-0.211-4.551,0.973-6.525     c1.188-1.975,3.07-3.369,5.308-3.928c0.695-0.174,1.402-0.26,2.102-0.26c1.543,0,3.062,0.418,4.422,1.234     c1.976,1.188,3.371,3.072,3.926,5.308C179.207,120.198,178.863,122.516,177.676,124.491z" fill="#ffffff" data-original="#000000" style="" class=""/>
			<path d="M218.215,120.896c6.637-1.658,10.688-8.408,9.031-15.049c-1.656-6.644-8.41-10.695-15.043-9.045l-1.852,0.463     c-1.824-3.215-4.02-6.18-6.566-8.867l0.988-1.642c1.703-2.838,2.199-6.174,1.398-9.391c-0.805-3.217-2.812-5.928-5.652-7.633     c-2.856-1.719-6.184-2.225-9.41-1.416c-3.207,0.801-5.914,2.808-7.625,5.65l-0.984,1.642c-3.566-0.984-7.215-1.531-10.906-1.633     l-0.465-1.859c-1.656-6.631-8.394-10.693-15.047-9.027c-6.641,1.656-10.703,8.402-9.047,15.039l0.461,1.856     c-3.211,1.822-6.176,4.018-8.863,6.562l-1.641-0.985c-2.84-1.707-6.172-2.211-9.394-1.4c-3.215,0.803-5.93,2.81-7.637,5.652     c-1.715,2.856-2.215,6.197-1.41,9.41c0.801,3.207,2.808,5.914,5.652,7.623l1.641,0.984c-0.988,3.564-1.535,7.215-1.633,10.908     l-1.859,0.465c-3.211,0.801-5.922,2.807-7.629,5.65c-1.707,2.842-2.203,6.18-1.402,9.396c1.656,6.642,8.414,10.701,15.043,9.047     l1.856-0.463c1.82,3.213,4.016,6.178,6.562,8.865l-0.988,1.642c-1.703,2.838-2.199,6.174-1.398,9.391     c0.805,3.217,2.812,5.928,5.652,7.633c2.856,1.717,6.188,2.221,9.41,1.416c3.207-0.801,5.914-2.808,7.625-5.654l0.984-1.639     c3.566,0.984,7.215,1.531,10.91,1.633l0.461,1.856c0.801,3.215,2.808,5.924,5.652,7.631c1.953,1.174,4.144,1.775,6.367,1.775     c1.008,0,2.024-0.125,3.027-0.375c3.23-0.805,5.949-2.812,7.652-5.652c1.703-2.836,2.195-6.17,1.394-9.385l-0.465-1.856     c3.215-1.822,6.18-4.02,8.867-6.564l1.644,0.988c2.836,1.705,6.168,2.195,9.391,1.396c3.215-0.805,5.926-2.812,7.629-5.65     c1.719-2.854,2.223-6.197,1.418-9.412c-0.801-3.207-2.808-5.914-5.652-7.623l-1.641-0.984c0.988-3.564,1.535-7.213,1.633-10.908     L218.215,120.896z M211.363,114.358c-1.844,0.459-3.113,2.156-3.027,4.057c0.215,4.887-0.504,9.705-2.144,14.32     c-0.637,1.793,0.078,3.787,1.711,4.768l4.344,2.608c1.012,0.608,1.726,1.568,2.008,2.703c0.285,1.139,0.106,2.328-0.512,3.352     c-0.606,1.01-1.57,1.725-2.715,2.01c-1.148,0.289-2.324,0.113-3.332-0.494l-4.344-2.609c-1.625-0.975-3.719-0.674-5.008,0.728     c-3.312,3.617-7.23,6.516-11.637,8.615c-1.719,0.818-2.621,2.732-2.164,4.578l1.226,4.914c0.285,1.146,0.109,2.328-0.492,3.332     c-0.606,1.006-1.574,1.719-2.73,2.008c-1.137,0.289-2.328,0.109-3.34-0.498c-1.008-0.606-1.723-1.566-2.008-2.707l-1.223-4.912     c-0.449-1.787-2.055-3.031-3.883-3.031c-0.058,0-0.117,0.002-0.176,0.004c-4.879,0.223-9.703-0.508-14.324-2.144     c-1.785-0.635-3.785,0.078-4.766,1.713l-2.606,4.34c-0.606,1.012-1.566,1.726-2.703,2.01c-1.133,0.289-2.324,0.104-3.352-0.512     c-1.012-0.608-1.723-1.57-2.012-2.715c-0.285-1.142-0.109-2.326,0.496-3.332l2.609-4.342c0.98-1.631,0.676-3.725-0.726-5.01     c-3.617-3.312-6.516-7.228-8.621-11.641c-0.816-1.717-2.711-2.617-4.578-2.16l-4.906,1.226c-2.418,0.598-4.75-0.822-5.344-3.223     c-0.289-1.144-0.109-2.332,0.496-3.342c0.605-1.01,1.566-1.721,2.707-2.006l4.914-1.226c1.844-0.461,3.113-2.158,3.027-4.057     c-0.215-4.887,0.504-9.703,2.144-14.316c0.637-1.795-0.078-3.789-1.711-4.77l-4.344-2.609c-1.012-0.608-1.726-1.568-2.012-2.705     c-0.285-1.139-0.102-2.328,0.512-3.348c0.606-1.012,1.57-1.726,2.719-2.012c1.144-0.287,2.328-0.106,3.332,0.496l4.344,2.608     c1.633,0.982,3.723,0.676,5.008-0.728c3.312-3.617,7.23-6.516,11.637-8.615c1.719-0.818,2.625-2.734,2.16-4.58l-1.223-4.91     c-0.59-2.356,0.859-4.752,3.223-5.342c2.359-0.594,4.762,0.85,5.348,3.203l1.223,4.912c0.461,1.846,2.184,3.074,4.058,3.029     c4.894-0.221,9.707,0.508,14.32,2.144c1.789,0.639,3.781-0.078,4.766-1.709l2.609-4.344c0.606-1.012,1.566-1.726,2.703-2.01     c1.141-0.283,2.332-0.102,3.352,0.512c1.012,0.608,1.723,1.57,2.012,2.715c0.285,1.142,0.109,2.326-0.496,3.332l-2.609,4.342     c-0.98,1.631-0.676,3.725,0.726,5.01c3.617,3.312,6.516,7.228,8.621,11.641c0.82,1.719,2.726,2.619,4.578,2.16l4.91-1.225     c2.398-0.588,4.742,0.814,5.34,3.221c0.59,2.361-0.848,4.762-3.203,5.35L211.363,114.358z" fill="#ffffff" data-original="#000000" style="" class=""/>
			<path d="M82.414,43.083c-6.32-4.59-15.188-3.18-19.77,3.131c-2.223,3.058-3.121,6.801-2.531,10.533     c0.59,3.734,2.602,7.016,5.66,9.238c2.508,1.82,5.414,2.697,8.301,2.697c4.379,0,8.703-2.024,11.469-5.83l0.004-0.002     C90.129,56.536,88.727,47.669,82.414,43.083z M79.075,58.149c-1.992,2.742-5.848,3.359-8.598,1.363     c-1.332-0.967-2.207-2.392-2.461-4.016c-0.258-1.623,0.133-3.25,1.098-4.58c1.203-1.656,3.082-2.535,4.988-2.535     c1.254,0,2.52,0.383,3.609,1.174C80.453,51.548,81.067,55.403,79.075,58.149z" fill="#ffffff" data-original="#000000" style="" class=""/>
			<path d="M114.856,74.724c-0.449-2.83-1.976-5.322-4.305-7.014l-0.766-0.557c0.879-2.486,1.492-5.047,1.836-7.66l0.938-0.148     c2.84-0.451,5.332-1.98,7.024-4.307c1.688-2.328,2.371-5.174,1.918-8.014c-0.93-5.867-6.48-9.885-12.308-8.953l-0.938,0.148     c-1.137-2.383-2.512-4.629-4.117-6.719l0.555-0.764c1.692-2.322,2.375-5.166,1.922-8.006c-0.449-2.844-1.98-5.34-4.308-7.029     c-2.34-1.701-5.195-2.396-8.016-1.934c-2.836,0.449-5.328,1.98-7.016,4.307l-0.558,0.768c-2.484-0.881-5.047-1.494-7.664-1.836     l-0.148-0.943c-0.93-5.858-6.48-9.871-12.316-8.94c-2.852,0.453-5.352,1.982-7.039,4.308c-1.688,2.32-2.367,5.164-1.914,8.002     l0.148,0.94c-2.383,1.135-4.629,2.51-6.719,4.115l-0.77-0.558c-4.794-3.486-11.54-2.414-15.032,2.386     c-1.699,2.336-2.386,5.186-1.934,8.026c0.449,2.832,1.98,5.324,4.305,7.014l0.77,0.558c-0.879,2.482-1.496,5.041-1.836,7.658     l-0.942,0.148c-5.856,0.928-9.867,6.455-8.942,12.322c0.93,5.865,6.476,9.881,12.308,8.953l0.942-0.15     c1.133,2.381,2.508,4.627,4.113,6.717l-0.558,0.77c-3.484,4.799-2.41,11.543,2.391,15.033c4.808,3.49,11.547,2.424,15.035-2.373     l0.558-0.77c2.484,0.881,5.047,1.496,7.66,1.838l0.152,0.936c0.445,2.84,1.976,5.334,4.305,7.025     c1.856,1.348,4.047,2.055,6.301,2.055c0.566,0,1.141-0.045,1.711-0.135c5.863-0.928,9.879-6.449,8.953-12.31l-0.148-0.94     c2.383-1.135,4.629-2.51,6.719-4.113l0.766,0.555c2.32,1.688,5.16,2.365,8.004,1.922c2.844-0.451,5.34-1.98,7.027-4.307     C114.621,80.413,115.309,77.563,114.856,74.724z M102.555,71.79l3.293,2.391c0.598,0.438,0.992,1.076,1.109,1.799     c0.113,0.726-0.066,1.459-0.508,2.066c-0.434,0.6-1.074,0.992-1.808,1.109c-0.723,0.104-1.457-0.062-2.047-0.492l-3.293-2.392     c-1.531-1.115-3.648-1-5.055,0.289c-2.82,2.586-6.078,4.58-9.68,5.928c-1.781,0.666-2.844,2.494-2.547,4.371l0.637,4.022     c0.238,1.529-0.774,2.918-2.305,3.16c-0.746,0.119-1.469-0.06-2.062-0.492c-0.598-0.434-0.988-1.072-1.106-1.803l-0.641-4.024     c-0.297-1.877-1.875-3.285-3.774-3.367c-3.84-0.168-7.551-1.058-11.035-2.646c-0.535-0.244-1.102-0.361-1.66-0.361     c-1.246,0-2.465,0.586-3.234,1.648l-2.394,3.295c-0.91,1.252-2.602,1.518-3.863,0.604c-1.234-0.896-1.512-2.629-0.621-3.859     l2.394-3.293c1.121-1.539,1-3.652-0.285-5.055c-2.594-2.828-4.59-6.084-5.93-9.676c-0.664-1.785-2.504-2.842-4.371-2.555     l-4.027,0.639c-1.543,0.256-2.918-0.772-3.156-2.301c-0.238-1.51,0.789-2.932,2.289-3.17l4.027-0.637     c1.879-0.297,3.289-1.877,3.371-3.779c0.164-3.84,1.055-7.551,2.644-11.031c0.793-1.73,0.254-3.779-1.285-4.898l-3.296-2.396     c-0.602-0.436-0.992-1.074-1.109-1.797c-0.113-0.726,0.066-1.459,0.504-2.062c0.898-1.238,2.641-1.508,3.859-0.621l3.297,2.394     c1.539,1.121,3.652,1,5.055-0.289c2.824-2.59,6.082-4.584,9.676-5.926c1.781-0.666,2.852-2.494,2.551-4.373l-0.637-4.029     c-0.113-0.728,0.058-1.457,0.488-2.049c0.434-0.596,1.078-0.988,1.816-1.106c1.508-0.254,2.926,0.793,3.168,2.291l0.637,4.025     c0.297,1.879,1.875,3.289,3.777,3.371c3.836,0.166,7.551,1.055,11.035,2.644c1.734,0.793,3.777,0.254,4.894-1.287l2.398-3.297     c0.434-0.598,1.07-0.99,1.793-1.106c0.738-0.121,1.461,0.064,2.066,0.504c0.598,0.436,0.992,1.078,1.109,1.81     c0.113,0.726-0.062,1.453-0.496,2.051l-2.39,3.296c-1.117,1.539-0.996,3.652,0.289,5.053c2.59,2.822,4.582,6.078,5.93,9.678     c0.668,1.785,2.527,2.854,4.371,2.551l4.024-0.637c1.531-0.266,2.918,0.768,3.16,2.305c0.113,0.73-0.062,1.461-0.496,2.06     c-0.434,0.596-1.07,0.988-1.797,1.104l-4.024,0.637c-1.879,0.297-3.289,1.877-3.371,3.779c-0.164,3.83-1.055,7.545-2.648,11.037     C100.477,68.626,101.016,70.673,102.555,71.79z" fill="#ffffff" data-original="#000000" style="" class=""/>
		</g>
	</g>
</g>
<g xmlns="http://www.w3.org/2000/svg">
</g>
<g xmlns="http://www.w3.org/2000/svg">
</g>
<g xmlns="http://www.w3.org/2000/svg">
</g>
<g xmlns="http://www.w3.org/2000/svg">
</g>
<g xmlns="http://www.w3.org/2000/svg">
</g>
<g xmlns="http://www.w3.org/2000/svg">
</g>
<g xmlns="http://www.w3.org/2000/svg">
</g>
<g xmlns="http://www.w3.org/2000/svg">
</g>
<g xmlns="http://www.w3.org/2000/svg">
</g>
<g xmlns="http://www.w3.org/2000/svg">
</g>
<g xmlns="http://www.w3.org/2000/svg">
</g>
<g xmlns="http://www.w3.org/2000/svg">
</g>
<g xmlns="http://www.w3.org/2000/svg">
</g>
<g xmlns="http://www.w3.org/2000/svg">
</g>
<g xmlns="http://www.w3.org/2000/svg">
</g>
</g></svg>
